<svg
	xmlns="http://www.w3.org/2000/svg"
	width="144"
	height="63"
	viewBox="0 0 144 63"
	fill="none"
>
	<g fill="currentColor" clip-path="url(#a)">
		<path
			d="M23.903 9.945s-1.488-4.643-4.238-6.298a5.173 5.173 0 0 0-.961-.507c-.98-.414-3.956-1.034-10.473 2.293 0 0-.056.02-.132.075h-.018l-.132.094C1.526 9.137.358 11.957.132 13.01A7.178 7.178 0 0 0 0 14.1c-.207 3.234 2.75 7.107 2.75 7.107 4.502 5.94 11.132 3.797 14.428 2.049l.113-.056.113-.057c3.278-1.748 8.797-6.072 6.499-13.179v-.019ZM17.122 22.56l-.113.057-.113.056c-3.146 1.673-9.494 3.76-13.732-1.786 0 0-2.768-3.628-2.542-6.655 0-.32.056-.696.131-1.015.208-.997 1.375-3.666 7.516-7.07 0 0 .038-.018.132-.075h.019l.131-.075c6.254-3.196 9.08-2.65 10.021-2.256.32.113.64.301.904.47 2.6 1.523 3.994 5.885 3.994 5.885 2.128 6.674-3.165 10.791-6.33 12.464h-.018Z"
		></path>
		<path
			d="M19.156 4.738a6.199 6.199 0 0 0-.866-.433c-.886-.357-3.58-.865-9.531 2.181 0 0-.038.019-.132.057h-.019l-.132.075C2.637 9.85 1.526 12.37 1.32 13.31c-.076.32-.114.658-.132.959-.226 2.876 2.392 6.279 2.392 6.279 4.012 5.226 10.058 3.233 13.053 1.635l.113-.056.113-.056c2.995-1.598 8.043-5.509 6.046-11.807 0 0-1.3-4.117-3.767-5.546l.019.019ZM8.062 8.44h.17l-.095-.188c0-.037 0-.075.038-.075h.019s.056 0 .075.019l.113.244h.226l-.17-.338c0-.038 0-.075.038-.075h.019s.056 0 .075.019l.189.413h.226l-.057-.094c0-.037 0-.075.038-.075h.019s.056 0 .075.019l.075.169h.151l.094-.15-.075-.132h-.188s-.057-.019-.057-.056c0 0 .019-.076.057-.076h.113l-.113-.206h-.453s-.056-.02-.056-.057c0 0 .019-.075.056-.075h.377l-.113-.207h-.282s-.057-.019-.057-.056c0 0 .019-.075.057-.075h.207l-.075-.15c0-.038 0-.057.018-.076.038 0 .057 0 .076.019l.075.15.113-.17s.057-.037.075 0c0 0 .038.076 0 .095l-.15.226.113.206.226-.32s.056-.037.075 0c0 0 .038.076 0 .095l-.264.376.113.207.076-.094s.056-.038.075 0c0 0 .038.075 0 .094l-.113.15.075.132h.189l.075-.132-.094-.17s0-.056.019-.074h.094l.056.094.113-.188-.226-.395s0-.057.02-.075H9.7l.189.338.113-.188-.132-.244s0-.057.019-.076h.075l.094.17.095-.15s.056-.038.075 0c.019 0 .037.056 0 .074l-.094.15h.207s.056.057.056.076c0 0-.037.075-.056.075h-.283l-.113.17.377.037s.057.038.057.056c0 0-.038.076-.057.076l-.452-.038-.113.188h.113s.056.038.056.075c0 0-.037.075-.056.075h-.188l-.076.113.076.15h.15l.094-.169c0-.037.057-.037.076-.018h.019s.037.056.018.094l-.056.112h.226l.226-.394c0-.038.057-.038.075-.02h.02s.037.057.018.095l-.188.338h.226l.132-.225c0-.038.056-.038.075-.02h.019s.037.057.019.095l-.095.169h.17s.056.038.056.075c0 .038-.037.057-.056.057h-.17l.095.188c0 .037 0 .075-.038.075h-.019s-.056 0-.075-.019l-.113-.244h-.226l.17.338c0 .038 0 .075-.038.075h-.02s-.056 0-.075-.019l-.188-.413h-.226l.056.094c0 .037 0 .075-.037.075h-.019s-.057 0-.075-.019l-.076-.169h-.15l-.095.15.076.132h.188s.057.019.057.056c0 0-.02.076-.057.076h-.113l.113.206h.452s.057.02.057.057c0 0-.02.075-.057.075h-.377l.114.207h.282s.057.019.057.056c0 0-.02.075-.057.075h-.207l.075.15c0 .038 0 .057-.019.076-.037 0-.056 0-.075-.019l-.075-.15-.113.169s-.057.038-.076 0c0 0-.037-.075 0-.094l.151-.226-.113-.206-.226.32s-.057.037-.075 0c0 0-.038-.076 0-.095l.263-.376L9.72 9.1l-.075.094s-.057.038-.075 0c0 0-.038-.075 0-.094l.113-.15-.076-.132h-.188l-.075.132.094.17s0 .056-.02.074h-.093L9.267 9.1l-.113.188.226.395s0 .057-.019.075h-.094L9.08 9.42l-.113.188.132.244s0 .057-.02.076h-.074l-.095-.17-.094.15s-.056.038-.075 0c-.019-.037-.038-.056 0-.074l.094-.15h-.207s-.057-.057-.057-.076c0 0 .038-.075.057-.075h.282l.113-.17-.376-.037s-.057-.038-.057-.056c0 0 .038-.076.057-.076l.452.038.113-.188h-.113s-.057-.038-.057-.075c0 0 .038-.075.057-.075h.188l.075-.113-.075-.15h-.15l-.095.169c0 .037-.056.037-.075.018h-.019s-.038-.056-.019-.094l.057-.112h-.226l-.226.394c0 .038-.057.038-.076.02h-.019s-.037-.057-.018-.095l.188-.338h-.226l-.132.225c0 .038-.056.038-.075.02h-.02s-.037-.057-.018-.095l.094-.169h-.17s-.056-.038-.056-.075c0-.038.038-.057.057-.057Zm14.202 6.58s-.49 2.05-2.637 3.704c-.885.677-.942.282-.678 0 0 0 1.186-1.278.942-1.598-.132-.188-.867.564-1.375.997-.415.376-2.449 2.218-6.273 3.797-3.823 1.58-5.745.019-5.745.019a6.742 6.742 0 0 1-1.996-2.18c-1.432-2.501-1.093-3.498 0-4.795 1.055-1.222 3.24-2.82 6.216-4.418l.113-.056c2.976-1.56 5.518-2.482 7.12-2.67 1.676-.207 2.674.075 3.917 2.688.547 1.185.923 2.82.434 4.512h-.038Z"
		></path>
		<path
			d="M12.714 17.052c-.056-.113-.17-.113-.226-.075l-.395.206s-.151.132-.189.245c-.037.244-.075.413-.452.601-.358.189-.847.076-1.036-.32l1.94-1.033a.293.293 0 0 0 .132-.376c-.49-.959-1.488-1.279-2.335-.827-.848.45-1.168 1.485-.697 2.387.47.903 1.469 1.316 2.373.846.584-.32.98-.864.923-1.56 0-.038 0-.075-.038-.113v.019Zm-2.26-.921c.377-.207.829-.076.998.244l-1.375.733c-.17-.32-.037-.752.377-.977Z"
		></path>
		<path
			d="m8.156 16.074 5.707-3.045a.26.26 0 0 0 .113-.32l-.113-.207c-.056-.113-.207-.188-.339-.113l-6.291 3.347a.26.26 0 0 0-.113.32l1.337 2.575-2.712-1.786a.539.539 0 0 0-.527-.037l-.566.3c-.113.057-.17.188-.094.339L6.48 21.15c.075.15.226.188.339.113l.357-.188c.113-.056.17-.207.113-.357l-1.356-2.595 2.807 1.824c.132.075.32.132.508.038l.528-.282c.113-.057.17-.207.113-.32l-1.733-3.309ZM17.348 10.942s.094.131.226.056l2.373-1.26s.189-.169.113-.319l-.15-.282c-.057-.113-.208-.15-.302-.094l-.094.056c-.697.47-1.733 1.147-2.053 1.373-.075.056-.15.094-.188.169-.038.075 0 .132 0 .188l.075.132v-.02ZM16.802 10.942a.259.259 0 0 0-.34-.113l-.376.207a.242.242 0 0 0-.094.338l1.94 3.723c.056.113.226.15.32.094l.377-.207c.094-.057.17-.207.113-.32l-1.94-3.722ZM21.567 12.352c-.056-.113-.17-.113-.226-.075l-.396.206s-.15.132-.188.245c-.038.244-.075.413-.452.601-.358.188-.848.076-1.036-.32l1.94-1.033a.293.293 0 0 0 .132-.376c-.49-.959-1.488-1.279-2.336-.827-.847.45-1.167 1.485-.697 2.387.471.903 1.47 1.316 2.374.846.584-.32.98-.865.923-1.56 0-.038 0-.075-.038-.113v.019Zm-2.26-.921c.377-.207.829-.076.998.244l-1.375.733c-.17-.32-.038-.752.377-.977Z"
		></path>
		<path
			d="M15.05 14.984c-.32-.132-.678 0-1.338.15-.282.075-.546.15-.64-.018-.094-.17-.094-.358.301-.564.227-.132.471-.17.679-.02a.233.233 0 0 0 .244.02l.377-.207s.113-.132.075-.226c-.188-.357-.866-.62-1.714-.17-.753.396-1.054 1.072-.753 1.636.207.414.603.47.829.47.17 0 .527-.056.847-.131.283-.075.678-.263.83.019.074.169 0 .376-.378.564-.339.169-.602.112-.734 0-.094-.076-.189-.057-.264-.038l-.414.226s-.113.15-.076.225c.283.545 1.093.62 1.809.226.602-.32 1.13-.902.923-1.504-.113-.357-.283-.545-.603-.658ZM17.611 14.984c-.056-.113-.188-.15-.282-.094l-.056.037c-.113.057-.471.132-.622-.188l-.735-1.428.49-.264s.15-.169.094-.282l-.113-.225s-.17-.17-.282-.094l-.49.263-.471-.884a.259.259 0 0 0-.339-.112l-.377.206a.241.241 0 0 0-.094.339l.471.884-.132.075c-.113.056-.132.207-.075.3l.113.226c.056.113.188.132.282.075l.132-.075.81 1.542c.245.47.867.714 1.47.395l.3-.17c.114-.056.133-.188.095-.282l-.132-.244h-.056ZM24.28 12.803c0-.113 0-.207.037-.3a.737.737 0 0 1 .15-.264c.076-.075.151-.15.246-.188.094-.038.188-.075.301-.094.094 0 .207 0 .301.038.095.037.189.075.264.15.075.056.15.15.207.244.057.094.076.207.094.32 0 .113 0 .207-.037.3-.038.095-.076.189-.15.264-.076.075-.152.15-.246.188-.094.038-.188.075-.301.094-.094 0-.207 0-.302-.037a.739.739 0 0 1-.263-.15 1.293 1.293 0 0 1-.207-.245c-.057-.094-.076-.207-.095-.301v-.019Zm.376.451s.132.094.226.132c.075.019.17.038.245.038.094 0 .17-.038.245-.076a.589.589 0 0 0 .207-.169.636.636 0 0 0 .113-.226.604.604 0 0 0 .019-.263c0-.094-.038-.169-.075-.263a.588.588 0 0 0-.17-.207.89.89 0 0 0-.226-.131 1.104 1.104 0 0 0-.245-.038.535.535 0 0 0-.245.075.634.634 0 0 0-.32.395c-.019.075-.038.17-.019.244 0 .094.038.17.076.264a.46.46 0 0 0 .17.207v.018Zm.245-.959c.094-.056.17-.075.245-.056.075 0 .113.056.17.132a.228.228 0 0 1 .018.188.292.292 0 0 1-.113.15l.415.244-.132.076-.396-.245-.132.075.189.358-.132.075-.433-.827.32-.17H24.9Zm.132.395s.056-.037.075-.037c.019 0 .038-.038.057-.057 0-.019.018-.037.018-.056 0-.019 0-.057-.018-.094 0-.019-.038-.038-.057-.057h-.132c-.018 0-.037 0-.075.038l-.17.094.132.263.132-.075.038-.019Z"
		></path>
		<path
			stroke="currentColor"
			stroke-miterlimit="10"
			d="M141.608 4.888c-.754 0-1.375-.62-1.375-1.391s.621-1.41 1.375-1.41c.753 0 1.375.62 1.375 1.391 0 .77-.622 1.41-1.375 1.41Zm0-2.5c-.603 0-1.074.488-1.074 1.109 0 .62.49 1.109 1.074 1.109.584 0 1.074-.489 1.074-1.11 0-.62-.49-1.108-1.074-1.108Z"
		></path>
		<path
			stroke="currentColor"
			stroke-miterlimit="10"
			d="M141.062 2.782h.621c.17 0 .302.057.396.132a.443.443 0 0 1 .113.32.438.438 0 0 1-.283.432l.32.489h-.339l-.282-.433h-.226v.433h-.302V2.8l-.018-.019Zm.602.658c.151 0 .226-.075.226-.188 0-.131-.094-.206-.226-.206h-.301v.394h.301Z"
		></path>
		<path
			d="m79.035 2.839-6.423 1.165 3.183 20.55-6.837-8.33 3.73-14.682-7.554 1.447L63.891 11 59.22 5.583l-8.212 2.519 9.926 10.528-1.582 6.524L46.6 9.833l-5.255 1.936-1.13 21.583c-2.506-4.38-5.369-9.363-5.953-10.397-1.073-1.955.566-4.305.566-4.305l-1.658-3.346-8.08 4.06.508 19.44-13.242-11.581-7.063 5.922 1.017 4.888c2.034-.902 2.675.902 2.675.902L14.975 63l7.345-6.242-3.842-13.78 9.87 8.76 3.56-2.632.188-14.288 5.802 9.852 1.79-1.204-.265 5.095 6.781-3.967.471-10.904 6.781-3.29 2.863 3.76.923-.338-.829 3.44 7.44-2.406 2.298-10.998 4.672 5.884 7.44-2.124-.998-1.222 4.916-1.034-3.183-22.523h.037ZM46.412 27.618v-7.54l4.577 5.51-4.578 2.03ZM136.56 3.666l-6.593-.395v9.701l-7.741-11.825L116.989 0l.49 8.441c-.734-1.635-1.827-3.14-3.032-4.343-1.941-1.936-4.54-3.27-7.271-3.44-2.731-.17-5.557.884-7.365 2.97-1.318 1.542-2.034 3.535-2.336 5.547-.15.977-.207 1.992-.169 2.97-.81-.508-1.47-.752-1.47-.752s1.903-2.124.961-5.602C95.837 2.312 93.106 0 89.15 0c-3.956 0-8.476.395-8.476.395l2.863 26.264s.132 0 .188-.019c1.997-.263 9.437-1.09 11.095-1.466 2.505-.583 4.332-2.595 5.142-4.982 1.808 2.5 4.502 4.361 7.496 5 1.922.414 3.975.32 5.745-.526 2.713-1.297 4.144-3.779 4.785-6.543l.452 7.878 6.536 1.354V15.473l6.781 11.205 5.349 1.26-.565-24.234.019-.038ZM86.927 4.7s4.69-.583 4.841 2.52c.189 3.74-4.144 3.74-4.144 3.74l-.697-6.241V4.7Zm6.009 16.15c-.735.376-4.2.94-4.22.846l-.96-7.239s1.375-.15 1.47-.169c.677-.056 1.356-.075 2.034 0 1.657.226 3.22 1.185 3.56 2.952.282 1.523-.565 2.895-1.903 3.59l.019.02Zm18.987-2.708c-1.281 1.542-3.391 2.068-5.218 1.26-2.128-.921-3.729-3.177-4.144-5.452-.508-2.764.528-6.787 3.805-7.163 2.863-.32 5.368 2.106 6.31 4.644.772 2.105.735 4.906-.753 6.693v.018Z"
		></path>
	</g>
	<defs>
		<clipPath id="a">
			<path fill="currentColor" d="M0 0h144v63H0z"></path>
		</clipPath>
	</defs>
</svg>
