<svg xmlns="http://www.w3.org/2000/svg" width="145" height="32" viewBox="0 0 145 32" fill="none">
	<path fill="currentColor" fill-rule="evenodd"
		d="M98.804 0h5.687v31.731h-5.687V0Zm46.057 13.368V8.444h-5.881v-6.42h-5.687V25.43c0 2.15.541 3.79 1.608 4.871 1.066 1.083 2.728 1.632 4.939 1.632h5.021v-4.924h-3.674c-.799 0-1.372-.176-1.704-.523-.305-.317-.503-1.12-.503-2.043V13.368h5.881Zm-84.69 12.187 5.881-17.111h5.975l-8.489 23.288h-6.733L48.316 8.444h5.975l5.88 17.111Zm63.852-5.445c0 1.474-.224 2.757-.664 3.812-.437 1.05-1.063 1.854-1.861 2.39-.798.537-1.779.81-2.916.81-1.626 0-2.853-.535-3.646-1.588-.802-1.065-1.209-2.678-1.209-4.796V8.444h-5.687v12.923c0 2.012.251 3.719.748 5.072.497 1.358 1.18 2.462 2.029 3.281a7.422 7.422 0 0 0 2.946 1.758c1.1.347 2.284.522 3.518.522 1.778 0 3.25-.323 4.373-.959 1.024-.582 1.883-1.262 2.555-2.025l.509 2.715h4.992V8.444h-5.687V20.11ZM90.11 9.672c-1.792-.993-3.92-1.497-6.325-1.497-2.375 0-4.495.504-6.302 1.497a10.644 10.644 0 0 0-4.226 4.18c-.993 1.777-1.496 3.882-1.496 6.258 0 2.346.503 4.437 1.496 6.213a10.639 10.639 0 0 0 4.226 4.18C79.29 31.496 81.41 32 83.785 32c2.404 0 4.533-.504 6.325-1.497a10.676 10.676 0 0 0 4.203-4.18c.993-1.777 1.497-3.867 1.497-6.213 0-2.375-.504-4.48-1.497-6.258a10.68 10.68 0 0 0-4.203-4.18Zm-3.005 16.64c-.916.596-2.033.899-3.32.899-1.257 0-2.367-.303-3.298-.9-.933-.597-1.665-1.44-2.176-2.507-.513-1.067-.773-2.31-.773-3.694 0-1.413.26-2.663.773-3.715.51-1.052 1.243-1.896 2.177-2.509.931-.612 2.04-.922 3.297-.922 1.286 0 2.403.31 3.32.922.918.613 1.644 1.457 2.155 2.509.513 1.055.773 2.305.773 3.715 0 1.381-.26 2.624-.773 3.694-.511 1.067-1.236 1.91-2.155 2.508ZM5.911 7.831H0v23.9h5.91v-23.9Zm18.535 1.366c0-5.072-4.13-9.198-9.207-9.198H0v5.104h14.515c2.297 0 4.2 1.805 4.242 4.024a4.073 4.073 0 0 1-1.173 2.951 4.072 4.072 0 0 1-2.928 1.23H9c-.2 0-.364.163-.364.364v4.536c0 .078.024.151.069.213l9.593 13.31h7.023l-9.616-13.346c4.843-.243 8.74-4.312 8.74-9.188Zm18.174.339c-1.702-.904-3.724-1.362-6.008-1.362-2.288 0-4.333.504-6.08 1.498a10.49 10.49 0 0 0-4.089 4.18c-.963 1.776-1.452 3.896-1.452 6.302 0 2.346.496 4.436 1.475 6.213.98 1.78 2.395 3.18 4.204 4.158 1.805.978 3.97 1.474 6.435 1.474 1.956 0 3.712-.366 5.22-1.09 1.508-.724 2.739-1.711 3.66-2.933a9.602 9.602 0 0 0 1.752-3.905l.03-.152h-5.655l-.027.091c-.311 1.066-.916 1.909-1.796 2.504-.946.64-2.107.966-3.452.966-1.14 0-2.17-.245-3.06-.727a5.049 5.049 0 0 1-2.06-2.036c-.482-.876-.756-1.93-.814-3.126v-.187h17.084l.019-.104c.06-.328.098-.666.114-1.005.015-.331.023-.662.023-.996-.03-2.256-.535-4.24-1.499-5.899a10.035 10.035 0 0 0-4.024-3.864Zm-2.072 4.385c.972.818 1.576 1.98 1.798 3.457H31.099c.129-.958.447-1.788.946-2.469a5.399 5.399 0 0 1 1.997-1.667 5.878 5.878 0 0 1 2.614-.593c1.578 0 2.888.428 3.892 1.272Z"
		clip-rule="evenodd"></path>
</svg>