<svg width="48" height="48" fill="none" viewBox="0 0 48 48" role="img" aria-label="Logotipo de Instagram"> <path fill="currentColor" d="M24.016 9.242c4.8 0 5.392.03 7.262.093 1.745.094 2.712.374 3.335.623.842.312 1.434.717 2.057 1.34.623.624 1.029 1.216 1.34 2.058.25.623.53 1.59.624 3.335.093 1.901.093 2.462.093 7.262 0 4.8-.03 5.393-.093 7.263-.094 1.745-.374 2.711-.624 3.335-.311.841-.716 1.433-1.34 2.057-.623.623-1.215 1.028-2.057 1.34-.623.25-1.59.53-3.335.623-1.901.094-2.462.094-7.262.094-4.8 0-5.393-.031-7.263-.094-1.745-.093-2.711-.374-3.335-.623-.841-.312-1.434-.717-2.057-1.34-.623-.624-1.029-1.216-1.34-2.057-.25-.624-.53-1.59-.624-3.335-.093-1.902-.093-2.463-.093-7.263s.031-5.392.093-7.262c.094-1.745.374-2.712.624-3.335.311-.842.717-1.434 1.34-2.057.623-.624 1.216-1.029 2.057-1.34.624-.25 1.59-.53 3.335-.624 1.87-.062 2.463-.093 7.263-.093Zm0-3.242c-4.894 0-5.517.031-7.419.094-1.9.093-3.21.405-4.363.841a8.936 8.936 0 0 0-3.18 2.088 8.629 8.629 0 0 0-2.119 3.18c-.436 1.153-.748 2.462-.841 4.363C6.03 18.5 6 19.122 6 24.016c0 4.893.031 5.517.094 7.418.093 1.901.405 3.21.841 4.363a8.936 8.936 0 0 0 2.088 3.18 8.936 8.936 0 0 0 3.18 2.088c1.153.436 2.462.748 4.363.842C18.5 42 19.091 42 23.984 42c4.894 0 5.517-.031 7.419-.093 1.9-.094 3.21-.406 4.363-.842a8.936 8.936 0 0 0 3.18-2.088 8.938 8.938 0 0 0 2.088-3.18c.436-1.153.748-2.462.841-4.363.094-1.933.094-2.525.094-7.418 0-4.894-.031-5.517-.094-7.419-.093-1.9-.405-3.21-.841-4.363a8.937 8.937 0 0 0-2.088-3.18 8.936 8.936 0 0 0-3.18-2.088c-1.153-.436-2.462-.748-4.363-.841C29.5 6.03 28.909 6 24.016 6Z"></path><path fill="currentColor" d="M24.015 14.758a9.258 9.258 0 0 0 0 18.515 9.258 9.258 0 0 0 0-18.515Zm0 15.242A6.02 6.02 0 0 1 18 23.984a6.02 6.02 0 0 1 6.015-6.015c3.335 0 5.985 2.711 5.985 6.046A5.986 5.986 0 0 1 24.015 30ZM33.615 16.535a2.15 2.15 0 1 0 0-4.301 2.15 2.15 0 0 0 0 4.3Z"></path> </svg>