<svg
	xmlns="http://www.w3.org/2000/svg"
	width="148"
	height="53"
	viewBox="0 0 148 53"
	fill="none"
>
	<path
		fill="currentColor"
		d="M76.097 40.322c4.341 0 7.622-2.59 7.622-6.044v-2.047a24.37 24.37 0 0 0-6.66-.913c-4.144 0-6.636 1.727-6.636 4.588 0 3.034 2.936 4.416 5.674 4.416ZM69.93 18.91h7.35c6.685 0 10.36 3.429 10.36 9.67v14.577h-3.97v-3.034c-1.555 1.727-4.17 3.528-8.289 3.528-4.39 0-9.126-2.393-9.126-7.598 0-4.933 3.897-7.868 10.409-7.868 3.083 0 5.205.419 6.98.912v-.444c0-3.872-2.343-6.043-6.61-6.092h-7.153V18.91h.049Zm-1.677 4.218h-.568c-5.525 0-9.102 4.095-9.102 10.434v9.595h-4.07V19.207h4.095v5.18c2.047-3.65 5.476-5.747 9.373-5.575h.272v4.317Zm-34.287 6.487h14.603c-.42-3.626-2.492-7.4-7.228-7.4-3.848 0-6.832 3.034-7.375 7.4Zm7.45-10.902c6.783 0 11.321 5.106 11.321 12.678 0 .37 0 .74-.049 1.11l-.025.247H33.966c.543 4.415 3.725 7.35 7.992 7.35 2.837 0 5.13-1.01 7.252-3.206l.197-.197 2.615 2.318-.197.222c-2.812 3.108-5.896 4.49-9.966 4.49-6.906 0-12.086-5.378-12.086-12.482 0-7.153 5.007-12.53 11.642-12.53ZM26.59 35.339l.197-.173 2.787 2.689-.197.197c-2.787 2.788-6.512 5.649-13.024 5.649C7.03 43.701 0 36.548 0 27.101c0-9.522 7.104-16.7 16.502-16.7 6.34 0 9.867 2.442 12.703 5.106l.198.197-2.862 3.034-.197-.197c-3.182-2.985-6.142-4.267-9.867-4.267-6.906 0-12.111 5.476-12.111 12.752 0 7.302 5.205 12.827 12.111 12.827 4.465-.025 7.277-1.825 10.114-4.514Zm62.9 16.23c-.568 0-.987-.123-1.357-.493l.395-.37c.271.272.592.37.986.37.494 0 .79-.222.79-.567l-.148-.395-.42-.148-.444-.074-.715-.296-.271-.715c0-.666.468-1.11 1.282-1.11.518 0 .864.123 1.184.42l-.37.37c-.246-.223-.518-.297-.838-.297-.444 0-.69.247-.69.592l.147.346.42.172.419.074c.345.05.542.124.715.272l.32.764c-.024.666-.591 1.086-1.405 1.086Zm-2.738-3.28v3.256h-.568v-3.256h-1.06v-.518h2.688v.518h-1.06Zm-3.429 3.28c-.567 0-.987-.123-1.357-.493l.395-.37c.271.272.592.37.962.37.493 0 .79-.222.79-.567l-.149-.395-.419-.148-.444-.074-.715-.296-.272-.715c0-.666.47-1.11 1.283-1.11.518 0 .863.123 1.184.42l-.37.37c-.247-.223-.518-.297-.839-.297-.444 0-.69.247-.69.592l.148.346.42.172.443.074c.345.05.543.124.715.272l.321.764c-.05.666-.617 1.086-1.406 1.086Zm-2.59-3.798h.592v3.774h-.592v-3.774Zm-1.209 3.355a1.467 1.467 0 0 1-2.047.024c-.37-.37-.37-.789-.37-1.504 0-.716 0-1.135.37-1.505.271-.271.617-.42 1.011-.395.814 0 1.283.518 1.382 1.16h-.592c-.099-.42-.37-.666-.814-.666l-.568.222c-.197.197-.222.419-.222 1.159 0 .765.05.987.222 1.184l.568.222.616-.271.198-.592v-.222h-.814v-.494h1.381v.568c0 .542-.074.838-.32 1.11Zm-3.971-2.64-.567-.222-.568.222c-.197.198-.222.42-.222 1.184 0 .765.05.962.222 1.16l.568.222.567-.222c.197-.198.222-.42.222-1.16 0-.789-.025-.986-.222-1.184Zm.444 2.664a1.46 1.46 0 0 1-2.023 0c-.37-.37-.37-.789-.37-1.504 0-.716 0-1.135.37-1.505a1.46 1.46 0 0 1 2.023 0c.37.37.37.79.37 1.505 0 .715 0 1.134-.37 1.504Zm-5.18.37v-3.774h.592v3.256h1.85v.518h-2.442Zm-1.677-3.034a.836.836 0 0 0-1.135 0c-.173.198-.222.42-.222 1.184 0 .765.05.962.222 1.16l.567.222.568-.222c.197-.198.222-.42.222-1.16 0-.789-.025-.986-.222-1.184Zm.444 2.664c-.568.543-1.456.543-1.998 0-.37-.37-.37-.789-.37-1.504 0-.716 0-1.135.37-1.505.567-.543 1.455-.543 1.998 0 .37.37.37.79.37 1.505 0 .715 0 1.134-.37 1.504Zm-3.848-2.861v3.256h-.592v-3.256h-1.036v-.518h2.688v.518h-1.06Zm-3.133.32-.592 1.678h1.184l-.592-1.677Zm.987 2.911-.272-.764h-1.504l-.272.764h-.616l1.406-3.774h.468l1.406 3.774h-.616Zm-3.774 0v-2.516l-.888 1.826h-.42l-.912-1.826v2.516h-.592v-3.774h.592l1.11 2.344 1.085-2.344h.567v3.774h-.542Zm-4.86-3.231h-.863v1.184h.863c.395 0 .642-.222.642-.592s-.272-.592-.642-.592Zm.666 3.231-.814-1.578h-.715v1.578h-.592v-3.774h1.48c.715 0 1.184.469 1.184 1.11.025.469-.296.888-.765 1.012l.864 1.652h-.642Zm-5.352 0v-3.774h2.442v.518h-1.85v1.11h1.578v.518h-1.578v1.135h1.85v.518l-2.442-.025Zm-1.628-2.984-.666-.247h-.716v2.738h.716l.666-.247c.197-.222.197-.616.197-1.134 0-.543 0-.888-.197-1.11Zm.394 2.639c-.246.247-.592.345-.986.345h-1.357v-3.774h1.357c.394 0 .764.124.986.346.42.394.395.962.395 1.504 0 .568.025 1.16-.395 1.579Zm-5.229.345v-1.652h-1.53v1.652h-.591v-3.774h.592v1.604h1.554v-1.604h.592v3.774h-.617ZM39.96 48.29v3.256h-.567v-3.256h-1.061v-.518h2.689v.518H39.96Zm-2.861-.518h.592v3.774h-.592v-3.774Zm-1.579 3.75h-.518l-.765-2.64-.764 2.64h-.494l-.986-3.775h.616l.642 2.714.764-2.689h.469l.765 2.689.666-2.689h.616l-1.011 3.75Zm-6.019-2.985-.666-.247h-.715v2.738h.715l.666-.247c.198-.222.198-.616.198-1.134 0-.543 0-.888-.198-1.11Zm.395 2.639c-.247.247-.592.345-.987.345h-1.356v-3.774h1.356c.395 0 .765.124.987.346.42.394.395.962.395 1.504 0 .568.024 1.16-.395 1.579Zm-5.6.345v-3.774h2.443v.518h-1.85v1.11h1.578v.518H24.89v1.135h1.85v.518l-2.442-.025Zm-1.923-3.231h-.864v1.258h.864c.419 0 .69-.222.69-.617 0-.419-.271-.641-.69-.641Zm.049 1.751h-.888v1.48h-.592v-3.774h1.48c.765 0 1.258.494 1.258 1.135-.025.69-.493 1.16-1.258 1.16Zm-3.157-1.554a.836.836 0 0 0-1.135 0c-.197.198-.222.42-.222 1.184 0 .765.05.962.222 1.16l.567.222.568-.222c.172-.198.222-.42.222-1.16 0-.789-.05-.986-.222-1.184Zm.419 2.664c-.271.272-.617.42-1.011.395-.37 0-.74-.148-1.012-.395-.37-.37-.37-.789-.37-1.504 0-.716 0-1.135.37-1.505.272-.271.617-.42 1.012-.395.37 0 .74.148 1.011.395.37.37.37.79.37 1.505 0 .715.025 1.134-.37 1.504Zm-5.18.37v-3.774h.592v3.256h1.85v.518h-2.442Zm-3.231 0v-3.774h2.442v.518h-1.85v1.11h1.578v.518h-1.578v1.135h1.85v.518l-2.442-.025Zm-1.801 0h-.444L7.77 47.746h.592l.888 2.738.888-2.738h.617L9.472 51.52Zm-4.49 0v-3.774h2.443v.518h-1.85v1.11h1.578v.518H5.575v1.135h1.85v.518l-2.442-.025Zm-1.627-2.984-.666-.247h-.716v2.738h.716l.666-.247c.197-.222.197-.616.197-1.134.025-.543 0-.888-.197-1.11Zm.419 2.639c-.247.247-.592.345-.987.345H1.431v-3.774h1.356c.395 0 .765.124.987.346.42.394.395.962.395 1.504-.025.568.024 1.16-.395 1.579ZM115.095 10.942l-11.248 26.813-11.2-26.813h-4.661l14.011 32.437h3.576l14.036-32.437h-4.514Zm17.39 18.673h-14.603c.567-4.366 3.552-7.4 7.375-7.4 4.712 0 6.808 3.774 7.228 7.4Zm-7.154-10.903c-6.635 0-11.642 5.378-11.642 12.482 0 7.128 5.204 12.48 12.086 12.48 4.095 0 7.154-1.38 9.966-4.489l.197-.221-2.615-2.32-.197.198c-2.121 2.196-4.415 3.207-7.252 3.207-4.267 0-7.449-2.935-8.017-7.35h18.698l.024-.247c.025-.37.05-.74.05-1.11.024-7.524-4.514-12.63-11.298-12.63ZM148 .188v52.046h-45.757L79.772.187H148Z"
	></path>
</svg>
