<svg
	xmlns="http://www.w3.org/2000/svg"
	width="653"
	height="152"
	viewBox="0 0 653 152"
	fill="none"
>
	<path
		class="a"
		d="m41.7 22.5l-12.5 12.8v76.8l13.4 12.8h55.7l13.1-12.8v-50.8h-38.9v25.4h13.8v13.3h-32.5v-52.1h32.2v8.3h24.8v-20.9l-13-12.8z"
	></path>
	<path class="a" d="m121.2 61.7h37.5v24.8h-37.5z"></path>
	<path
		class="a"
		d="m181.2 22.5l-12.8 13v37.8l13.6 13.5h43.6v13.4h-32.2v-7.9h-25.1v20.1l13.2 12.5h57l13.3-12.2v-37.3l-12.9-13.4h-45.2v-13.9h32.4v8.1h25.6v-20.9l-13.5-12.8z"
	></path>
	<path class="a" d="m322.2 22.5v39.2h-32v-39.2h-25.3v102.7h25.3v-38.2h32v38.2h25.3v-102.7z"></path>
	<path
		fill-rule="evenodd"
		class="a"
		d="m429.2 22.5l13.3 13.2v76.4l-13.2 12.8h-56.3l-12.5-12.4v-76.7l13.4-13.3zm-43.4 77.5h31.4v-52.4h-31.4z"
	></path>
	<path
		class="a"
		d="m469.1 22.5l-13.4 12.8v76.8l12.5 12.8h57l13-12.8v-25.7h-24.6v13.8h-32.1v-52h32v13.1h24.8v-26l-12.8-12.8z"
	></path>
	<path
		class="a"
		d="m604.6 22.5l-27.4 37.8v-37.8h-25.8v102.4h25.8v-36.8l27 36.8h30.6l-35.8-51.1 36.5-51.3z"
	></path>
</svg>
