<svg xmlns="http://www.w3.org/2000/svg" width="2726" height="1128" viewBox="0 0 2726 1128" fill="none">
	<defs>
		<clipPath id="cp1" clipPathUnits="userSpaceOnUse">
			<path d="M-48 1979V-901h2880v2880z"></path>
		</clipPath>
	</defs>
	<style>
		.b {
			fill: #ddd;
		}

		.c {
			fill: #fff;
		}

		.d {
			fill: #d1d3d4;
		}

		.e,
		.f {
			fill: none;
			stroke-miterlimit: 10;
		}

		.e {
			stroke: #d1d3d4;
			stroke-linecap: round;
			stroke-width: 4;
		}

		.f {
			stroke: #fff;
			stroke-width: 1.3;
		}
	</style>
	<g clip-path="url(#cp1)">
		<path d="M309.3 560.8c0 158.1-8.5 286-19 286s-18.9-127.9-18.9-286 8.4-285.9 18.9-285.9c10.5 0 19 127.8 19 285.9z"
			style="fill:#f0efef"></path>
		<path
			d="M433 797.4h-76.7s0 28.6-6.1 35.5h-23.9s-6.4-9.5-7.6-41.9h-51.3V321.7H318s2.4-39.7 8.6-39.7h23.6s6.1 5 6.1 32.8H433z"
			class="b"></path>
		<path
			d="M350.2 832.9c-5.6-22-7.3-45.8-9.7-68.4-3.8-45.9-5.5-91.9-6.4-138-1.1-68.8-.8-138.5 2-207.2 1.6-34.3 3.7-69.2 8-103.3 1.5-11.4 3-22.9 6.1-34-1.4 5.6-2.1 11.3-2.9 17-1.4 11.2-2.4 23.1-3.2 34.3-6 97.1-5.5 195.9-4.9 293.1.7 57 1.6 115.6 6.4 172.3 1.1 11.3 2.2 23.2 4.6 34.2zM318.7 791c-9-68-11-136.7-11.9-205.2-.4-87.9.7-176.8 11.2-264.1-1.5 19.5-2.5 39.1-3.1 58.6-2.6 67.8-3.1 137.5-2.9 205.4.6 68.3 1.3 137.2 6.7 205.3zM290.3 846.8h-52.1L210.5 825h-141s-18.4 3.1-24.3-12.6c-6-15.8-22.8-61.1-22.8-251.6s15.7-265.2 35.2-265.2H209.9l25.5-20.7h54.9s-18.9 25.7-18.9 285.9 18.9 286 18.9 286z"
			class="c"></path>
		<path
			d="M244.1 846.8c-2.7-3.7-3.6-8.3-4.9-12.6-1.2-4.3-2.1-8.8-2.9-13.2-1.7-8.3-3-18.1-4.1-26.7-9-77.5-9.6-155.7-10.1-233.6.1-53.8.8-108.2 3.6-161.9 1.7-29.7 3.9-60.2 8.5-89.6l1.5-8.9 1.8-8.8 1.2-4.4.6-2.2c.9-2.8 1.8-5.7 3.3-8.3.4-.7.8-1.3 1.5-1.7-.4.1-.5.5-.8.8-2.1 3.4-3.1 7.6-4 11.5-2.3 9.8-3.8 21.2-4.8 31.1-3.2 32.4-4.5 66-5.5 98.6-1.4 47-1.6 96.6-1.6 143.8.2 71.5.5 144.2 5.4 215.5 1 14.8 2.3 30 4.6 44.7.6 4.5 1.4 8.7 2.3 13.2 1.2 4.3 1.9 8.9 4.4 12.7zM210.5 825c-4.8-10-6.4-21.3-8.5-32.1q-2.7-16.5-4.6-33c-7.1-66.3-8.2-133.1-8.5-199.6.1-44.1.6-89.2 2.9-133.2 1.7-34.6 4.2-69.4 10-103.6 1.3-6.7 2.7-13.8 4.8-20.3.9-2.6 1.7-5.3 3.3-7.6-1.5 2.4-2.2 5.1-2.9 7.7-2.1 8-3.4 16.4-4.5 24.5-4.1 32.8-5.5 66.5-6.6 99.5-1.4 43.2-1.7 89.6-1.7 133 .1 55 .7 111.3 3.5 166.1 1.3 21.8 2.8 44.7 5.7 66.3 1.8 10.8 2.8 22.1 7.1 32.3z"
			class="d"></path>
		<path fill-rule="evenodd"
			d="M56 806.1h143M61.9 815.6H201M50.8 792.1h145.4M47 777.2h146.8M42.8 757.4h148.7M40.9 737.7h147.3M40.9 717.9h145.9M38.3 698.2h146.6M38.3 678.4h146.6M38.3 658.7h144.9M36.3 638.9h145.3M36.3 619.2h145.3M33.5 599.4h148.1M35.1 579.7h146.5M35.1 559.9h146.5M35.1 540.2h146.5M35.1 520.4h146.5M35.1 500.6h146.5M35.1 480.9h148.1M35.1 461.1h148.1M36.3 441.4h148M36.8 421.6H186M38 401.7h149.5M40 382.1h148.5M42.7 362.4h147.5M47.1 342.6h145.4M50.2 329h144.9M54.7 314.8h142.7M57.9 305.2h141.9"
			class="e"></path>
		<path d="M2482.7 335.7v16.1h11v-16.1q0-3.1-1.4-4.4-1.4-1.4-3.5-1.4h-1.3q-2.2.1-3.5 1.4-1.3 1.3-1.3 4.4z" class="c">
		</path>
		<path fill-rule="evenodd"
			d="M2482.7 335.7v16.1h11v-16.1q0-3.1-1.4-4.4-1.4-1.4-3.5-1.4h-1.3q-2.2.1-3.5 1.4-1.3 1.3-1.3 4.4z" class="f">
		</path>
		<path
			d="M2484.7 540.4q-2.5 3.8-2.5 11.4 0 7.6 2.5 11.5 2.5 3.8 8.7 3.8h4.6q6.7 0 9-3.8 2.4-3.9 2.4-11.5t-2.4-11.4q-2.3-3.9-9-3.9h-4.6q-6.2 0-8.7 3.9z"
			class="c"></path>
		<path fill-rule="evenodd"
			d="M2484.7 540.4q-2.5 3.8-2.5 11.4 0 7.6 2.5 11.5 2.5 3.8 8.7 3.8h4.6q6.7 0 9-3.8 2.4-3.9 2.4-11.5t-2.4-11.4q-2.3-3.9-9-3.9h-4.6q-6.2 0-8.7 3.9z"
			class="f"></path>
		<path d="M2499.4 698.8v-15l-17.7 7.5z" class="c"></path>
		<path fill-rule="evenodd" d="M2499.4 698.8v-15l-17.7 7.5z" class="f"></path>
		<path d="M2482.7 744.9V761h11v-16.1q0-3.1-1.4-4.4-1.4-1.4-3.5-1.4h-1.3q-2.2 0-3.5 1.3-1.3 1.3-1.3 4.5z" class="c">
		</path>
		<path fill-rule="evenodd"
			d="M2482.7 744.9V761h11v-16.1q0-3.1-1.4-4.4-1.4-1.4-3.5-1.4h-1.3q-2.2 0-3.5 1.3-1.3 1.3-1.3 4.5z" class="f">
		</path>
		<path d="M2485.8 801.6q-2.2 2.9-2.2 8.6v13.6h24.4v-13.6q0-5.7-2.2-8.6-2.2-3-8.1-3h-4.1q-5.5 0-7.8 3z" class="c">
		</path>
		<path fill-rule="evenodd"
			d="M2485.8 801.6q-2.2 2.9-2.2 8.6v13.6h24.4v-13.6q0-5.7-2.2-8.6-2.2-3-8.1-3h-4.1q-5.5 0-7.8 3z" class="f"></path>
		<path d="M2485.8 392.4q-2.2 2.9-2.2 8.7v13.5h24.4v-13.5q0-5.8-2.2-8.7-2.2-3-8.1-3h-4.1q-5.5 0-7.8 3z" class="c">
		</path>
		<path fill-rule="evenodd"
			d="M2485.8 392.4q-2.2 2.9-2.2 8.7v13.5h24.4v-13.5q0-5.8-2.2-8.7-2.2-3-8.1-3h-4.1q-5.5 0-7.8 3z" class="f"></path>
		<path fill-rule="evenodd"
			d="M1089 96.5c19.5.6 30.7-1.7 46.6-8.8 15.9-7.1 34.2-4.7 34.2-4.7l234.3.5s24.7-2.3 39.5 5.4c16.5 10 47.8 8.2 64.9 0 17.1-8.3 26.5-7.1 26.5-7.1h284.4c11.8 0 27.7 10.6 44.2 10.6 16.6 0 26-3.5 33.1-6.5 7.1-2.9 15.9-3.5 15.9-3.5s271.4 1.1 287.9 1.1 18.9 13 38.4 13c19.4 0 30-10.6 45.4-15.3 15.3-4.7 32.4-2.6 32.4-2.6s238.4-1.5 260.4 0c22 1.6 51.9 0 82.6 119.6 30.7 119.6 29.9 357.9 29.9 357.9s.8 238.4-29.9 357.9c-30.7 119.6-60.6 118-82.6 119.6-22 1.6-260.4 0-260.4 0s-17.1 2.2-32.4-2.6c-15.4-4.7-26-15.3-45.4-15.3-19.5 0-21.9 13-38.4 13s-287.9 1.2-287.9 1.2-8.8-.6-15.9-3.6c-7.1-2.9-16.5-6.5-33.1-6.5-16.5 0-32.4 10.6-44.2 10.6H1535s-9.4 1.2-26.5-7c-17.1-8.3-48.4-10.1-64.9 0-14.8 7.6-39.5 5.3-39.5 5.3l-234.3.6s-18.3 2.3-34.2-4.8c-15.9-7-27.1-9.4-46.6-8.8-29.5.6-37.2 17.7-57.2 18.6-20.1.9-122.1 0-122.1 0s-13 1.5-34.3-4.4c-21.2-5.9-221.2-45.5-442.4-232.5-10.5-28.1-14.4-130.4-14.4-241.3s3.9-213.2 14.4-241.3c221.2-187 421.2-226.5 442.4-232.4 21.3-5.9 34.3-4.5 34.3-4.5s102-.8 122.1 0c20 .9 27.7 18 57.2 18.6zm-257.4 127v674.6h120.6V627.9h57.2c84.3 0 117.9-53.5 117.9-136V356.8c0-82.5-21.8-133.3-124.3-133.3zm343.7 0v674.6h120.6V609.8h25.4c24.5 0 31.7 9 31.7 39.9v196.8c0 29.9 5.5 44.4 10.9 51.6h120.6v-4.5c-4.5-8.1-10-20.8-10-49.9V614.3c0-50.8-31.7-72.5-51.7-79.8 22.7-9.1 53.5-36.3 53.5-90.7V335.9c0-71.6-37.1-112.4-110.6-112.4zm350.9 0v674.6h120.6V223.5zm175 0v674.6h105.2V499.2l60.8 398.9h45.3l59.8-398.9v398.9h108.9V223.5h-138.8l-46.2 340.9-46.3-340.9zm434.3 0v674.6H2394V776.6h-137.8V610.7h103.3V489.2h-103.3V342.3h131.4V223.5zm338.4 5.1v11h31.9l-31.9 20.6v16.4h43.9v-11h-32l32-20.6v-16.4zm43.9 75.5v-12h-43.9v12zm0 12.5-16.5 9.7q-1.5-4-4.9-6.3-3.3-2.2-8.4-2.2-6.8 0-10.5 4.2-3.6 4.3-3.6 12v29.8h43.9v-12h-15.2v-13l15.2-9zm-22 60.7q-6.1 0-10.3 1.5-4.2 1.6-6.8 4.5-2.6 2.8-3.7 7.1t-1.1 9.9v26.3h43.9v-26.3q0-5.6-1.1-9.9-1.1-4.3-3.7-7.1-2.6-2.9-6.8-4.5-4.2-1.5-10.4-1.5zm-21.9 85.7v11h31.9l-31.9 20.6V511h43.9v-11h-32l32-20.7V463zm21.6 61.5q-6.3 0-10.7 1.8-4.3 1.8-6.9 5.3-2.7 3.4-3.8 8.6-1.1 5.1-1.1 11.6 0 6.7 1.1 11.8 1.1 5.1 3.8 8.6 2.6 3.4 6.9 5.2 4.4 1.9 10.7 1.9 6.6 0 11-1.9 4.5-1.8 7.2-5.2 2.7-3.5 3.8-8.6 1.2-5.1 1.2-11.8 0-6.5-1.2-11.6-1.1-5.2-3.8-8.6-2.7-3.5-7.2-5.3-4.4-1.8-11-1.8zm22.3 80.3v-12h-43.9v12zm-43.9 11.9v46.8h9.7V646h34.2v-11.9h-34.2v-17.4zm43.9 46.8-43.9 18.9v16.5l43.9 19v-11.2l-9.7-4.2v-22.4l9.7-4.1zm0 62.3-16.5 9.7q-1.5-4.1-4.8-6.3-3.4-2.2-8.4-2.2-6.9 0-10.5 4.2-3.7 4.2-3.7 11.9V773h43.9v-12h-15.2v-13l15.2-9zm-21.9 60.7q-6.2 0-10.4 1.5t-6.8 4.4q-2.5 2.9-3.7 7.2-1.1 4.3-1.1 9.8v26.4h43.9v-26.4q0-5.5-1.1-9.8-1.1-4.3-3.7-7.2-2.6-2.9-6.8-4.4-4.2-1.5-10.3-1.5zm-22 60v12l17.8 13-17.8 14.1v13.6l26.4-21.3h17.5V866h-17.5zm0 63.1v11.9h16.5v23.3h-16.5v12h43.9v-12h-17.7v-23.3h17.7v-11.9zm43.9-744.7-23 21.3-20.9-20v14.1l16.7 16v5h-16.7v12h43.9v-12h-17.5v-4.8l17.5-16.4z"
			class="c"></path>
		<path fill-rule="evenodd"
			d="M1089 96.5c19.5.6 30.7-1.7 46.6-8.8 15.9-7.1 34.2-4.7 34.2-4.7l234.3.5s24.7-2.3 39.5 5.4c16.5 10 47.8 8.2 64.9 0 17.1-8.3 26.5-7.1 26.5-7.1h284.4c11.8 0 27.7 10.6 44.2 10.6 16.6 0 26-3.5 33.1-6.5 7.1-2.9 15.9-3.5 15.9-3.5s271.4 1.1 287.9 1.1 18.9 13 38.4 13c19.4 0 30-10.6 45.4-15.3 15.3-4.7 32.4-2.6 32.4-2.6s238.4-1.5 260.4 0c22 1.6 51.9 0 82.6 119.6 30.7 119.6 29.9 357.9 29.9 357.9s.8 238.4-29.9 357.9c-30.7 119.6-60.6 118-82.6 119.6-22 1.6-260.4 0-260.4 0s-17.1 2.2-32.4-2.6c-15.4-4.7-26-15.3-45.4-15.3-19.5 0-21.9 13-38.4 13s-287.9 1.2-287.9 1.2-8.8-.6-15.9-3.6c-7.1-2.9-16.5-6.5-33.1-6.5-16.5 0-32.4 10.6-44.2 10.6H1535s-9.4 1.2-26.5-7c-17.1-8.3-48.4-10.1-64.9 0-14.8 7.6-39.5 5.3-39.5 5.3l-234.3.6s-18.3 2.3-34.2-4.8c-15.9-7-27.1-9.4-46.6-8.8-29.5.6-37.2 17.7-57.2 18.6-20.1.9-122.1 0-122.1 0s-13 1.5-34.3-4.4c-21.2-5.9-221.2-45.5-442.4-232.5-10.5-28.1-14.4-130.4-14.4-241.3s3.9-213.2 14.4-241.3c221.2-187 421.2-226.5 442.4-232.4 21.3-5.9 34.3-4.5 34.3-4.5s102-.8 122.1 0c20 .9 27.7 18 57.2 18.6zm-257.4 127v674.6h120.6V627.9h57.2c84.3 0 117.9-53.5 117.9-136V356.8c0-82.5-21.8-133.3-124.3-133.3zm343.7 0v674.6h120.6V609.8h25.4c24.5 0 31.7 9 31.7 39.9v196.8c0 29.9 5.5 44.4 10.9 51.6h120.6v-4.5c-4.5-8.1-10-20.8-10-49.9V614.3c0-50.8-31.7-72.5-51.7-79.8 22.7-9.1 53.5-36.3 53.5-90.7V335.9c0-71.6-37.1-112.4-110.6-112.4zm350.9 0v674.6h120.6V223.5zm175 0v674.6h105.2V499.2l60.8 398.9h45.3l59.8-398.9v398.9h108.9V223.5h-138.8l-46.2 340.9-46.3-340.9zm434.3 0v674.6H2394V776.6h-137.8V610.7h103.3V489.2h-103.3V342.3h131.4V223.5zm338.4 5.1v11h31.9l-31.9 20.6v16.4h43.9v-11h-32l32-20.6v-16.4zm43.9 75.5v-12h-43.9v12zm0 12.5-16.5 9.7q-1.5-4-4.9-6.3-3.3-2.2-8.4-2.2-6.8 0-10.5 4.2-3.6 4.3-3.6 12v29.8h43.9v-12h-15.2v-13l15.2-9zm-22 60.7q-6.1 0-10.3 1.5-4.2 1.6-6.8 4.5-2.6 2.8-3.7 7.1t-1.1 9.9v26.3h43.9v-26.3q0-5.6-1.1-9.9-1.1-4.3-3.7-7.1-2.6-2.9-6.8-4.5-4.2-1.5-10.4-1.5zm-21.9 85.7v11h31.9l-31.9 20.6V511h43.9v-11h-32l32-20.7V463zm21.6 61.5q-6.3 0-10.7 1.8-4.3 1.8-6.9 5.3-2.7 3.4-3.8 8.6-1.1 5.1-1.1 11.6 0 6.7 1.1 11.8 1.1 5.1 3.8 8.6 2.6 3.4 6.9 5.2 4.4 1.9 10.7 1.9 6.6 0 11-1.9 4.5-1.8 7.2-5.2 2.7-3.5 3.8-8.6 1.2-5.1 1.2-11.8 0-6.5-1.2-11.6-1.1-5.2-3.8-8.6-2.7-3.5-7.2-5.3-4.4-1.8-11-1.8zm22.3 80.3v-12h-43.9v12zm-43.9 11.9v46.8h9.7V646h34.2v-11.9h-34.2v-17.4zm43.9 46.8-43.9 18.9v16.5l43.9 19v-11.2l-9.7-4.2v-22.4l9.7-4.1zm0 62.3-16.5 9.7q-1.5-4.1-4.8-6.3-3.4-2.2-8.4-2.2-6.9 0-10.5 4.2-3.7 4.2-3.7 11.9V773h43.9v-12h-15.2v-13l15.2-9zm-21.9 60.7q-6.2 0-10.4 1.5t-6.8 4.4q-2.5 2.9-3.7 7.2-1.1 4.3-1.1 9.8v26.4h43.9v-26.4q0-5.5-1.1-9.8-1.1-4.3-3.7-7.2-2.6-2.9-6.8-4.4-4.2-1.5-10.3-1.5zm-22 60v12l17.8 13-17.8 14.1v13.6l26.4-21.3h17.5V866h-17.5zm0 63.1v11.9h16.5v23.3h-16.5v12h43.9v-12h-17.7v-23.3h17.7v-11.9zm43.9-744.7-23 21.3-20.9-20v14.1l16.7 16v5h-16.7v12h43.9v-12h-17.5v-4.8l17.5-16.4z"
			class="f"></path>
		<path d="M1353 457.4v-91.5c0-29.1-5.4-38.1-29.9-38.1h-27.2v170.4h23.6c23.6 0 33.5-9 33.5-40.8z" class="c"></path>
		<path fill-rule="evenodd" d="M1353 457.4v-91.5c0-29.1-5.4-38.1-29.9-38.1h-27.2v170.4h23.6c23.6 0 33.5-9 33.5-40.8z"
			class="f"></path>
		<path d="M1005.7 480.1V367.7c0-23.6-3.6-39.9-30.8-39.9h-22.7v190.4h22.7c27.2 0 30.8-17.2 30.8-38.1z" class="c">
		</path>
		<path fill-rule="evenodd"
			d="M1005.7 480.1V367.7c0-23.6-3.6-39.9-30.8-39.9h-22.7v190.4h22.7c27.2 0 30.8-17.2 30.8-38.1z" class="f"></path>
		<path
			d="M1175.3 898.1v-95.3c-9.2-3.6-19.2-5.6-29.7-5.6l-86.4.5c-39.2.2-75.1-2.4-107-6.6v107H831.6V763.6l-45.7-14.3c-7.9-3.2-28-8.7-28-8.7-42.3-13.1-87.3 10.4-100.4 52.5l-.2.4c-12.8 42 10.9 86.7 52.9 99.8 0 0 99.3 34.6 162.7 47 138.8 30.5 243.7 21.8 273.7 18.1 1.6-.3 3.3-.4 4.9-.5 34.6-2.4 63.2-27.3 71.9-59.8z"
			class="b"></path>
	</g>
</svg>