<svg xmlns="http://www.w3.org/2000/svg" width="32" height="32" viewBox="0 0 32 32"><path fill="#fff" d="M1 11h30v10H1z"/><path fill="#81acdc" d="M5 4h22c2.208 0 4 1.792 4 4v4H1V8c0-2.208 1.792-4 4-4m22 24H5c-2.208 0-4-1.792-4-4v-4h30v4c0 2.208-1.792 4-4 4"/><path d="M27 4H5a4 4 0 0 0-4 4v16a4 4 0 0 0 4 4h22a4 4 0 0 0 4-4V8a4 4 0 0 0-4-4m3 20c0 1.654-1.346 3-3 3H5c-1.654 0-3-1.346-3-3V8c0-1.654 1.346-3 3-3h22c1.654 0 3 1.346 3 3z" opacity=".15"/><path fill="#edb840" d="M19.511 15.935c-.02-.007-.04-.007-.041-.007l-1.938-.073q.127-.037.243-.082c.179-.066.347-.129.556-.11.322.029.54-.092.7-.18.057-.031.106-.059.148-.072.088-.029.155-.006.203.01.037.013.082.028.103-.015.006-.013.013-.038-.012-.072-.046-.062-.179-.117-.363-.09a.7.7 0 0 0-.216.074c-.127.059-.27.126-.608.099a1.3 1.3 0 0 0-.587.084c-.091.03-.178.058-.282.071l1.814-.833s.02-.008.036-.022q.04-.036.023-.08a.07.07 0 0 0-.034-.035c-.034-.014-.075.002-.079.004l-1.819.674q.103-.082.193-.169c.14-.13.271-.252.471-.315.308-.096.464-.292.578-.434q.06-.079.109-.124a.3.3 0 0 1 .192-.068c.039-.003.087-.006.09-.053 0-.014-.003-.04-.038-.062-.066-.04-.21-.04-.369.056a.7.7 0 0 0-.171.151c-.094.103-.201.22-.524.324-.254.082-.384.194-.51.302a1.5 1.5 0 0 1-.233.174l1.357-1.463c.032-.032.05-.082.016-.117a.06.06 0 0 0-.045-.019c-.037 0-.068.031-.071.034l-1.422 1.319q.063-.116.114-.23c.079-.173.154-.337.315-.471.248-.207.317-.447.368-.622a1 1 0 0 1 .054-.156.3.3 0 0 1 .151-.136c.035-.017.078-.038.063-.083-.005-.013-.018-.036-.059-.042-.076-.012-.209.044-.32.193a.7.7 0 0 0-.1.205c-.048.131-.102.28-.361.5a1.3 1.3 0 0 0-.356.474 1.5 1.5 0 0 1-.149.25l.694-1.871c.017-.042.015-.095-.03-.114a.06.06 0 0 0-.049 0c-.034.014-.051.055-.053.058l-.809 1.763q.014-.13.017-.256c.007-.19.014-.37.111-.556.15-.286.122-.534.102-.716-.007-.065-.014-.12-.01-.165a.3.3 0 0 1 .087-.184c.026-.029.058-.065.026-.101-.009-.01-.031-.026-.071-.017-.075.018-.177.12-.222.301-.021.083-.018.153-.015.227.006.14.013.298-.142.6a1.3 1.3 0 0 0-.147.574 1.4 1.4 0 0 1-.042.288l-.075-1.994c0-.045-.022-.094-.072-.094q-.047.001-.065.052c-.007.02-.007.039-.007.041l-.073 1.938a3 3 0 0 0-.082-.243c-.066-.179-.129-.347-.11-.556.029-.322-.092-.54-.18-.7-.031-.057-.059-.106-.072-.148-.029-.088-.006-.155.01-.203.013-.037.028-.082-.015-.103-.013-.006-.039-.013-.072.012-.062.046-.117.179-.09.363a.7.7 0 0 0 .074.216c.059.127.126.27.099.608-.021.266.032.429.084.587.03.091.058.178.071.282l-.833-1.814c-.017-.042-.056-.078-.102-.059q-.043.02-.04.073c.001.021.009.039.009.04l.674 1.818a3 3 0 0 0-.169-.193c-.13-.14-.252-.271-.315-.471-.096-.308-.292-.464-.434-.578q-.079-.06-.124-.109a.3.3 0 0 1-.068-.192c-.003-.039-.006-.087-.053-.09-.014 0-.04.003-.062.038-.04.066-.04.21.056.369a.7.7 0 0 0 .151.171c.103.094.22.201.324.524.082.254.194.384.302.51.062.072.122.142.174.234L13.6 13.501c-.032-.032-.082-.05-.117-.015-.021.021-.025.052-.009.083a.1.1 0 0 0 .024.033l1.319 1.422a3 3 0 0 0-.23-.114c-.173-.079-.337-.154-.471-.315-.207-.248-.447-.317-.623-.368a1 1 0 0 1-.156-.054.3.3 0 0 1-.136-.151c-.017-.035-.038-.078-.083-.062-.013.005-.036.018-.042.059-.012.076.044.209.193.32a.7.7 0 0 0 .205.1c.131.048.28.102.5.361.173.203.326.281.474.356.085.043.167.085.25.149l-1.871-.694c-.042-.017-.095-.015-.114.03a.06.06 0 0 0 0 .049c.014.034.055.051.058.053l1.763.809q-.13-.014-.256-.017c-.19-.007-.37-.014-.556-.111-.286-.15-.535-.122-.716-.101-.065.007-.12.014-.165.01-.092-.007-.145-.054-.184-.087-.029-.026-.065-.057-.101-.026-.01.009-.026.031-.017.071.018.075.12.177.301.222.083.021.153.018.227.015.14-.006.298-.013.6.142.237.122.409.135.574.147.095.007.187.014.288.042l-1.994.075c-.045 0-.093.022-.094.072q0 .026.018.045c.026.026.07.027.074.027l1.938.073c-.085.023-.165.053-.243.082-.179.066-.347.129-.556.11-.322-.029-.54.092-.7.18-.057.031-.106.059-.148.072-.088.029-.155.006-.203-.01-.037-.013-.082-.028-.103.015-.006.013-.013.038.012.072.046.062.179.117.363.09a.7.7 0 0 0 .216-.074c.127-.059.27-.126.608-.099.266.021.429-.032.587-.084.091-.03.178-.058.282-.071l-1.814.833c-.042.017-.078.056-.059.102q.018.04.065.04h.007c.021-.001.039-.009.04-.009l1.818-.674a3 3 0 0 0-.193.169c-.14.13-.271.252-.471.315-.308.096-.464.292-.578.434-.041.051-.076.095-.109.124a.3.3 0 0 1-.192.068c-.039.002-.087.006-.09.053 0 .014.003.04.038.062.066.04.21.04.369-.056a.7.7 0 0 0 .171-.151c.094-.103.201-.22.524-.324.254-.082.384-.194.51-.302.072-.062.142-.122.233-.174l-1.357 1.463c-.032.032-.05.082-.015.117a.06.06 0 0 0 .045.019.1.1 0 0 0 .038-.01.1.1 0 0 0 .033-.024l1.422-1.319a3 3 0 0 0-.114.23c-.079.173-.154.337-.315.471-.248.207-.317.447-.368.623a1 1 0 0 1-.054.156c-.042.083-.105.114-.151.137-.035.017-.078.038-.062.083.005.013.018.036.059.042.076.012.209-.044.32-.193a.7.7 0 0 0 .1-.205c.048-.131.102-.28.361-.5.203-.173.281-.326.356-.474.043-.085.085-.167.149-.25l-.694 1.871c-.017.042-.015.095.03.114l.025.005.024-.005c.034-.014.051-.055.053-.058l.809-1.763q-.015.13-.017.256c-.007.19-.014.37-.111.556-.15.286-.122.535-.101.716.007.065.014.12.01.165-.007.092-.054.145-.087.184-.026.029-.057.065-.026.101.009.01.031.026.071.016.075-.018.177-.12.222-.301.021-.083.018-.153.015-.227-.006-.14-.013-.298.142-.6.122-.237.135-.409.147-.574a1.4 1.4 0 0 1 .042-.288l.075 1.994c0 .045.022.094.072.094q.047-.001.065-.052c.007-.02.007-.039.007-.041l.073-1.938q.037.127.082.243c.066.179.129.347.11.556-.029.322.092.54.18.7.031.057.059.106.072.148.029.088.006.155-.01.203-.013.037-.028.082.015.103l.025.006a.1.1 0 0 0 .047-.017c.062-.046.117-.179.09-.363a.7.7 0 0 0-.074-.216c-.059-.127-.126-.27-.099-.608a1.3 1.3 0 0 0-.084-.587 1.4 1.4 0 0 1-.071-.282l.833 1.814s.008.02.022.036q.036.04.08.023a.07.07 0 0 0 .035-.034c.014-.034-.002-.075-.004-.079l-.674-1.818q.082.103.169.193c.13.14.252.271.315.471.096.308.292.464.434.578q.078.06.124.109c.06.07.065.141.068.192.002.039.006.087.053.09h.003c.014 0 .039-.006.059-.038.04-.066.04-.21-.056-.369a.7.7 0 0 0-.151-.171c-.103-.094-.22-.201-.324-.524-.082-.254-.194-.384-.302-.51a1.4 1.4 0 0 1-.173-.233l1.463 1.357c.032.032.082.05.117.015q.032-.033.009-.083a.1.1 0 0 0-.024-.033l-1.319-1.422q.116.063.23.114c.173.079.337.154.471.315.207.248.447.317.622.368a1 1 0 0 1 .156.054c.083.042.114.105.137.151.015.03.032.066.065.066l.018-.003c.013-.005.036-.018.042-.059.012-.076-.044-.209-.193-.32a.7.7 0 0 0-.205-.1c-.131-.048-.28-.102-.5-.361a1.3 1.3 0 0 0-.474-.356 1.5 1.5 0 0 1-.25-.149l1.871.694c.042.017.095.015.114-.03a.06.06 0 0 0 0-.049c-.014-.034-.055-.051-.058-.053l-1.763-.809q.13.015.256.017c.19.007.37.014.556.111.286.15.535.122.716.102.065-.007.12-.014.165-.01.093.007.145.053.184.087.02.018.044.039.069.039a.05.05 0 0 0 .032-.013c.01-.009.026-.031.016-.071-.018-.075-.12-.177-.301-.222-.083-.021-.153-.018-.227-.015-.14.006-.298.013-.6-.142a1.3 1.3 0 0 0-.574-.147 1.4 1.4 0 0 1-.288-.042l1.994-.075c.045 0 .093-.022.093-.072q-.001-.047-.052-.065Z"/><path fill="#fff" d="M27 5H5a3 3 0 0 0-3 3v1a3 3 0 0 1 3-3h22a3 3 0 0 1 3 3V8a3 3 0 0 0-3-3" opacity=".2"/></svg>