<svg xmlns="http://www.w3.org/2000/svg" width="32" height="32"><path fill="#fff" d="M1 11h30v10H1z"/><path fill="#81acdc" d="M5 4h22q4 1 4 4v4H1V8q1-3 4-4m22 24H5q-3 0-4-4v-4h30v4q0 4-4 4"/><path d="M27 4H5a4 4 0 0 0-4 4v16a4 4 0 0 0 4 4h22a4 4 0 0 0 4-4V8a4 4 0 0 0-4-4m3 20q0 3-3 3H5q-3 0-3-3V8q0-3 3-3h22q3 0 3 3z" opacity=".1"/><path fill="#edb840" d="M20 16h-1zh-1v1h-1l2-1h-2 1l1-1h-1v1h-1l2-1v-1h-1l-1 2v-1l1-1-1 1v1-2l-1 2v-1h1v-1h-1v2-3 2l-1-1v1h1v1l-1-2v2-1l-1-1v1h1v1l-1-1-1-1v1l2 1h-1l-1-1 1 1h1-2l2 1h-1v-1h-1v1h2-3 2l-1 1h1l1-1-2 1h2-1l-1 1h1v-1h1l-2 1v1h1l1-2v1l-1 1 1-1v-1 2l1-2v1h-1v1h1v-2 3-2l1 1v-1l-1-1 1 2v-2 1l1 1v-1h-1v-1l1 2h1v-1l-2-1h1l1 1-1-1h-1 2l-2-1h1v1h1zh-2z"/><path fill="#fff" d="M27 5H5L2 8v1l3-3h22l3 3V8z" opacity=".2"/></svg>