<svg xmlns="http://www.w3.org/2000/svg" width="32" height="32"><path fill="#f1c142" d="M1 10h30v12H1z"/><path fill="#a0251e" d="M5 4h22q4 1 4 4v3H1V8q1-3 4-4m22 24H5q-3 0-4-4v-3h30v3q0 4-4 4"/><path d="M27 4H5a4 4 0 0 0-4 4v16a4 4 0 0 0 4 4h22a4 4 0 0 0 4-4V8a4 4 0 0 0-4-4m3 20q0 3-3 3H5q-3 0-3-3V8q0-3 3-3h22q3 0 3 3z" opacity=".1"/><path fill="#fff" d="M27 5H5L2 8v1l3-3h22l3 3V8z" opacity=".2"/><path fill="#9b8028" d="M13 13zh-2 1-1v-1 1H9l-1 1v1h5zm-2 0zm-1 0zm-1 0zm5 4zv-1h-1v1l-1 1zv3h1v-3m-6-1zH7v5h1v-4q1 1 0 0"/><path fill="#a0251e" d="M13 15H8v4l1 1h3l1-1z"/></svg>