<svg xmlns="http://www.w3.org/2000/svg" width="32" height="32"><path fill="#fff" d="M10 4h12v24H10z"/><path fill="#2c6748" d="M5 4h6v24H5q-3 0-4-4V8q1-3 4-4"/><path fill="#be2a2c" d="M27 28h-6V4h6q4 1 4 4v16q0 4-4 4"/><path d="M27 4H5a4 4 0 0 0-4 4v16a4 4 0 0 0 4 4h22a4 4 0 0 0 4-4V8a4 4 0 0 0-4-4m3 20q0 3-3 3H5q-3 0-3-3V8q0-3 3-3h22q3 0 3 3z" opacity=".1"/><path fill="#fff" d="M27 5H5L2 8v1l3-3h22l3 3V8z" opacity=".2"/><path fill="#bb3433" d="M16 20"/><path fill="#3b8288" d="M19 19h-3v-1h-3q-1-1 0 0l2 1h1v1l1-1z"/><path fill="#a27037" d="M18 13q-2-1-2 0h-2q1 0 0 0v1q-1 1 0 0h1v3q0-1 0 0-1 0 0 0h1q0 1 0 0v1h3l-2-2h1v1-1q2 1 0 0h1-1 1q0 2 0 0 0 3 0 0v2l1-3zm-3 4"/><path fill="#a9ac78" d="m15 17-1-1v-2l-1 1zh-1v-1h-1 1v2zM14 14z"/></svg>