<svg xmlns="http://www.w3.org/2000/svg" width="32" height="32" viewBox="0 0 32 32">
  <path fill="#fff" d="M10 4H22V28H10z"/>
  <path d="M5,4h6V28H5c-2.208,0-4-1.792-4-4V8c0-2.208,1.792-4,4-4Z" fill="#2c6748"/>
  <path d="M25,4h6V28h-6c-2.208,0-4-1.792-4-4V8c0-2.208,1.792-4,4-4Z" transform="rotate(180 26 16)" fill="#be2a2c"/>
  <path d="M27,4H5c-2.209,0-4,1.791-4,4V24c0,2.209,1.791,4,4,4H27c2.209,0,4-1.791,4-4V8c0-2.209-1.791-4-4-4Zm3,20c0,1.654-1.346,3-3,3H5c-1.654,0-3-1.346-3-3V8c0-1.654,1.346-3,3-3H27c1.654,0,3,1.346,3,3V24Z" opacity=".15"/>
  <path d="M27,5H5c-1.657,0-3,1.343-3,3v1c0-1.657,1.343-3,3-3H27c1.657,0,3,1.343,3,3v-1c0-1.657-1.343-3-3-3Z" fill="#fff" opacity=".2"/>
  <path fill="#bb3433" d="M17.875 19.221L17.874 19.221 17.875 19.221 17.875 19.221z"/>
  <path fill="#bb3433" d="M19.08 17.788L19.08 17.788 19.08 17.788 19.08 17.788z"/>
  <path fill="#bb3433" d="M15.938 18.943L15.938 18.944 15.938 18.944 15.938 18.943z"/>
  <path fill="#bb3433" d="M16.305 19.76L16.305 19.76 16.305 19.76 16.305 19.76z"/>
  <path fill="#854a29" d="M16.196 16.434L16.196 16.434 16.196 16.434 16.196 16.434z"/>
  <path d="M14.757,12.878h0s0,0,0,0Z" fill="#854a29"/>
  <path fill="#854a29" d="M15.137 12.715L15.137 12.715 15.137 12.715 15.137 12.715z"/>
  <path d="M18.701,18.611c-.462-.69-.74,.319-1.215,.252,.125-.81-.778-.5-1.196-.312l.165-.241c-.625,.291-1.368-.712-1.816,.028-.095-.205-.882-.689-1.201-.328,.025-1.017-1.723-.957-.807,.081,.63,.179,.975,.964,1.915,.554,.129,.53,1.025,.583,1.413,.297-.052,.161-.027,.622-.041,.715,.479,.384,.485-.223,.822-.414,.489-.25,2.275,.502,1.96-.631Z" fill="#3b8288"/>
  <path d="M14.624,17.264s.004,.003,.012,.007c-.007-.004-.011-.007-.012-.007h0Z" fill="#a27037"/>
  <path d="M18.215,13.019c.002-.497-3.62-1.554-2.526,.068-.258,.037-.691-.15-.712-.352,0,0,0,0,0,0,0,0,0,0,0,0,.015,.04-.11,.248-.151,.267-.006-.1-.03-.192-.03-.192v.004c-.125-.31-.028,.433-.249,.37,.076-.029,.006-.364-.052-.32,.037,.024-.047,.41-.121,.427,.045-.065-.042-.324-.062-.272,0,0,0,0,0,0,.063,.263-.45,.571-.376,.701-.336,.119-.481,.946,.12,.757-.256-.134-.135-.469,.172-.434-.014-.003,.043,.021,.027,.032,.079,.371,.485-.072,.645-.128-.169,.942-.602,1.836,.288,2.773-.295-.311-.349,.054-.016,.163-.201,.01-.431,.205-.085,.313-.071,.072-.345-.137-.195,.009-.003-.001-.006-.003-.009-.004,0,0,.002,.002,.006,.005-.572-.025-.025,.2,.214,.222-.194,.305,.482,.023,.548,.016,0,0,0,0,0,0,.133,.335,.238,.032,.208-.217,.095,.109,.19,.217,.287,.324h0s0,0,0,0h0c.152,.041,.318,.718,.432,.365,.004-.014,.006-.028,.008-.042,.226,.254,.334,.35,.235-.053,.123,.202,.233,.26,.201-.004,.186,.195,.137-.07,.118-.206,.179,.711,1.985,.561,1.799,.083-.312-.304-2.294-1.415-1.782-2.109,.194,.099,1.156,1.304,.738,.599-.371-.965,.316,0,.418,.358,.23,.415-.128-.724-.204-.764,.635,.793,.576,1.491,.375,.027,.025,.048,.066,.086,.116,.105-.037-.074-.08-.103-.104-.114,.039,.009,.087,.068,.107,.115-.001,0-.002,0-.003-.001,.339,1.803,.462,1.494,.249-.132,.512,2.02,.44,2.008,.384-.037,.367,.526,.103,1.624,.26,2.125,.274-.584,.176-2.301,.355-2.761-.337-.32-1.113-2.012-1.631-2.085Zm-2.889,4.239s0-.001,0-.002h.002s-.001,.001-.002,.002Z" fill="#a27037"/>
  <path d="M14.715,16.587c.079-.641-.499-.553-.914-.554-.811-.68,1.523-1.254,.432-1.993h.004s-.008-.002-.007-.002l.007,.002s-.023-.023-.022-.023c-.094,.015-.235,.019-.282,.136,0,0,.003,.002,.006,.005l-.126,.148c0,.006,.21,.147,.201,.157,.008-.002,.019,.009,.025,.013,.11,.347-.585,.486-.724,.802-.445,.914,.373,1.211,1.023,1.217-.875,.946-.794,.138-1.382-.416,.083-.354,.237-.801-.251-.948,.003-.079-.13-.161-.165-.041,.033-.034-.086-.136-.135-.069-.19-.243-.413,.369-.078,.307,.008,.075,.133,.04,.152,.023-.003,.095,.142,.085,.161,.025,.33,.191-.146,.548,.001,.847,.195,.36,.548,.505,.559,.978,.29,.474,1.476-.153,1.506-.487,.005-.039,.007-.081,.01-.123h0Zm-.254-1.951s.004,.004,.005,.005h0s-.004-.003-.006-.005h0Zm-.572,.62s0,0,0,0c0,0,0,0,0,0h0Z" fill="#a9ac78"/>
  <path d="M13.746,13.936c.005,.021-.459,.125-.392-.081,.088,.028,.498-.271,.332-.237-.458,.313-.307-.073-.156-.339,.045,.015,.052,.236,.028,.25,.133-.089,.077-.573-.109-.321-.182-.073-.67,.401-.397,.595-.096,.419,.233,.596,.585,.507l.002-.006h.031c-.052-.007,.077-.344,.076-.367Z" fill="#a9ac78"/>
</svg>
