<svg xmlns="http://www.w3.org/2000/svg" width="32" height="32" viewBox="0 0 32 32"><path fill="#fff" d="M10 4h12v24H10z"/><path fill="#2c6748" d="M5 4h6v24H5c-2.208 0-4-1.792-4-4V8c0-2.208 1.792-4 4-4"/><path fill="#be2a2c" d="M27 28h-6V4h6c2.208 0 4 1.792 4 4v16c0 2.208-1.792 4-4 4"/><path d="M27 4H5a4 4 0 0 0-4 4v16a4 4 0 0 0 4 4h22a4 4 0 0 0 4-4V8a4 4 0 0 0-4-4m3 20c0 1.654-1.346 3-3 3H5c-1.654 0-3-1.346-3-3V8c0-1.654 1.346-3 3-3h22c1.654 0 3 1.346 3 3z" opacity=".15"/><path fill="#fff" d="M27 5H5a3 3 0 0 0-3 3v1a3 3 0 0 1 3-3h22a3 3 0 0 1 3 3V8a3 3 0 0 0-3-3" opacity=".2"/><path fill="#bb3433" d="M17.875 19.221h-.001zm-1.57.539"/><path fill="#3b8288" d="M18.701 18.611c-.462-.69-.74.319-1.215.252.125-.81-.778-.5-1.196-.312l.165-.241c-.625.291-1.368-.712-1.816.028-.095-.205-.882-.689-1.201-.328.025-1.017-1.723-.957-.807.081.63.179.975.964 1.915.554.129.53 1.025.583 1.413.297-.052.161-.027.622-.041.715.479.384.485-.223.822-.414.489-.25 2.275.502 1.96-.631Z"/><path fill="#a27037" d="m14.624 17.264.012.007zm3.591-4.245c.002-.497-3.62-1.554-2.526.068-.258.037-.691-.15-.712-.352.015.04-.11.248-.151.267-.006-.1-.03-.192-.03-.192v.004c-.125-.31-.028.433-.249.37.076-.029.006-.364-.052-.32.037.024-.047.41-.121.427.045-.065-.042-.324-.062-.272.063.263-.45.571-.376.701-.336.119-.481.946.12.757-.256-.134-.135-.469.172-.434-.014-.003.043.021.027.032.079.371.485-.072.645-.128-.169.942-.602 1.836.288 2.773-.295-.311-.349.054-.016.163-.201.01-.431.205-.085.313-.071.072-.345-.137-.195.009l-.009-.004.006.005c-.572-.025-.025.2.214.222-.194.305.482.023.548.016.133.335.238.032.208-.217q.142.163.287.324c.152.041.318.718.432.365q.006-.021.008-.042c.226.254.334.35.235-.053.123.202.233.26.201-.004.186.195.137-.07.118-.206.179.711 1.985.561 1.799.083-.312-.304-2.294-1.415-1.782-2.109.194.099 1.156 1.304.738.599-.371-.965.316 0 .418.358.23.415-.128-.724-.204-.764.635.793.576 1.491.375.027a.22.22 0 0 0 .116.105.23.23 0 0 0-.104-.114c.039.009.087.068.107.115l-.003-.001c.339 1.803.462 1.494.249-.132.512 2.02.44 2.008.384-.037.367.526.103 1.624.26 2.125.274-.584.176-2.301.355-2.761-.337-.32-1.113-2.012-1.631-2.085Zm-2.889 4.239v-.002h.002z"/><path fill="#a9ac78" d="M14.715 16.587c.079-.641-.499-.553-.914-.554-.811-.68 1.523-1.254.432-1.993h.004l-.007-.002.007.002-.022-.023c-.094.015-.235.019-.282.136l.006.005-.126.148c0 .006.21.147.201.157.008-.002.019.009.025.013.11.347-.585.486-.724.802-.445.914.373 1.211 1.023 1.217-.875.946-.794.138-1.382-.416.083-.354.237-.801-.251-.948.003-.079-.13-.161-.165-.041.033-.034-.086-.136-.135-.069-.19-.243-.413.369-.078.307.008.075.133.04.152.023-.003.095.142.085.161.025.33.191-.146.548.001.847.195.36.548.505.559.978.29.474 1.476-.153 1.506-.487q.007-.06.01-.123Zm-.254-1.951.005.005zm-.572.62"/><path fill="#a9ac78" d="M13.746 13.936c.005.021-.459.125-.392-.081.088.028.498-.271.332-.237-.458.313-.307-.073-.156-.339.045.015.052.236.028.25.133-.089.077-.573-.109-.321-.182-.073-.67.401-.397.595-.096.419.233.596.585.507l.002-.006h.031c-.052-.007.077-.344.076-.367Z"/></svg>