<svg xmlns="http://www.w3.org/2000/svg" width="32" height="32"><path fill="#db2f20" d="M5 4h22q4 1 4 4v2H1V8q1-3 4-4m22 24H5q-3 0-4-4v-2h30v2q0 4-4 4"/><path fill="#fff" d="M1 18h30v5H1zm0-9h30v5H1z"/><path fill="#db2f20" d="M1 14h30v5H1z"/><path fill="#214de8" d="m2 27 14-11L2 5 1 8v16z"/><path d="M27 4H5a4 4 0 0 0-4 4v16a4 4 0 0 0 4 4h22a4 4 0 0 0 4-4V8a4 4 0 0 0-4-4m3 20q0 3-3 3H5q-3 0-3-3V8q0-3 3-3h22q3 0 3 3z" opacity=".1"/><path fill="#fff" d="m8 17 2-2H7v-3l-1 3H3l2 2-1 2 3-1 2 1z"/><path fill="#fff" d="M27 5H5L2 8v1l3-3h22l3 3V8z" opacity=".2"/></svg>