<svg xmlns="http://www.w3.org/2000/svg" width="32" height="32" viewBox="0 0 32 32"><path fill="#fff" d="M1 11h30v10H1z"/><path fill="#1c44a6" d="M5 4h22c2.208 0 4 1.792 4 4v4H1V8c0-2.208 1.792-4 4-4m22 24H5c-2.208 0-4-1.792-4-4v-4h30v4c0 2.208-1.792 4-4 4"/><path d="M27 4H5a4 4 0 0 0-4 4v16a4 4 0 0 0 4 4h22a4 4 0 0 0 4-4V8a4 4 0 0 0-4-4m3 20c0 1.654-1.346 3-3 3H5c-1.654 0-3-1.346-3-3V8c0-1.654 1.346-3 3-3h22c1.654 0 3 1.346 3 3z" opacity=".15"/><path fill="#1c44a6" d="m15.429 15.299-1.162-1.307s-.184 2.401.174 2.982z"/><path fill="#1c44a6" d="m15.129 16.228-1.53-.997s-.126 1.801.542 2.072zm1.442-.929 1.162-1.307s.184 2.401-.174 2.982z"/><path fill="#1c44a6" d="m16.871 16.228 1.53-.997s.126 1.801-.542 2.072z"/><path fill="#f7cf46" d="M16 19.541c-1.953 0-3.541-1.588-3.541-3.541s1.588-3.541 3.541-3.541 3.541 1.588 3.541 3.541-1.588 3.541-3.541 3.541m0-6.563c-1.667 0-3.022 1.356-3.022 3.022s1.356 3.022 3.022 3.022 3.022-1.356 3.022-3.022-1.356-3.022-3.022-3.022"/><path fill="#fff" d="m16 13.806-2.089 3.618h4.178z"/><path fill="#f7cf46" d="M18.538 17.684h-5.075l2.538-4.395 2.538 4.395Zm-4.178-.519h3.28L16 14.325z"/><path fill="#fff" d="M27 5H5a3 3 0 0 0-3 3v1a3 3 0 0 1 3-3h22a3 3 0 0 1 3 3V8a3 3 0 0 0-3-3" opacity=".2"/></svg>