<svg xmlns="http://www.w3.org/2000/svg" width="32" height="32"><path fill="#fff" d="M1 11h30v10H1z"/><path fill="#1c44a6" d="M5 4h22q4 1 4 4v4H1V8q1-3 4-4m22 24H5q-3 0-4-4v-4h30v4q0 4-4 4"/><path d="M27 4H5a4 4 0 0 0-4 4v16a4 4 0 0 0 4 4h22a4 4 0 0 0 4-4V8a4 4 0 0 0-4-4m3 20q0 3-3 3H5q-3 0-3-3V8q0-3 3-3h22q3 0 3 3z" opacity=".1"/><path fill="#1c44a6" d="m15 15-1-1v3z"/><path fill="#1c44a6" d="m15 16-1-1v2zm2-1 1-1v3z"/><path fill="#1c44a6" d="m17 16 1-1v2z"/><path fill="#f7cf46" d="M16 20a4 4 0 1 1 0-8 4 4 0 0 1 0 8m0-7a3 3 0 1 0 0 6 3 3 0 0 0 0-6"/><path fill="#fff" d="m16 14-2 3h4z"/><path fill="#f7cf46" d="M19 18h-6l3-5zm-5-1h4l-2-3z"/><path fill="#fff" d="M27 5H5L2 8v1l3-3h22l3 3V8z" opacity=".2"/></svg>