<svg xmlns="http://www.w3.org/2000/svg" xmlns:xlink="http://www.w3.org/1999/xlink" viewBox="0 0 512 512"><defs><path id="s" d="M0.00,-13.78L3.10,-4.26L13.11,-4.26L5.01,1.63L8.10,11.15L0.00,5.27L-8.10,11.15L-5.01,1.63L-13.11,-4.26L-3.10,-4.26Z" fill="#fff"/></defs><rect width="512" height="512" fill="#fff"/><rect y="0.000" width="512" height="39.385" fill="#b22234"/><rect y="78.769" width="512" height="39.385" fill="#b22234"/><rect y="157.538" width="512" height="39.385" fill="#b22234"/><rect y="236.308" width="512" height="39.385" fill="#b22234"/><rect y="315.077" width="512" height="39.385" fill="#b22234"/><rect y="393.846" width="512" height="39.385" fill="#b22234"/><rect y="472.615" width="512" height="39.385" fill="#b22234"/><rect width="205" height="275.692" fill="#3c3b6e"/><g><use xlink:href="#s" x="17.08" y="27.57"/><use xlink:href="#s" x="51.25" y="27.57"/><use xlink:href="#s" x="85.42" y="27.57"/><use xlink:href="#s" x="119.58" y="27.57"/><use xlink:href="#s" x="153.75" y="27.57"/><use xlink:href="#s" x="187.92" y="27.57"/><use xlink:href="#s" x="34.17" y="55.14"/><use xlink:href="#s" x="68.33" y="55.14"/><use xlink:href="#s" x="102.50" y="55.14"/><use xlink:href="#s" x="136.67" y="55.14"/><use xlink:href="#s" x="170.83" y="55.14"/><use xlink:href="#s" x="17.08" y="82.71"/><use xlink:href="#s" x="51.25" y="82.71"/><use xlink:href="#s" x="85.42" y="82.71"/><use xlink:href="#s" x="119.58" y="82.71"/><use xlink:href="#s" x="153.75" y="82.71"/><use xlink:href="#s" x="187.92" y="82.71"/><use xlink:href="#s" x="34.17" y="110.28"/><use xlink:href="#s" x="68.33" y="110.28"/><use xlink:href="#s" x="102.50" y="110.28"/><use xlink:href="#s" x="136.67" y="110.28"/><use xlink:href="#s" x="170.83" y="110.28"/><use xlink:href="#s" x="17.08" y="137.85"/><use xlink:href="#s" x="51.25" y="137.85"/><use xlink:href="#s" x="85.42" y="137.85"/><use xlink:href="#s" x="119.58" y="137.85"/><use xlink:href="#s" x="153.75" y="137.85"/><use xlink:href="#s" x="187.92" y="137.85"/><use xlink:href="#s" x="34.17" y="165.42"/><use xlink:href="#s" x="68.33" y="165.42"/><use xlink:href="#s" x="102.50" y="165.42"/><use xlink:href="#s" x="136.67" y="165.42"/><use xlink:href="#s" x="170.83" y="165.42"/><use xlink:href="#s" x="17.08" y="192.98"/><use xlink:href="#s" x="51.25" y="192.98"/><use xlink:href="#s" x="85.42" y="192.98"/><use xlink:href="#s" x="119.58" y="192.98"/><use xlink:href="#s" x="153.75" y="192.98"/><use xlink:href="#s" x="187.92" y="192.98"/><use xlink:href="#s" x="34.17" y="220.55"/><use xlink:href="#s" x="68.33" y="220.55"/><use xlink:href="#s" x="102.50" y="220.55"/><use xlink:href="#s" x="136.67" y="220.55"/><use xlink:href="#s" x="170.83" y="220.55"/><use xlink:href="#s" x="17.08" y="248.12"/><use xlink:href="#s" x="51.25" y="248.12"/><use xlink:href="#s" x="85.42" y="248.12"/><use xlink:href="#s" x="119.58" y="248.12"/><use xlink:href="#s" x="153.75" y="248.12"/><use xlink:href="#s" x="187.92" y="248.12"/></g></svg>