<svg xmlns="http://www.w3.org/2000/svg" width="1694" height="520" fill="none"><g mask="url(#mask0_4_16)"><g filter="url(#a)" opacity=".2"><path fill="url(#b)" d="M-450.695-676.451-491-639.879 216.107 1.72614 709.412 427.815l-453-462.6603-707.107-641.6057Z"/></g><g filter="url(#c)" opacity=".32"><path fill="url(#d)" d="M-114.695-661.025-155-624.454 552.107 17.1514 1045.41 443.24 592.412-19.4201-114.695-661.025Z"/></g><g filter="url(#e)" opacity=".32"><path fill="url(#f)" d="m14.3057-818-40.3051 36.571L681.107-139.823l493.303 426.088-452.998-462.66L14.3057-818Z"/></g></g><defs><linearGradient id="b" x1="-470.847" x2="167.738" y1="-658.165" y2="45.6141" gradientUnits="userSpaceOnUse"><stop stop-color="#fff"/><stop offset="1" stop-color="#D3D8DF"/></linearGradient><linearGradient id="d" x1="-134.847" x2="503.738" y1="-642.74" y2="61.0393" gradientUnits="userSpaceOnUse"><stop stop-color="#fff"/><stop offset="1" stop-color="#D3D8DF"/></linearGradient><linearGradient id="f" x1="-5.84688" x2="632.739" y1="-799.714" y2="-95.9353" gradientUnits="userSpaceOnUse"><stop stop-color="#fff"/><stop offset="1" stop-color="#D3D8DF"/></linearGradient><filter id="a" width="1440.41" height="1344.27" x="-611" y="-796.451" color-interpolation-filters="sRGB" filterUnits="userSpaceOnUse"><feFlood flood-opacity="0" result="BackgroundImageFix"/><feBlend in="SourceGraphic" in2="BackgroundImageFix" result="shape"/><feGaussianBlur result="effect1_foregroundBlur_4_16" stdDeviation="60"/></filter><filter id="c" width="1440.41" height="1344.27" x="-275" y="-781.025" color-interpolation-filters="sRGB" filterUnits="userSpaceOnUse"><feFlood flood-opacity="0" result="BackgroundImageFix"/><feBlend in="SourceGraphic" in2="BackgroundImageFix" result="shape"/><feGaussianBlur result="effect1_foregroundBlur_4_16" stdDeviation="60"/></filter><filter id="e" width="1440.41" height="1344.27" x="-145.999" y="-938" color-interpolation-filters="sRGB" filterUnits="userSpaceOnUse"><feFlood flood-opacity="0" result="BackgroundImageFix"/><feBlend in="SourceGraphic" in2="BackgroundImageFix" result="shape"/><feGaussianBlur result="effect1_foregroundBlur_4_16" stdDeviation="60"/></filter></defs></svg>