<svg xmlns="http://www.w3.org/2000/svg" width="1694" height="520" fill="none" viewBox="0 0 1694 520"><g clip-path="url(#a)"><g filter="url(#b)" opacity=".2"><path fill="url(#c)" d="M-518.695-676.451-559-639.879 148.107 1.72608 641.412 427.815l-453-462.6604-707.107-641.6056Z"/></g><g filter="url(#d)" opacity=".32"><path fill="url(#e)" d="M-182.695-661.025-223-624.454 484.107 17.1514 977.412 443.24l-453-462.6601-707.107-641.6049Z"/></g><g filter="url(#f)" opacity=".32"><path fill="url(#g)" d="m-53.6943-818-40.3051 36.571L613.107-139.823l493.303 426.088-452.998-462.66L-53.6943-818Z"/></g></g><defs><linearGradient id="c" x1="-538.847" x2="99.7383" y1="-658.165" y2="45.614" gradientUnits="userSpaceOnUse"><stop stop-color="#fff"/><stop offset="1" stop-color="#D3D8DF"/></linearGradient><linearGradient id="e" x1="-202.847" x2="435.738" y1="-642.74" y2="61.0393" gradientUnits="userSpaceOnUse"><stop stop-color="#fff"/><stop offset="1" stop-color="#D3D8DF"/></linearGradient><linearGradient id="g" x1="-73.8469" x2="564.739" y1="-799.714" y2="-95.9353" gradientUnits="userSpaceOnUse"><stop stop-color="#fff"/><stop offset="1" stop-color="#D3D8DF"/></linearGradient><filter id="b" width="1440.41" height="1344.27" x="-679" y="-796.451" color-interpolation-filters="sRGB" filterUnits="userSpaceOnUse"><feFlood flood-opacity="0" result="BackgroundImageFix"/><feBlend in="SourceGraphic" in2="BackgroundImageFix" result="shape"/><feGaussianBlur result="effect1_foregroundBlur_727_2886" stdDeviation="60"/></filter><filter id="d" width="1440.41" height="1344.27" x="-343" y="-781.025" color-interpolation-filters="sRGB" filterUnits="userSpaceOnUse"><feFlood flood-opacity="0" result="BackgroundImageFix"/><feBlend in="SourceGraphic" in2="BackgroundImageFix" result="shape"/><feGaussianBlur result="effect1_foregroundBlur_727_2886" stdDeviation="60"/></filter><filter id="f" width="1440.41" height="1344.27" x="-214" y="-938" color-interpolation-filters="sRGB" filterUnits="userSpaceOnUse"><feFlood flood-opacity="0" result="BackgroundImageFix"/><feBlend in="SourceGraphic" in2="BackgroundImageFix" result="shape"/><feGaussianBlur result="effect1_foregroundBlur_727_2886" stdDeviation="60"/></filter><clipPath id="a"><path fill="#fff" d="M1694 0H0v520h1694z"/></clipPath></defs></svg>