<svg xmlns="http://www.w3.org/2000/svg" width="1694" height="520" fill="none" viewBox="0 0 1694 520"><g clip-path="url(#a)"><mask id="b" width="1694" height="520" x="0" y="0" maskUnits="userSpaceOnUse" style="mask-type:luminance"><path fill="#fff" d="M1694 0H0v520h1694V0Z"/></mask><g mask="url(#b)"><g filter="url(#c)" opacity=".2"><path fill="url(#d)" d="M-450.695-676.451-491-639.879 216.107 1.726l493.305 426.089-453-462.66-707.107-641.606Z"/></g><g filter="url(#e)" opacity=".32"><path fill="url(#f)" d="M-114.695-661.025-155-624.454 552.107 17.151 1045.41 443.24 592.412-19.42l-707.107-641.605Z"/></g><g filter="url(#g)" opacity=".32"><path fill="url(#h)" d="M14.306-818-26-781.429l707.106 641.606 493.303 426.088-452.998-462.66L14.306-818Z"/></g></g></g><defs><linearGradient id="d" x1="-470.847" x2="167.738" y1="-658.165" y2="45.614" gradientUnits="userSpaceOnUse"><stop stop-color="#fff"/><stop offset="1" stop-color="#D3D8DF"/></linearGradient><linearGradient id="f" x1="-134.847" x2="503.738" y1="-642.74" y2="61.039" gradientUnits="userSpaceOnUse"><stop stop-color="#fff"/><stop offset="1" stop-color="#D3D8DF"/></linearGradient><linearGradient id="h" x1="-5.847" x2="632.739" y1="-799.714" y2="-95.935" gradientUnits="userSpaceOnUse"><stop stop-color="#fff"/><stop offset="1" stop-color="#D3D8DF"/></linearGradient><filter id="c" width="1440.41" height="1344.27" x="-611" y="-796.451" color-interpolation-filters="sRGB" filterUnits="userSpaceOnUse"><feFlood flood-opacity="0" result="BackgroundImageFix"/><feBlend in="SourceGraphic" in2="BackgroundImageFix" result="shape"/><feGaussianBlur result="effect1_foregroundBlur_4_15" stdDeviation="60"/></filter><filter id="e" width="1440.41" height="1344.27" x="-275" y="-781.025" color-interpolation-filters="sRGB" filterUnits="userSpaceOnUse"><feFlood flood-opacity="0" result="BackgroundImageFix"/><feBlend in="SourceGraphic" in2="BackgroundImageFix" result="shape"/><feGaussianBlur result="effect1_foregroundBlur_4_15" stdDeviation="60"/></filter><filter id="g" width="1440.41" height="1344.27" x="-145.999" y="-938" color-interpolation-filters="sRGB" filterUnits="userSpaceOnUse"><feFlood flood-opacity="0" result="BackgroundImageFix"/><feBlend in="SourceGraphic" in2="BackgroundImageFix" result="shape"/><feGaussianBlur result="effect1_foregroundBlur_4_15" stdDeviation="60"/></filter><clipPath id="a"><path fill="#fff" d="M0 0h1694v520H0z"/></clipPath></defs></svg>