<svg xmlns="http://www.w3.org/2000/svg" width="48" height="48" fill="none" viewBox="0 0 48 48"><path fill="#333" d="M17.654 38.537c13.602 0 21.057-11.261 21.057-21.057 0-.312 0-.624-.03-.967a14.37 14.37 0 0 0 3.68-3.837c-1.31.593-2.745.998-4.242 1.154a7.298 7.298 0 0 0 3.244-4.087 15.383 15.383 0 0 1-4.71 1.81 7.392 7.392 0 0 0-5.397-2.34 7.389 7.389 0 0 0-7.394 7.394c0 .592.063 1.154.187 1.684a20.985 20.985 0 0 1-15.255-7.736 7.505 7.505 0 0 0-.998 3.712 7.349 7.349 0 0 0 3.307 6.145 7.139 7.139 0 0 1-3.338-.935v.093c0 3.588 2.558 6.582 5.927 7.238a8.017 8.017 0 0 1-1.934.25c-.468 0-.936-.063-1.404-.126.936 2.933 3.681 5.085 6.895 5.148-2.527 1.996-5.71 3.15-9.172 3.15-.593 0-1.185-.03-1.778-.093a20.604 20.604 0 0 0 11.355 3.4Z"/></svg>