<svg xmlns="http://www.w3.org/2000/svg" viewBox="0 0 24 24" fill="currentColor"><path d="M12 2.16c3.2 0 3.58.01 4.85.07 1.17.05 1.8.25 2.23.41.56.22.96.48 1.38.9.42.42.68.82.9 1.38.16.42.36 1.05.41 2.22.06 1.27.07 1.65.07 4.86s-.01 3.58-.07 4.85c-.05 1.17-.25 1.8-.41 2.23-.22.56-.48.96-.9 1.38-.42.42-.82.68-1.38.9-.42.16-1.05.36-2.22.41-1.27.06-1.65.07-4.86.07s-3.58-.01-4.85-.07c-1.17-.05-1.8-.25-2.23-.41-.56-.22-.96-.48-1.38-.9-.42-.42-.68-.82-.9-1.38-.16-.42-.36-1.05-.41-2.22C2.17 15.58 2.16 15.2 2.16 12s.01-3.58.07-4.85c.05-1.17.25-1.8.41-2.23.22-.56.48-.96.9-1.38.42-.42.82-.68 1.38-.9.42-.16 1.05-.36 2.22-.41C8.42 2.17 8.8 2.16 12 2.16M12 0C8.74 0 8.33.01 7.05.07 5.78.13 4.9.33 4.14.63c-.79.31-1.46.72-2.13 1.39C1.35 2.68.93 3.35.63 4.14c-.3.76-.5 1.64-.56 2.91C.01 8.33 0 8.74 0 12s.01 3.67.07 4.95c.06 1.27.26 2.15.56 2.91.31.79.72 1.46 1.39 2.13.67.67 1.34 1.08 2.13 1.39.76.3 1.64.5 2.91.56C8.33 23.99 8.74 24 12 24s3.67-.01 4.95-.07c1.27-.06 2.15-.26 2.91-.56.79-.31 1.46-.72 2.13-1.39.67-.67 1.08-1.34 1.39-2.13.3-.76.5-1.64.56-2.91.06-1.28.07-1.69.07-4.95s-.01-3.67-.07-4.95c-.06-1.27-.26-2.15-.56-2.91-.31-.79-.72-1.46-1.39-2.13C21.32 1.35 20.65.93 19.86.63 19.1.33 18.22.13 16.95.07 15.67.01 15.26 0 12 0zm0 5.84A6.16 6.16 0 1 0 12 18.16 6.16 6.16 0 0 0 12 5.84zm0 10.16A4 4 0 1 1 12 8a4 4 0 0 1 0 8zM18.41 4.15a1.44 1.44 0 1 0 0 2.88 1.44 1.44 0 0 0 0-2.88z"/></svg>
