<svg xmlns="http://www.w3.org/2000/svg" viewBox="0 0 206 224" fill="none" >
    <path d="m206 0-29 13-18 10c-12 9-23 21-32 35l-14 25-10-15-10 14-14-24a111 111 0 0 0-50-45L0 0l74 112L0 224l29-13 18-10c12-9 23-21 32-35l14-25 10 15 10-15 14 25a111 111 0 0 0 50 45l29 13-74-112L206 0zm-73 62a103 103 0 0 1 47-42l7-4-59 90-11-17 16-27zM19 16l7 4c6 2 12 5 17 9 12 8 22 19 30 33l16 27-11 17-59-90zm84 128-6-9 6-10 6 10-6 9zm84 64-7-4h-1l-16-9c-12-8-22-19-30-33l-16-27-11-19-3-5-2 5-12 19-16 27a103 103 0 0 1-47 42l-7 3 62-92 17-26 5-9 6 9 17 26 61 93z"/>
    <style>
        path {
        fill: currentColor;
        }
    </style>
</svg>
