<svg
	xmlns="http://www.w3.org/2000/svg"
	width="101"
	height="38"
	viewBox="0 0 101 38"
	fill="none"
>
	<path
		fill="currentColor"
		d="M33.406 1.798A121.554 121.554 0 0 0 36.478 0c1.026.602 2.049 1.213 3.088 1.79.035 8.856.007 17.71.015 26.566-.059.85.28 1.781 1.07 2.174 1.032.497 2.214.272 3.316.328.025 1.985.01 3.972.007 5.957-1.084 0-2.17.014-3.254-.013-.91-.014-1.79-.283-2.652-.555-.697-.342-1.388-.712-1.996-1.202a7.468 7.468 0 0 1-2.25-3.495c-.385-1.144-.443-2.366-.427-3.563.01-8.73-.013-17.46.01-26.189ZM59.308 7.34c3.224-.17 6.474-.038 9.652.554-.015 1.98-.01 3.96 0 5.94-.965-.053-1.911-.277-2.877-.32a45.018 45.018 0 0 0-6.668-.194c-1.32.138-2.728.182-3.878.932-.8.549-.96 1.662-.736 2.55.34.921 1.262 1.37 2.116 1.682 1.95.649 4.002.88 5.981 1.424 1.927.511 3.859 1.203 5.443 2.466 1.284 1.002 2.097 2.536 2.369 4.14.197 1.973.1 4.048-.804 5.845a7.479 7.479 0 0 1-3.862 3.59c-1.356.597-2.849.847-4.321.863-3.194.012-6.389.002-9.581.004-.563-.01-1.127.038-1.688-.021-.662-.892-1.214-1.86-1.85-2.77-.139-.138-.078-.336.032-.468.633-.887 1.201-1.817 1.826-2.708 3.508.016 7.016.003 10.525.007.905-.064 1.863-.072 2.68-.528.546-.305.946-.892.942-1.536.086-.78-.166-1.594-.73-2.139-.465-.321-.95-.626-1.492-.793-1.242-.415-2.53-.68-3.817-.912-1.988-.451-3.995-.934-5.825-1.872-.493-.283-1.022-.516-1.455-.893-.8-.658-1.575-1.412-1.997-2.381-.74-1.448-.817-3.127-.735-4.723.12-2.048 1.082-4.069 2.728-5.297 2.305-1.722 5.23-2.224 8.022-2.442ZM8.559 8.9c4.015-1.594 8.424-1.848 12.68-1.442 1.806.213 3.619.418 5.381.885.006 9.488-.008 18.978.007 28.466-2.047.017-4.093.006-6.142.005.014-7 .003-14 .007-21-.007-.77.015-1.54-.017-2.31a29.744 29.744 0 0 0-5.473-.197c-2.074.21-4.21.742-5.866 2.086-1.704 1.357-2.65 3.511-2.801 5.673-.07 1.514-.075 3.073.433 4.52.301 1.114.951 2.093 1.704 2.948l.24.052.075.256c.667.49 1.383.917 2.141 1.248a9.99 9.99 0 0 0 3.62.58c.674.935 1.264 1.929 1.92 2.876.226.254-.084.51-.208.725-.545.846-1.145 1.658-1.64 2.536a16.346 16.346 0 0 1-5.097-.714c-2.782-.86-5.337-2.615-6.965-5.078-1.422-2.042-2.161-4.5-2.417-6.97-.039-.484.018-.978-.1-1.454-.113-.333.043-.667.064-1 .042-3.528 1.27-7.154 3.804-9.645 1.309-1.34 2.941-2.32 4.65-3.046ZM84.067 8.47c3.461-1.123 7.152-1.353 10.76-1.077 2.06.208 4.142.421 6.148.969.002 8.63-.002 17.26.002 25.89-.014.337.044.688-.045 1.018-1.027.579-2.032 1.203-3.06 1.778-.668-.478-1.425-.809-2.108-1.264-.142-.083-.283-.214-.46-.186-.178-.184-.505-.31-.505-.603.006-7.153-.004-14.306.007-21.461-2.356-.342-4.772-.406-7.124.013-2.081.41-4.179 1.362-5.458 3.14-1.433 1.904-1.759 4.413-1.571 6.739.047.34.005.728.241 1.008l-.06.225c.345 1.583 1.12 3.13 2.405 4.134 1.25 1.035 2.841 1.557 4.423 1.77.701.165 1.438.003 2.131.198-.035 2.019.007 4.038-.02 6.056-3.734.048-7.605-.922-10.553-3.335-1.425-1.161-2.558-2.665-3.378-4.315-1.475-3.142-1.728-6.761-1.178-10.161.36-1.772.942-3.533 1.951-5.039 1.71-2.681 4.479-4.548 7.452-5.496Z"
	></path>
</svg>
