<svg width="193" height="96" viewBox="0 0 193 96" fill="none" xmlns="http://www.w3.org/2000/svg">
<path d="M80.1282 26.7984C81.161 26.2155 82.1844 25.6138 83.2011 25C84.2272 25.6017 85.2493 26.2128 86.2887 26.7903C86.3233 35.646 86.2954 44.5007 86.3034 53.3564C86.2447 54.2058 86.5845 55.1373 87.3734 55.5304C88.4061 56.0271 89.5881 55.8023 90.6902 55.8575C90.7142 57.8429 90.6995 59.8296 90.6968 61.8152C89.6121 61.8152 88.5274 61.8286 87.4427 61.8017C86.5325 61.7882 85.6517 61.519 84.7909 61.2471C84.094 60.9052 83.4024 60.535 82.7947 60.045C81.742 59.1243 80.9384 57.9021 80.544 56.5505C80.1602 55.4064 80.1016 54.1841 80.1176 52.9874C80.1269 44.2568 80.1043 35.5276 80.1282 26.7984Z" fill="white"/>
<path d="M106.031 32.3418C109.254 32.1722 112.504 32.3041 115.683 32.8964C115.668 34.8765 115.672 36.8565 115.683 38.8365C114.718 38.7827 113.772 38.5592 112.806 38.5161C110.592 38.2846 108.362 38.224 106.137 38.3223C104.818 38.4596 103.41 38.504 102.26 39.2538C101.459 39.803 101.299 40.9162 101.524 41.8046C101.864 42.7253 102.786 43.1749 103.64 43.4858C105.59 44.1346 107.642 44.3662 109.621 44.91C111.547 45.4215 113.48 46.1134 115.064 47.3759C116.347 48.3774 117.16 49.912 117.432 51.5166C117.629 53.4886 117.533 55.5642 116.629 57.3613C115.83 58.9846 114.426 60.2755 112.767 60.9513C111.41 61.5476 109.918 61.7979 108.445 61.8141C105.251 61.8262 102.057 61.8154 98.8642 61.8181C98.3019 61.8074 97.7382 61.8558 97.1772 61.7966C96.5149 60.9055 95.9632 59.9363 95.3262 59.0264C95.1876 58.8891 95.2489 58.6912 95.3582 58.5593C95.9912 57.6722 96.5602 56.7421 97.1852 55.8509C100.692 55.8671 104.201 55.8536 107.71 55.8577C108.615 55.7944 109.573 55.7863 110.39 55.33C110.936 55.0245 111.336 54.4376 111.332 53.7942C111.417 53.0148 111.165 52.2004 110.602 51.6553C110.137 51.3336 109.651 51.0294 109.109 50.8624C107.867 50.4465 106.58 50.1813 105.292 49.9498C103.304 49.4989 101.297 49.0156 99.4679 48.0774C98.9749 47.7947 98.4458 47.5619 98.0128 47.185C97.2132 46.5267 96.4377 45.7729 96.0152 44.8038C95.2756 43.3554 95.1984 41.6769 95.281 40.0804C95.4009 38.033 96.3631 36.0125 98.0088 34.7837C100.314 33.062 103.239 32.5599 106.031 32.3418Z" fill="white"/>
<path d="M55.2816 33.9021C59.2968 32.3083 63.706 32.0539 67.9624 32.4604C69.768 32.6731 71.5801 32.8777 73.3431 33.3448C73.3484 42.8332 73.3351 52.323 73.3498 61.8114C71.303 61.8276 69.2561 61.8168 67.2079 61.8155C67.2213 54.8161 67.2106 47.8163 67.2146 40.8166C67.2079 40.0466 67.2293 39.2766 67.1973 38.5067C65.3837 38.2725 63.5502 38.2065 61.7244 38.3088C59.651 38.5188 57.5148 39.0505 55.8586 40.3953C54.1542 41.7521 53.2094 43.906 53.0575 46.0676C52.9869 47.5819 52.9829 49.1407 53.4906 50.5877C53.7918 51.7022 54.4421 52.6808 55.195 53.5356C55.2536 53.549 55.3748 53.576 55.4348 53.5881C55.4535 53.6527 55.4908 53.7806 55.5094 53.8438C56.177 54.3338 56.8926 54.7605 57.6509 55.0916C58.8102 55.5049 60.0415 55.7054 61.2713 55.6718C61.9443 56.6073 62.5346 57.6007 63.1916 58.5484C63.4168 58.8014 63.1063 59.0572 62.9824 59.2726C62.4373 60.1192 61.8377 60.9309 61.342 61.8086C59.6216 61.8463 57.8934 61.5959 56.2461 61.0952C53.4637 60.235 50.909 58.4798 49.2807 56.0165C47.8589 53.9745 47.1193 51.5165 46.8635 49.0478C46.8248 48.5632 46.8821 48.0692 46.7635 47.5927C46.6502 47.2602 46.8062 46.9264 46.8275 46.5939C46.8701 43.0646 48.0974 39.4394 50.6318 36.948C51.9404 35.6087 53.5728 34.6287 55.2812 33.9019L55.2816 33.9021Z" fill="white"/>
<path d="M130.79 33.4694C134.251 32.3454 137.942 32.1152 141.549 32.3912C143.611 32.5998 145.692 32.8125 147.697 33.3603C147.7 41.99 147.696 50.6197 147.7 59.2508C147.685 59.5873 147.744 59.9386 147.655 60.2684C146.627 60.8472 145.623 61.4718 144.594 62.0466C143.926 61.5687 143.169 61.2376 142.487 60.7826C142.344 60.6991 142.203 60.5686 142.027 60.5968C141.849 60.4124 141.522 60.2872 141.522 59.9938C141.528 52.8407 141.518 45.6876 141.529 38.5321C139.173 38.1902 136.757 38.1269 134.405 38.5456C132.323 38.9548 130.226 39.9078 128.947 41.686C127.514 43.5893 127.188 46.0985 127.376 48.4245C127.422 48.7651 127.381 49.1527 127.617 49.4327C127.602 49.4892 127.571 49.601 127.557 49.6575C127.902 51.2405 128.676 52.7871 129.962 53.7913C131.212 54.8264 132.803 55.3487 134.385 55.5613C135.086 55.7269 135.823 55.564 136.516 55.7592C136.481 57.7783 136.522 59.7975 136.496 61.8151C132.762 61.8636 128.891 60.8931 125.943 58.4809C124.517 57.3192 123.384 55.8157 122.565 54.1655C121.09 51.0238 120.837 47.4042 121.387 44.0041C121.747 42.2327 122.329 40.472 123.338 38.9658C125.048 36.2845 127.817 34.4175 130.79 33.4699L130.79 33.4694Z" fill="white"/>
</svg>
