<svg width="193" height="96" viewBox="0 0 193 96" fill="none" xmlns="http://www.w3.org/2000/svg">
<path d="M96.8194 62.323C101.161 62.323 104.441 59.733 104.441 56.2797V54.2324C102.271 53.6157 100.026 53.3197 97.7814 53.3197C93.6374 53.3197 91.146 55.0464 91.146 57.9077C91.146 60.9417 94.0814 62.323 96.8194 62.323ZM90.6527 40.9123H98.0034C104.688 40.9123 108.363 44.341 108.363 50.5817V65.1597H104.392V62.1257C102.838 63.8524 100.223 65.653 96.104 65.653C91.7134 65.653 86.9774 63.2604 86.9774 58.0557C86.9774 53.1224 90.8747 50.187 97.3867 50.187C100.47 50.187 102.591 50.6064 104.367 51.0997V50.6557C104.367 46.783 102.024 44.6123 97.7567 44.563H90.6034V40.9123H90.6527ZM88.9754 45.1304H88.408C82.8827 45.1304 79.306 49.225 79.306 55.5644V65.1597H75.236V41.2083H79.3307V46.3883C81.378 42.7377 84.8067 40.641 88.704 40.8137H88.9754V45.1304ZM54.6887 51.6177H69.2914C68.872 47.9917 66.8 44.2177 62.064 44.2177C58.216 44.2177 55.2313 47.2517 54.6887 51.6177ZM62.138 40.715C68.9214 40.715 73.46 45.821 73.46 53.3937C73.46 53.7637 73.46 54.1337 73.4107 54.5037L73.386 54.7504H54.6887C55.2313 59.1657 58.4133 62.101 62.6807 62.101C65.5173 62.101 67.8114 61.0897 69.9327 58.8944L70.13 58.697L72.7447 61.0157L72.5474 61.2377C69.7354 64.3457 66.652 65.727 62.582 65.727C55.6753 65.727 50.4953 60.3497 50.4953 53.2457C50.4953 46.0924 55.5027 40.715 62.138 40.715ZM47.3133 57.3404L47.5107 57.1677L50.298 59.8564L50.1007 60.0537C47.3133 62.841 43.5887 65.7024 37.0767 65.7024C27.7527 65.7024 20.7227 58.549 20.7227 49.1017C20.7227 39.5803 27.8267 32.4023 37.2247 32.4023C43.564 32.4023 47.0913 34.8443 49.928 37.5083L50.1253 37.7057L47.264 40.7397L47.0667 40.5423C43.8847 37.5577 40.9247 36.275 37.2 36.275C30.2933 36.275 25.0887 41.751 25.0887 49.0277C25.0887 56.329 30.2933 61.8544 37.2 61.8544C41.6647 61.8297 44.4767 60.029 47.3133 57.3404ZM110.213 73.571C109.646 73.571 109.227 73.4477 108.857 73.0777L109.251 72.7077C109.523 72.979 109.843 73.0777 110.238 73.0777C110.731 73.0777 111.027 72.8557 111.027 72.5104L110.879 72.1157L110.46 71.9677L110.016 71.8937L109.301 71.5977L109.029 70.8824C109.029 70.2164 109.498 69.7724 110.312 69.7724C110.83 69.7724 111.175 69.8957 111.496 70.1917L111.126 70.5617C110.879 70.3397 110.608 70.2657 110.287 70.2657C109.843 70.2657 109.597 70.5124 109.597 70.8577L109.745 71.203L110.164 71.3757L110.583 71.4497C110.929 71.499 111.126 71.573 111.299 71.721L111.619 72.4857C111.595 73.1517 111.027 73.571 110.213 73.571ZM107.475 70.2904V73.5464H106.908V70.2904H105.847V69.7724H108.536V70.2904H107.475ZM104.047 73.571C103.479 73.571 103.06 73.4477 102.69 73.0777L103.085 72.7077C103.356 72.979 103.677 73.0777 104.047 73.0777C104.54 73.0777 104.836 72.8557 104.836 72.5104L104.688 72.1157L104.269 71.9677L103.825 71.8937L103.109 71.5977L102.838 70.8824C102.838 70.2164 103.307 69.7724 104.121 69.7724C104.639 69.7724 104.984 69.8957 105.305 70.1917L104.935 70.5617C104.688 70.3397 104.417 70.2657 104.096 70.2657C103.652 70.2657 103.405 70.5124 103.405 70.8577L103.553 71.203L103.973 71.3757L104.417 71.4497C104.762 71.499 104.959 71.573 105.132 71.721L105.453 72.4857C105.403 73.1517 104.836 73.571 104.047 73.571ZM101.457 69.7724H102.049V73.5464H101.457V69.7724ZM100.248 73.127C99.6807 73.6944 98.768 73.6944 98.2007 73.1517C97.8307 72.7817 97.8307 72.3624 97.8307 71.647C97.8307 70.9317 97.8307 70.5124 98.2007 70.1424C98.472 69.871 98.8174 69.723 99.212 69.7477C100.026 69.7477 100.495 70.2657 100.593 70.907H100.001C99.9027 70.4877 99.6314 70.241 99.1874 70.241L98.62 70.463C98.4227 70.6604 98.398 70.8824 98.398 71.6224C98.398 72.387 98.4474 72.609 98.62 72.8064L99.1874 73.0284L99.804 72.757L100.001 72.165V71.943H99.1874V71.4497H100.569V72.017C100.569 72.5597 100.495 72.8557 100.248 73.127ZM96.2767 70.4877L95.7094 70.2657L95.142 70.4877C94.9447 70.685 94.92 70.907 94.92 71.6717C94.92 72.4364 94.9694 72.6337 95.142 72.831L95.7094 73.053L96.2767 72.831C96.474 72.6337 96.4987 72.4117 96.4987 71.6717C96.4987 70.8824 96.474 70.685 96.2767 70.4877ZM96.7207 73.1517C96.1534 73.6944 95.2654 73.6944 94.698 73.1517C94.328 72.7817 94.328 72.3624 94.328 71.647C94.328 70.9317 94.328 70.5124 94.698 70.1424C95.2654 69.5997 96.1534 69.5997 96.7207 70.1424C97.0907 70.5124 97.0907 70.9317 97.0907 71.647C97.0907 72.3624 97.0907 72.7817 96.7207 73.1517ZM91.5407 73.5217V69.7477H92.1327V73.0037H93.9827V73.5217H91.5407ZM89.8634 70.4877C89.5427 70.1917 89.0494 70.1917 88.7287 70.4877C88.556 70.685 88.5067 70.907 88.5067 71.6717C88.5067 72.4364 88.556 72.6337 88.7287 72.831L89.296 73.053L89.8634 72.831C90.0607 72.6337 90.0854 72.4117 90.0854 71.6717C90.0854 70.8824 90.0607 70.685 89.8634 70.4877ZM90.3074 73.1517C89.74 73.6944 88.852 73.6944 88.3094 73.1517C87.9394 72.7817 87.9394 72.3624 87.9394 71.647C87.9394 70.9317 87.9394 70.5124 88.3094 70.1424C88.8767 69.5997 89.7647 69.5997 90.3074 70.1424C90.6774 70.5124 90.6774 70.9317 90.6774 71.647C90.6774 72.3624 90.6774 72.7817 90.3074 73.1517ZM86.4594 70.2904V73.5464H85.8674V70.2904H84.8314V69.7724H87.52V70.2904H86.4594ZM83.3267 70.611L82.7347 72.2884H83.9187L83.3267 70.611ZM84.3134 73.5217L84.042 72.757H82.5374L82.266 73.5217H81.6494L83.0554 69.7477H83.524L84.93 73.5217H84.3134ZM80.5394 73.5217V71.0057L79.6514 72.831H79.232L78.3194 71.0057V73.5217H77.7274V69.7477H78.3194L79.4294 72.091L80.5147 69.7477H81.082V73.5217H80.5394ZM75.68 70.2904H74.8167V71.4744H75.68C76.0747 71.4744 76.3214 71.2524 76.3214 70.8824C76.3214 70.5124 76.05 70.2904 75.68 70.2904ZM76.346 73.5217L75.532 71.943H74.8167V73.5217H74.2247V69.7477H75.7047C76.42 69.7477 76.8887 70.2164 76.8887 70.8577C76.9134 71.3264 76.5927 71.7457 76.124 71.869L76.9874 73.5217H76.346ZM70.9934 73.5217V69.7477H73.4354V70.2657H71.5854V71.3757H73.164V71.8937H71.5854V73.0284H73.4354V73.5464L70.9934 73.5217ZM69.3654 70.537L68.6994 70.2904H67.984V73.0284H68.6994L69.3654 72.7817C69.5627 72.5597 69.5627 72.165 69.5627 71.647C69.5627 71.1044 69.5627 70.759 69.3654 70.537ZM69.76 73.1764C69.5134 73.423 69.168 73.5217 68.7734 73.5217H67.4167V69.7477H68.7734C69.168 69.7477 69.538 69.871 69.76 70.093C70.1794 70.4877 70.1547 71.055 70.1547 71.5977C70.1547 72.165 70.1794 72.757 69.76 73.1764ZM64.5307 73.5217V71.869H63.0014V73.5217H62.4094V69.7477H63.0014V71.351H64.5554V69.7477H65.1474V73.5217H64.5307ZM60.6827 70.2904V73.5464H60.1153V70.2904H59.0547V69.7724H61.7433V70.2904H60.6827ZM57.8213 69.7724H58.4133V73.5464H57.8213V69.7724ZM56.2427 73.5217H55.7247L54.96 70.8824L54.1953 73.5217H53.702L52.7153 69.7477H53.332L53.9733 72.461L54.738 69.7724H55.2067L55.9713 72.461L56.6373 69.7724H57.254L56.2427 73.5217ZM50.224 70.537L49.558 70.2904H48.8427V73.0284H49.558L50.224 72.7817C50.4213 72.5597 50.4213 72.165 50.4213 71.647C50.4213 71.1044 50.4213 70.759 50.224 70.537ZM50.6187 73.1764C50.372 73.423 50.0267 73.5217 49.632 73.5217H48.2753V69.7477H49.632C50.0267 69.7477 50.3967 69.871 50.6187 70.093C51.038 70.4877 51.0133 71.055 51.0133 71.5977C51.0133 72.165 51.038 72.757 50.6187 73.1764ZM45.0193 73.5217V69.7477H47.4613V70.2657H45.6113V71.3757H47.19V71.8937H45.6113V73.0284H47.4613V73.5464L45.0193 73.5217ZM43.0953 70.2904H42.232V71.5484H43.0953C43.5147 71.5484 43.786 71.3264 43.786 70.9317C43.786 70.5124 43.5147 70.2904 43.0953 70.2904ZM43.1447 72.0417H42.2567V73.5217H41.6647V69.7477H43.1447C43.9093 69.7477 44.4027 70.241 44.4027 70.8824C44.378 71.573 43.9093 72.0417 43.1447 72.0417ZM39.9873 70.4877C39.6667 70.1917 39.1733 70.1917 38.8527 70.4877C38.6553 70.685 38.6307 70.907 38.6307 71.6717C38.6307 72.4364 38.68 72.6337 38.8527 72.831L39.42 73.053L39.9873 72.831C40.16 72.6337 40.2093 72.4117 40.2093 71.6717C40.2093 70.8824 40.16 70.685 39.9873 70.4877ZM40.4067 73.1517C40.1353 73.423 39.79 73.571 39.3953 73.5464C39.0253 73.5464 38.6553 73.3984 38.384 73.1517C38.014 72.7817 38.014 72.3624 38.014 71.647C38.014 70.9317 38.014 70.5124 38.384 70.1424C38.6553 69.871 39.0007 69.723 39.3953 69.7477C39.7653 69.7477 40.1353 69.8957 40.4067 70.1424C40.7767 70.5124 40.7767 70.9317 40.7767 71.647C40.7767 72.3624 40.8013 72.7817 40.4067 73.1517ZM35.2267 73.5217V69.7477H35.8187V73.0037H37.6687V73.5217H35.2267ZM31.9953 73.5217V69.7477H34.4373V70.2657H32.5873V71.3757H34.166V71.8937H32.5873V73.0284H34.4373V73.5464L31.9953 73.5217ZM30.1947 73.5217H29.7507L28.4927 69.7477H29.0847L29.9727 72.4857L30.8607 69.7477H31.4773L30.1947 73.5217ZM25.7053 73.5217V69.7477H28.1473V70.2657H26.2973V71.3757H27.876V71.8937H26.2973V73.0284H28.1473V73.5464L25.7053 73.5217ZM24.0773 70.537L23.4113 70.2904H22.696V73.0284H23.4113L24.0773 72.7817C24.2747 72.5597 24.2747 72.165 24.2747 71.647C24.2993 71.1044 24.2747 70.759 24.0773 70.537ZM24.4967 73.1764C24.25 73.423 23.9047 73.5217 23.51 73.5217H22.1533V69.7477H23.51C23.9047 69.7477 24.2747 69.871 24.4967 70.093C24.916 70.4877 24.8913 71.055 24.8913 71.5977C24.8667 72.165 24.916 72.757 24.4967 73.1764Z" fill="white"/>
<path d="M135.817 32.9422L124.569 59.7549L113.371 32.9422H108.709L122.719 65.3789H126.296L140.331 32.9422H135.817ZM153.207 51.6149H138.605C139.172 47.2488 142.157 44.2148 145.98 44.2148C150.691 44.2148 152.788 47.9888 153.207 51.6149ZM146.054 40.7122C139.419 40.7122 134.411 46.0895 134.411 53.1935C134.411 60.3222 139.616 65.6749 146.498 65.6749C150.593 65.6749 153.651 64.2935 156.463 61.1855L156.661 60.9635L154.046 58.6449L153.849 58.8422C151.727 61.0375 149.433 62.0489 146.597 62.0489C142.329 62.0489 139.147 59.1135 138.58 54.6982H157.277L157.302 54.4515C157.327 54.0815 157.351 53.7115 157.351 53.3415C157.376 45.8182 152.837 40.7122 146.054 40.7122ZM168.723 22.1875V74.2342H122.966L100.495 22.1875H168.723Z" fill="white"/>
</svg>
