<?xml version="1.0" encoding="UTF-8" standalone="no" ?>
<!DOCTYPE svg PUBLIC "-//W3C//DTD SVG 1.1//EN" "http://www.w3.org/Graphics/SVG/1.1/DTD/svg11.dtd">
<svg xmlns="http://www.w3.org/2000/svg" xmlns:xlink="http://www.w3.org/1999/xlink" version="1.1" width="512" height="161" viewBox="0 0 512 161" xml:space="preserve">
<desc>Created with Fabric.js 5.2.4</desc>
<defs>
</defs>
<rect x="0" y="0" width="100%" height="100%" fill="transparent"></rect>
<g transform="matrix(0 0 0 0 0 0)" id="84515dfa-5fa3-48f3-8d77-7ae9ba588d92"  >
</g>
<g transform="matrix(1 0 0 1 256 80.5)" id="b53e04b9-0ca4-4b0f-88b7-c7473ec5a432"  >
<rect style="stroke: none; stroke-width: 1; stroke-dasharray: none; stroke-linecap: butt; stroke-dashoffset: 0; stroke-linejoin: miter; stroke-miterlimit: 4; fill: rgb(255,255,255); fill-rule: nonzero; opacity: 1; visibility: hidden;" vector-effect="non-scaling-stroke"  x="-256" y="-80.5" rx="0" ry="0" width="512" height="161" />
</g>
<g transform="matrix(0.65 0 0 0.65 256 80.5)"  >
<g style="" vector-effect="non-scaling-stroke"   >
		<g transform="matrix(0.13 0 0 -0.13 -196.59 -2.65)"  >
<path style="stroke: none; stroke-width: 1; stroke-dasharray: none; stroke-linecap: butt; stroke-dashoffset: 0; stroke-linejoin: miter; stroke-miterlimit: 4; fill: rgb(0,0,0); fill-rule: nonzero; opacity: 1;" vector-effect="non-scaling-stroke"  transform=" translate(-1105.49, -813.26)" d="M 925 1594 C 776 1558 586 1435 415 1265 C 147 999 8 719 6 445 C 5 289 51 186 153 117 C 281 30 422 28 762 109 C 1106 191 1247 206 1379 175 C 1464 155 1535 115 1578 63 L 1613 21 L 1644 52 C 1695 103 1743 120 1845 120 C 1952 120 2027 103 2130 54 L 2205 19 L 2176 49 C 2130 97 1982 199 1905 236 C 1789 291 1723 305 1570 304 C 1412 303 1306 285 973 205 C 690 138 617 126 510 132 C 249 147 160 338 266 657 C 388 1020 776 1468 1024 1531 C 1063 1541 1074 1540 1095 1526 C 1110 1516 1120 1500 1120 1485 C 1120 1465 1113 1459 1081 1450 C 1017 1433 976 1364 999 1314 C 1037 1229 1180 1382 1167 1496 C 1156 1596 1073 1629 925 1594 z" stroke-linecap="round" />
</g>
		<g transform="matrix(0.13 0 0 -0.13 100.36 -4)"  >
<path style="stroke: none; stroke-width: 1; stroke-dasharray: none; stroke-linecap: butt; stroke-dashoffset: 0; stroke-linejoin: miter; stroke-miterlimit: 4; fill: rgb(0,0,0); fill-rule: nonzero; opacity: 1;" vector-effect="non-scaling-stroke"  transform=" translate(-3329.61, -823.89)" d="M 3353 1576 C 3087 1490 2779 1223 2557 885 C 2384 621 2315 382 2365 214 C 2384 148 2438 86 2495 64 C 2567 37 2672 48 2763 93 C 2981 201 3196 528 3177 724 C 3173 764 3166 779 3140 803 C 3111 829 3101 832 3061 828 C 2895 811 2733 617 2695 390 L 2688 346 L 2741 394 C 2771 421 2818 456 2846 471 C 2888 495 2899 507 2909 543 C 2952 685 3071 794 3120 735 C 3152 696 3108 537 3034 423 C 2975 333 2852 214 2786 184 C 2681 136 2596 174 2570 279 C 2532 439 2696 807 2939 1103 C 3023 1207 3203 1376 3295 1439 C 3406 1516 3518 1559 3543 1534 C 3546 1530 3521 1507 3487 1482 C 3263 1317 3130 1079 3215 995 C 3325 884 3616 1192 3637 1441 C 3643 1506 3644 1508 3672 1512 C 3751 1524 3853 1484 4010 1382 C 4057 1352 4117 1314 4144 1298 L 4193 1269 L 4254 1329 C 4287 1362 4312 1391 4310 1393 C 4285 1413 4036 1548 3989 1567 C 3899 1603 3797 1608 3692 1582 C 3611 1561 3610 1561 3568 1580 C 3511 1606 3441 1604 3353 1576 z M 3575 1372 C 3527 1207 3370 1020 3278 1020 C 3149 1020 3332 1332 3535 1460 L 3585 1491 L 3588 1460 C 3590 1443 3584 1404 3575 1372 z" stroke-linecap="round" />
</g>
		<g transform="matrix(0.13 0 0 -0.13 182.69 -2.72)"  >
<path style="stroke: none; stroke-width: 1; stroke-dasharray: none; stroke-linecap: butt; stroke-dashoffset: 0; stroke-linejoin: miter; stroke-miterlimit: 4; fill: rgb(0,0,0); fill-rule: nonzero; opacity: 1;" vector-effect="non-scaling-stroke"  transform=" translate(-3943.96, -814.26)" d="M 4643 1576 C 4541 1544 4349 1381 4173 1176 C 4026 1005 3927 859 3810 638 C 3752 528 3746 520 3709 509 C 3688 502 3668 499 3665 502 C 3662 504 3672 536 3686 571 C 3703 611 3715 662 3718 707 C 3722 774 3721 780 3697 804 C 3554 947 3095 478 3088 183 C 3085 48 3168 6 3297 80 C 3381 128 3499 247 3570 358 C 3634 456 3636 458 3678 462 C 3701 464 3720 463 3720 459 C 3720 456 3706 414 3689 364 C 3670 307 3656 246 3653 195 C 3648 119 3649 113 3674 84 C 3727 19 3801 35 3908 135 L 3970 192 L 3970 161 C 3970 108 3994 64 4030 51 C 4078 35 4128 52 4205 110 L 4270 159 L 4270 124 C 4270 83 4307 40 4342 40 C 4431 40 4632 221 4755 413 C 4772 440 4772 440 4747 440 C 4728 440 4712 427 4684 388 C 4583 249 4460 150 4460 208 C 4460 218 4537 356 4630 514 C 4724 672 4800 804 4800 806 C 4800 808 4766 810 4724 810 C 4663 810 4645 806 4635 793 C 4623 778 4620 778 4590 803 C 4548 839 4508 838 4430 798 C 4336 751 4228 636 4081 427 C 3963 258 3895 180 3867 180 C 3824 180 3820 236 3855 349 C 3905 506 3917 524 4034 611 C 4165 710 4335 872 4458 1015 C 4572 1148 4579 1160 4548 1160 C 4531 1160 4505 1136 4450 1069 C 4321 912 4012 625 3992 644 C 3985 651 4110 867 4193 990 C 4335 1203 4523 1419 4635 1495 C 4723 1556 4739 1529 4683 1416 L 4658 1367 L 4682 1373 C 4694 1377 4708 1380 4712 1380 C 4724 1380 4760 1489 4760 1525 C 4760 1549 4753 1564 4738 1574 C 4712 1593 4699 1593 4643 1576 z M 3666 735 C 3677 718 3680 700 3675 671 C 3668 631 3616 510 3605 510 C 3585 510 3536 546 3520 573 C 3487 627 3493 666 3544 716 C 3596 769 3639 776 3666 735 z M 4586 736 C 4597 707 4339 299 4266 232 C 4217 187 4200 181 4180 205 C 4144 248 4250 452 4396 625 C 4485 730 4569 779 4586 736 z M 3548 484 C 3567 473 3578 460 3575 452 C 3566 428 3502 336 3464 291 C 3426 247 3347 190 3324 190 C 3299 190 3280 222 3280 265 C 3280 313 3344 450 3406 533 L 3441 582 L 3478 543 C 3498 521 3530 495 3548 484 z" stroke-linecap="round" />
</g>
		<g transform="matrix(0.13 0 0 -0.13 292.17 -76.8)"  >
<path style="stroke: none; stroke-width: 1; stroke-dasharray: none; stroke-linecap: butt; stroke-dashoffset: 0; stroke-linejoin: miter; stroke-miterlimit: 4; fill: rgb(0,0,0); fill-rule: nonzero; opacity: 1;" vector-effect="non-scaling-stroke"  transform=" translate(-4752.4, -1384.43)" d="M 5015 1514 C 4876 1402 4703 1330 4568 1330 L 4512 1330 L 4457 1268 C 4427 1233 4404 1202 4406 1198 C 4415 1184 4563 1189 4625 1205 C 4761 1240 4926 1347 5018 1460 C 5060 1512 5106 1581 5098 1579 C 5096 1579 5059 1549 5015 1514 z" stroke-linecap="round" />
</g>
		<g transform="matrix(0.13 0 0 -0.13 -148.08 -2.95)"  >
<path style="stroke: none; stroke-width: 1; stroke-dasharray: none; stroke-linecap: butt; stroke-dashoffset: 0; stroke-linejoin: miter; stroke-miterlimit: 4; fill: rgb(0,0,0); fill-rule: nonzero; opacity: 1;" vector-effect="non-scaling-stroke"  transform=" translate(-1464.94, -825.51)" d="M 969 1188 C 890 1149 727 989 656 882 C 526 685 502 496 600 445 C 641 424 667 426 735 459 C 842 510 954 621 1056 778 C 1108 858 1119 869 1149 874 C 1168 877 1186 878 1187 876 C 1189 874 1173 837 1152 794 C 1065 619 1071 499 1171 447 C 1248 406 1361 446 1502 565 L 1580 631 L 1572 598 C 1568 580 1565 546 1565 523 C 1566 409 1698 406 1820 517 L 1860 552 L 1860 512 C 1860 480 1866 467 1886 451 C 1901 439 1922 430 1934 430 C 2006 430 2166 566 2298 738 C 2359 817 2360 820 2335 820 C 2317 820 2300 809 2282 788 C 2188 672 2073 570 2056 587 C 2040 604 2062 647 2220 911 L 2390 1195 L 2313 1198 C 2271 1200 2233 1197 2227 1191 C 2221 1185 2205 1189 2184 1202 C 2082 1262 1925 1147 1687 838 C 1577 695 1467 587 1406 559 C 1353 535 1339 535 1306 561 C 1285 578 1280 590 1280 628 C 1280 725 1400 938 1517 1052 C 1601 1133 1643 1156 1676 1141 C 1710 1126 1707 1093 1671 1085 C 1609 1072 1560 982 1595 946 C 1618 923 1648 933 1687 977 C 1726 1020 1754 1099 1745 1139 C 1731 1206 1651 1236 1566 1207 C 1508 1187 1457 1151 1345 1050 C 1260 974 1159 909 1152 928 C 1151 932 1159 962 1170 995 C 1181 1027 1190 1078 1190 1107 C 1190 1154 1186 1166 1161 1191 C 1119 1232 1056 1231 969 1188 z M 1125 1133 C 1147 1111 1141 1035 1111 968 C 1089 916 1077 911 1026 935 C 942 975 945 1077 1033 1130 C 1072 1154 1103 1155 1125 1133 z M 2179 1137 C 2187 1127 2164 1080 2079 939 C 1917 667 1840 574 1787 582 C 1715 592 1801 772 1991 1010 C 2053 1088 2126 1150 2156 1150 C 2162 1150 2172 1144 2179 1137 z M 1010 891 L 1060 869 L 1033 827 C 964 716 884 628 827 599 C 791 580 787 580 763 595 C 740 610 738 617 742 659 C 748 719 787 804 852 902 L 904 979 L 932 946 C 947 928 982 903 1010 891 z" stroke-linecap="round" />
</g>
		<g transform="matrix(0.13 0 0 -0.13 -0.56 -43.11)"  >
<path style="stroke: none; stroke-width: 1; stroke-dasharray: none; stroke-linecap: butt; stroke-dashoffset: 0; stroke-linejoin: miter; stroke-miterlimit: 4; fill: rgb(0,0,0); fill-rule: nonzero; opacity: 1;" vector-effect="non-scaling-stroke"  transform=" translate(-2551, -1134.99)" d="M 2476 1141 C 2456 1109 2440 1080 2440 1076 C 2440 1073 2471 1070 2509 1070 C 2585 1070 2582 1067 2639 1163 L 2662 1200 L 2587 1200 L 2511 1200 L 2476 1141 z" stroke-linecap="round" />
</g>
</g>
</g>
</svg>