<svg
	xmlns="http://www.w3.org/2000/svg"
	width="102"
	height="72"
	viewBox="0 0 102 72"
	fill="none"
>
	<g fill="currentColor" clip-path="url(#a)">
		<path
			d="M83.077 32.267c6.794 0 12.198-5.1 12.198-11.278 0-6.178-5.404-11.278-12.198-11.278H18.923c-6.794 0-12.198 5.1-12.198 11.278 0 6.178 5.404 11.278 12.198 11.278h64.171-.017ZM72.251 33.85l-1.372 3.742H31.938l1.373-3.742h-1.564l-1.373 3.742H19.062l1.373-3.742h-1.53c-7.558 0-13.796-5.709-13.796-12.862 0-7.153 6.238-12.861 13.797-12.861h10.982L32.894 0h11.312L41.2 8.128h1.564L45.77 0h38.94l-3.006 8.128h1.373c7.559 0 13.797 5.708 13.797 12.861 0 7.153-6.238 12.862-13.797 12.862H72.251ZM41.043 16.673h-2.85v3.968h2.85c1.112-.052 1.547-.766 1.564-1.984 0-1.323-.851-1.984-1.564-1.984Zm-6.863-3.62h7.246c3.162-.14 5.247 2.593 5.16 5.743-.087 3.36-1.79 5.308-4.848 5.465-.747.035-2.988.052-3.527.07v2.767c0 1.114-.504 2.019-2.103 2.019h-1.911V13.036l-.017.017Zm37.741 3.655h-8.427v-1.149c0-2.297 1.477-2.506 4.031-2.506h6.586c1.703 0 3.11 1.549 2.728 3.202-.296 1.288-1.078 2.263-2.242 3.446l-3.892 4.003a39.35 39.35 0 0 0-1.477 1.636h6.968v1.758c-.017 1.114-.973 2.019-2.328 2.019h-10.93v-2.054c0-.8.712-1.95 1.372-2.593.66-.644 7.299-7.362 7.611-7.762Zm-16.507 8.841c2.241.035 3.58-2.088 3.58-4.525 0-2.82-1.321-4.612-3.58-4.577-2.224.035-3.44 1.688-3.44 4.577 0 2.436 1.233 4.473 3.44 4.525Zm.139-12.757c4.5.035 8.097 3.568 8.097 8.232s-3.718 8.232-8.236 8.18c-4.483-.052-8.063-3.62-8.063-8.18s3.684-8.267 8.219-8.232h-.017Zm-29.592.244c1.007 0 1.894.696 1.91 2.158v10.094h5.249v1.827c0 1.114-1.13 2.02-2.45 2.02h-4.9c-1.478 0-2.26-.923-2.26-2.02v-14.08h2.45Zm-3.597 9.258v3.533c0 .992-1.703 3.394-5.908 3.394-3.702 0-7.264-2.61-7.264-7.97 0-5.013 3.406-8.46 7.68-8.46 2.607 0 5.335 1.01 5.457 4.37.087 2.47-1.651 4.524-5.7 6.334l-2.19.853c.088.105 1.79 2.454 5.231.453a7.15 7.15 0 0 0 2.52-2.507s.052-.104.121-.104c.07 0 .07.122.07.122l-.017-.018Zm-4.71-4.455c.035-1.114-1.216-1.67-2.536-.87-1.564.922-1.634 3.655-1.634 3.655.539-.14 1.512-.366 2.26-.714 1.094-.505 1.893-1.34 1.91-2.088v.017Zm67.126-5.047c4.5.035 8.097 3.568 8.097 8.232s-3.718 8.232-8.236 8.18c-4.483-.052-8.063-3.62-8.063-8.18s3.684-8.267 8.22-8.232h-.018Zm-.14 12.757c2.242.035 3.58-2.088 3.58-4.525 0-2.82-1.32-4.612-3.58-4.577-2.223.035-3.44 1.688-3.44 4.577 0 2.436 1.234 4.473 3.44 4.525ZM41.304 50.628c2.016-2.698 4.31-4.803 10.026-5.552 1.929-.243 4.101-.209 5.595.261l.748-4.908-2.676 2.037-2.086-3.429-2.589 4.125-2.815-3.377-1.633 4.665-3.528-2.385-.712 4.108-3.162-.262 2.64 4.3.227.417h-.035ZM11.051 69.494 5.265 59.05h-.07v11.104L0 70.747V42.465l5.196-.591V57.85h.07l5.89-10.773 5.456-.627-6.655 11.086 7.09 11.26-5.978.68-.018.017ZM20.99 48.07c-1.494.174-2.692-.766-2.692-2.106 0-1.34 1.198-2.506 2.693-2.68 1.494-.175 2.693.73 2.693 2.07 0 1.34-1.199 2.541-2.693 2.716Zm-2.953 20.467V50.993l5.074-.574v17.543l-5.074.575ZM35.135 66.379V54.492c0-1.915-.816-2.768-2.832-2.541-.782.087-1.39.295-2.016.591v14.393l-5.074.575V50.906c1.981-1.079 4.38-1.775 7.09-2.088 5.526-.627 7.889 1.34 7.889 5.117v11.852l-5.074.574.017.017Z"
		></path>
		<path
			d="M49.071 71.878c-2.572.296-5.108.035-6.533-.591l1.303-3.43c1.112.453 2.728.732 4.327.54 2.658-.313 3.631-1.844 3.631-3.898v-.783c-.625.365-1.564.73-3.058.905-4.327.487-7.211-2.454-7.211-7.71 0-5.952 3.284-9.781 9.157-10.46 2.242-.261 4.588-.07 6.134.574v16.412c0 4.978-2.989 7.902-7.767 8.441h.017ZM51.8 49.601c-.417-.139-.973-.174-1.598-.104-2.503.278-3.667 2.593-3.667 6.578 0 3.986 1.112 5.726 3.58 5.448a3.786 3.786 0 0 0 1.685-.592v-11.33ZM91.07 45.39c-.4.052-.764.156-1.06.313v8.127c.226.035.539.07.921.018 1.877-.227 2.71-1.81 2.71-4.543 0-2.732-.677-4.142-2.588-3.898l.017-.018Z"
		></path>
		<path
			d="M96.526 41.126c-2.015-3.969-5.855-3.29-9.087-2.89L66.118 40.76c-3.25.383-5.891 3.15-5.891 6.144v15.071c0 2.994 2.659 5.134 5.89 4.752l21.322-2.524c3.249-.383 5.96.627 8.288-3.307L102 49.897l-5.456-8.771h-.018Zm-23.04 17.873c-1.148.68-3.111 1.306-4.988 1.532-3.51.435-5.3-.644-5.3-3.672v-9.555l3.528-.435v9.729c0 1.183.625 1.723 1.807 1.566a4.178 4.178 0 0 0 1.407-.435V45.65l3.528-.436V59h.017Zm6.602-1.984c-.73.087-1.407.105-1.772 0v4.926l-3.528.435V45.912c1.338-.784 2.92-1.236 4.623-1.445 3.805-.47 6.047 1.427 6.047 5.517s-2.172 6.631-5.37 7.031Zm11.677-1.166c-.73.087-1.407.105-1.772 0v4.926l-3.528.435V44.745c1.338-.783 2.92-1.235 4.623-1.444 3.805-.47 6.047 1.427 6.047 5.517s-2.172 6.63-5.37 7.031Z"
		></path>
		<path
			d="M79.393 46.555c-.4.053-.764.157-1.06.314v8.127c.226.035.539.07.921.018 1.877-.227 2.71-1.81 2.71-4.543 0-2.732-.677-4.142-2.588-3.898l.017-.018Z"
		></path>
	</g>
	<defs>
		<clipPath id="a">
			<path fill="currentColor" d="M0 0h102v72H0z"></path>
		</clipPath>
	</defs>
</svg>
