<svg width="193" height="96" viewBox="0 0 193 96" fill="none" xmlns="http://www.w3.org/2000/svg">
<path d="M73.6423 14.8119C73.6423 14.8119 74.8128 15.3591 74.7762 15.3409C76.7697 14.4107 76.6051 12.0942 76.4405 11.6382C76.3674 11.4376 76.221 11.2187 76.0016 11.2917C75.7455 11.3647 75.7272 11.5835 75.7455 11.7842C75.9467 13.4622 74.9774 14.593 73.6423 14.8302V14.8119Z" fill="white"/>
<path d="M52.2628 16.4533C52.9943 16.6175 53.5978 16.7999 54.3843 17.2376C55.1524 15.5414 55.7742 14.9212 56.1583 14.1916C56.1766 14.1369 56.1766 14.0822 56.1583 14.0275C54.0916 11.5651 51.9702 15.3225 52.2628 16.4533Z" fill="white"/>
<path d="M53.3784 65.4079C53.415 65.8639 53.4881 66.2287 53.6161 66.5023L57.2922 66.174L56.8532 73.9805L56.6338 74.1082C55.573 74.7648 54.366 75.1478 52.9395 75.2573C52.72 75.2755 52.5188 75.2937 52.3176 75.2937C49.1537 75.2937 47.3431 73.0503 46.959 68.6181C46.7396 66.1558 46.831 63.8029 47.2517 61.6506C47.6723 59.4254 48.5319 57.5102 49.7938 55.9416C51.1289 54.2819 52.7749 53.3881 54.8598 53.2057C55.0792 53.1875 55.2987 53.1692 55.4999 53.1692C57.1824 53.1692 58.7187 53.7529 60.0903 54.9202C61.6997 54.3001 62.6142 52.9139 62.6873 50.9623C60.9682 49.4849 58.4261 48.6094 55.8291 48.6094C55.4999 48.6094 55.1707 48.6094 54.8415 48.6459H54.7135C50.7265 49.0106 47.2882 50.8711 44.7644 54.0812C41.6553 58.0027 40.2471 63.6205 40.8689 69.5118C41.4724 76.3699 44.9473 79.9995 50.9094 79.9995C51.3666 79.9995 51.8421 79.9813 52.3359 79.9266C54.2379 79.7624 56.0485 79.2882 57.8774 78.5039C59.7063 77.7014 61.0962 76.8623 62.1204 75.8957L62.9068 61.7418L53.9088 62.5261C53.4698 63.3651 53.2869 64.2953 53.3967 65.3897L53.3784 65.4079Z" fill="white"/>
<path d="M74.4837 12.549C74.63 11.9471 74.4654 11.2723 74.3923 11.1628C74.3191 11.0169 74.2094 10.9439 74.0631 11.0169C73.9168 11.0716 73.9533 11.2905 73.9533 11.2905C74.0448 12.3484 73.3498 13.2239 73.3498 13.2239C72.8743 13.8258 72.2342 14.1176 71.777 14.2635C71.7038 14.2635 72.9658 14.5554 72.9658 14.5554C73.7156 14.1541 74.3008 13.2968 74.4837 12.5673V12.549Z" fill="white"/>
<path d="M48.8246 19.3535C48.8246 19.3535 49.1172 19.2623 49.2087 19.2441C51.257 18.6969 53.4699 19.2806 53.5065 19.2806C57.4203 17.2925 46.0081 15.049 48.8063 19.3718H48.8246V19.3535Z" fill="white"/>
<path d="M48.8978 22.4008C49.0075 22.3461 49.1173 22.2914 49.2453 22.2549C51.0559 21.653 53.6346 22.3644 53.7077 22.3826C58.2433 19.0083 44.9109 18.5158 48.8978 22.3826V22.4008Z" fill="white"/>
<path d="M90.5777 33.5608C90.9435 33.4331 91.5287 33.4149 92.3334 33.5973C92.37 33.5243 93.2113 31.9375 91.8396 30.8978C91.5653 30.6789 91.1264 30.533 90.4497 30.7154C90.34 30.7519 90.1205 30.8249 90.2119 31.1714C90.2119 31.1714 90.5046 32.4299 90.5594 33.579L90.5777 33.5608Z" fill="white"/>
<path d="M89.6267 37.358C89.6267 37.358 91.9311 37.6681 92.8821 38.58C92.937 38.6165 93.0467 38.7624 93.065 38.7807C97.0885 37.3033 87.3589 33.6918 89.6267 37.358Z" fill="white"/>
<path d="M75.0688 15.506C75.0688 15.506 76.4954 16.3268 76.4588 16.3085C76.4588 16.3085 78.1596 16.3268 78.6717 13.7003C78.7083 13.4996 78.6717 13.1896 78.3608 13.2078C78.1596 13.2078 78.0682 13.4267 78.0133 13.5908C77.7573 14.4116 77.3549 14.8858 76.8794 15.1959C76.7514 15.2689 76.6234 15.3418 76.4771 15.3783C76.1296 15.4877 75.3615 15.4877 75.0688 15.4877V15.506Z" fill="white"/>
<path d="M90.6691 35.2755C90.7057 35.2755 92.4249 35.5856 93.7782 36.4975C93.7782 36.4975 93.9977 36.6617 94.016 36.6799C97.2714 34.6006 88.5659 32.649 90.6508 35.2573L90.6691 35.2755Z" fill="white"/>
<path d="M80.2081 31.7369C80.4641 31.7734 80.7019 31.6093 80.7384 31.3539C80.775 31.0986 80.5921 30.8614 80.3544 30.825C80.0983 30.7885 79.8606 30.9709 79.824 31.2262C79.7874 31.4816 79.9703 31.7187 80.2264 31.7552L80.2081 31.7369Z" fill="white"/>
<path d="M80.4091 34.1074C80.9944 34.1986 81.543 33.7791 81.6345 33.1955C81.7259 32.6118 81.3053 32.0646 80.7201 31.9734C80.1348 31.8822 79.5861 32.3017 79.513 32.8854C79.4216 33.469 79.8422 34.0162 80.4274 34.1074H80.4091Z" fill="white"/>
<path d="M85.1276 38.1597C85.1276 28.4562 81.0492 21.5617 79.9153 28.967C82.0551 26.3769 83.0061 32.9067 82.622 36.208C84.3411 37.3571 85.1276 38.1597 85.1276 38.1597Z" fill="white"/>
<path d="M65.7233 50.3964C65.6135 49.2838 65.5221 47.7882 65.5221 47.7699C65.5221 47.7335 65.5587 47.697 65.5952 47.697C65.6318 47.697 65.6684 47.7335 65.6684 47.7699C65.6684 47.8247 65.8513 52.5669 68.3203 53.0411C71.4476 53.6248 73.5691 51.3631 73.7886 51.1078C73.8069 51.0713 73.8617 51.0713 73.8983 51.1078C73.9349 51.126 73.9349 51.1807 73.9349 51.2172C73.88 51.3266 73.6423 51.7279 73.624 51.7461L73.0753 52.348C73.1119 52.3298 73.1485 52.3116 73.1851 52.2933C74.7762 51.3814 76.3673 51.3996 76.3673 51.3996C77.6841 50.7977 80.5554 49.2473 81.3967 48.2806C82.6769 46.8215 83.5547 45.2711 84.1583 43.6296C84.1949 43.5201 84.2314 43.4289 84.268 43.3195C84.8532 41.3861 85.0361 39.7446 85.0727 39.1609C85.0727 39.1062 85.0727 39.0697 85.0727 39.015C85.0727 38.9603 85.0727 38.9238 85.0727 38.9238L84.7435 38.6684C84.1766 38.2307 83.0061 37.3552 81.8173 36.4979C80.3176 35.4218 78.946 34.674 78.8911 34.6375L78.7814 34.5828V34.5281C78.8911 33.9626 78.946 33.1236 79.0191 32.1387C79.202 29.5122 79.4215 26.2473 80.6834 25.3718C81.0126 25.1347 81.3967 25.0983 81.8356 25.2259C82.0916 25.3171 82.1831 25.3901 82.2745 25.4813C82.3111 25.5178 82.3477 25.5542 82.366 25.5907C81.8722 24.5693 81.3967 23.7303 81.0492 23.1284C80.9395 23.0919 80.7017 23.0554 80.4822 23.3108C80.4822 23.3108 80.2079 23.6573 80.1165 23.8944C80.0799 23.9674 80.0067 24.0951 79.8604 24.0951C79.7324 24.0768 79.641 24.0039 79.6044 23.8215C79.4947 23.2196 79.8604 22.4718 80.5005 22.2164C77.4829 17.5106 73.5142 14.8477 69.4724 14.8477C67.2961 14.8477 65.1014 15.632 63.0348 17.2735C60.5293 19.061 59.9989 23.402 59.9989 23.402C59.7429 24.7699 59.5051 26.1014 59.5051 26.1014C59.3588 26.7398 59.0845 27.3417 58.7736 27.8889C59.3588 28.3449 60.1635 28.7097 60.9682 29.038L60.8036 29.1839C59.9989 29.0015 59.2491 28.6732 58.5541 28.2354C58.5541 28.2354 58.5175 28.2172 58.4992 28.199C58.4078 28.1442 58.2981 28.0895 58.2249 28.0166C58.1517 27.9436 58.0603 27.8889 57.9689 27.8159C57.8408 27.7247 57.7311 27.6335 57.6214 27.5241C57.5848 27.4876 57.5482 27.4694 57.5116 27.4329C56.268 26.3385 55.3353 24.8611 54.8964 23.329C54.8964 23.329 54.8964 23.402 54.9329 23.5297C55.4816 26.1014 51.897 25.7002 50.5619 25.4083C54.5123 25.5907 56.0668 23.0189 51.4032 22.7454C44.5267 22.5265 50.5436 28.0166 54.7866 25.6454C54.0368 26.2291 54.2197 28.4543 54.75 29.4575C54.8964 29.7493 55.0792 30.0229 55.2438 30.2783C55.445 30.5701 55.6279 30.8255 55.8291 31.0808C56.3412 31.7009 56.835 32.1752 57.1276 32.4305L57.0544 32.4852C57.0544 32.4852 56.3046 32.1934 55.4633 31.4274C51.1106 35.6772 50.6168 41.4956 54.6586 46.2561C58.6821 46.4385 60.3281 46.3837 63.4372 48.4083C64.0773 48.8278 65.6867 50.4511 65.6867 50.4511L65.7233 50.3964ZM79.641 36.2608C79.8239 36.5162 80.2811 37.3917 79.8056 37.4829C79.4398 37.5558 79.5312 36.8992 78.7814 36.3155C78.0133 35.7136 77.5012 35.6224 76.221 35.586C76.0381 35.586 75.8552 35.4765 75.8918 35.2576C75.9649 34.4733 78.5254 34.7287 79.641 36.2791V36.2608ZM69.5456 17.1823C69.5456 17.1823 69.7102 16.1974 70.6246 15.942C70.6612 15.942 71.6671 15.6684 72.3621 16.1062C72.3804 16.1062 73.0387 16.5074 73.2033 16.6534C73.3131 16.7446 73.3679 16.8722 73.3679 16.9999C73.3679 17.0729 73.3497 17.1458 73.2948 17.2006C73.1668 17.3282 72.9839 17.2917 72.8741 17.237C72.2706 16.9452 71.722 16.854 71.3379 16.9634C70.6795 17.1458 70.1308 17.4924 70.0211 17.5836C69.948 17.6383 69.8748 17.6565 69.8016 17.6565C69.7102 17.6565 69.6188 17.6201 69.5639 17.5653C69.4724 17.4924 69.509 17.2735 69.5273 17.1823H69.5456ZM61.3706 36.7898C61.3706 36.7898 61.3706 36.735 61.3888 36.735C61.9558 36.8627 63.8395 37.1728 65.833 36.6256C65.833 36.6256 67.8813 36.1514 68.7592 34.5281C68.7592 34.5281 70.8624 29.7858 64.1687 28.655C64.1321 28.655 64.1321 28.6185 64.1687 28.6002C64.5162 28.5455 65.6501 28.4908 66.8023 28.7644C66.8023 28.7644 66.6743 28.0895 66.7109 27.1411C66.784 25.2442 67.0766 22.5265 68.558 20.4837C69.1067 19.7176 70.3686 18.3861 72.2889 18.8786C73.1668 19.0792 75.0688 20.0094 76.4587 23.3837C76.4587 23.3837 78.5619 27.9801 77.8487 34.1268C77.8487 34.1268 73.9349 32.2481 69.7834 31.6645C69.7834 31.6645 70.204 33.6708 69.3078 35.1847C70.1308 36.0419 71.7585 37.4464 74.7213 39.1062C74.7213 39.1062 77.2269 40.6748 80.4091 40.9301C82.7683 41.1125 83.1524 39.8722 83.6645 40.2188C84.1766 40.5653 82.3294 41.7327 80.848 43.283C79.8239 44.3409 77.867 46.3473 77.044 47.2045C76.1661 48.1165 74.9773 49.3932 73.2399 50.5059C72.5084 50.9801 71.3562 51.7644 69.7468 51.126C69.7468 51.126 68.0094 50.5241 68.3934 48.2259C68.3934 48.2259 68.686 46.0007 69.0884 44.195C69.0884 44.195 70.1674 39.5439 68.9969 36.3885C68.9969 36.3885 68.9055 36.1514 68.7592 35.8596C68.1191 36.4797 66.912 37.3369 65.0832 37.5193C65.0832 37.5193 62.9434 37.72 61.3888 36.808L61.3706 36.7898Z" fill="white"/>
<path d="M117.755 51.0339C116.712 51.1251 115.908 51.3439 115.304 51.727L114.572 63.5097V63.5462C113.695 64.9324 112.78 65.6619 111.738 65.7531C111.646 65.7531 111.573 65.7531 111.5 65.7531C111.006 65.7531 110.64 65.6072 110.366 65.3154C110.019 64.9324 109.872 64.294 109.945 63.4367L110.64 52.11C110.201 51.9276 109.653 51.8182 109.013 51.8182C108.812 51.8182 108.592 51.8182 108.354 51.8546C107.348 51.9458 106.544 52.1647 105.867 52.5477L105.154 64.7135C105.044 66.4098 105.41 67.7595 106.233 68.635C106.891 69.3281 107.842 69.7111 108.976 69.7111C109.141 69.7111 109.305 69.7111 109.47 69.6929C111.207 69.5469 113.091 68.3796 114.262 66.7563L114.463 66.4827L114.847 68.1425C115.304 68.3614 115.816 68.4891 116.401 68.4891C116.548 68.4891 116.676 68.4891 116.822 68.4708C117.627 68.3979 118.395 68.1607 119.017 67.7777L120.041 51.3075C119.602 51.1251 119.053 51.0156 118.413 51.0156C118.212 51.0156 117.992 51.0156 117.755 51.0521V51.0339Z" fill="white"/>
<path d="M105.666 46.3107C105.629 45.9824 105.538 45.6541 105.373 45.3075C104.66 45.0522 103.837 44.9062 102.941 44.9062C102.648 44.9062 102.337 44.9063 102.026 44.9427C100.216 45.1069 98.716 45.7453 97.5821 46.8579C96.3933 48.0252 95.7532 49.4114 95.6435 51.1077L95.5886 52.202C95.5886 52.4939 95.4058 52.731 95.168 52.7857L93.2477 52.9499C92.8819 53.5335 92.7356 54.7191 92.7905 55.394C92.8271 55.7952 92.9185 56.1418 93.0648 56.4518L95.3509 56.2512L94.3267 73.3781C94.7657 73.5787 95.3143 73.6882 95.991 73.6882C96.1922 73.6882 96.3933 73.6882 96.6128 73.6517C97.6187 73.5605 98.46 73.3234 99.1001 72.9403L100.124 55.9047L103.215 55.6311C103.617 54.7921 103.782 53.9713 103.727 53.187C103.691 52.731 103.599 52.3844 103.471 52.1473L99.9779 52.3844L100.069 51.1624C100.216 49.612 101.02 48.773 102.483 48.6453C102.666 48.6453 102.831 48.6271 103.014 48.6271C103.489 48.6271 103.965 48.6818 104.44 48.7913C105.373 48.1529 105.775 47.3321 105.684 46.2925L105.666 46.3107Z" fill="white"/>
<path d="M93.0466 39.3799C91.236 37.0817 85.4385 37.6654 90.9982 40.3284C90.1021 40.1095 87.249 39.5441 88.4012 37.7566C88.4561 37.6836 88.4744 37.6289 88.4744 37.6289C87.7611 38.5044 86.8101 39.2157 85.7494 39.6352C85.5848 41.1674 85.2007 42.4624 85.0178 43.0825C86.737 42.4077 88.4195 40.146 87.8343 39.1793C88.4927 40.456 92.9185 41.6781 93.0466 39.3799Z" fill="white"/>
<path d="M152.723 63.2377C152.704 63.0005 152.649 62.7999 152.54 62.581C152.302 62.5446 152.101 62.4351 151.973 62.271C151.753 62.0156 151.68 61.6326 151.735 61.1219L152.43 49.6128C150.656 48.7555 148.315 48.2266 146.285 48.2266C145.974 48.2266 145.681 48.2266 145.389 48.263C142.591 48.5002 140.359 49.7769 138.787 52.0569C137.177 54.355 136.501 57.2369 136.793 60.6294C137.122 64.4597 138.933 66.5572 141.896 66.5572C142.097 66.5572 142.28 66.5573 142.481 66.539C144.602 66.3566 146.578 65.0799 147.73 63.1282L147.968 62.727L148.004 63.2012C148.15 64.8063 149.358 65.773 151.26 65.773C151.388 65.773 151.516 65.773 151.644 65.773C152.357 65.2075 152.778 64.2044 152.686 63.2559L152.723 63.2377ZM147.51 60.0822V60.1187C146.651 61.6508 145.59 62.4351 144.273 62.5628C144.182 62.5628 144.109 62.5628 144.017 62.5628C143.103 62.5628 141.951 62.0703 141.749 59.7174C141.548 57.4557 141.786 55.4676 142.408 54.0085C143.066 52.5128 144.09 51.6556 145.371 51.5461C145.535 51.5461 145.7 51.5279 145.883 51.5279C146.523 51.5279 147.163 51.6373 147.84 51.838L147.949 51.8745L147.51 60.1005V60.0822Z" fill="white"/>
<path d="M91.5105 57.4556C91.2728 54.7562 88.9867 53.0234 85.6764 53.0234C85.4021 53.0234 85.1095 53.0234 84.8169 53.0599C81.8907 53.3153 79.6777 54.5191 78.05 56.7261C76.4406 58.9513 75.7822 61.7784 76.0749 65.1345C76.2577 67.2685 77.0624 68.9648 78.4341 70.1503C79.6411 71.19 81.1225 71.7189 82.8417 71.7189C83.0977 71.7189 83.372 71.7189 83.6281 71.6824C85.9142 71.4818 88.3649 70.5151 89.9011 69.2019C90.1389 68.2717 90.1206 67.5786 89.8097 67.1408C89.5719 66.7943 89.1513 66.5754 88.566 66.5024C87.3773 67.2867 86.0971 67.7609 84.762 67.8704C84.5974 67.8704 84.4145 67.8886 84.2499 67.8886C82.4759 67.8886 81.342 67.0131 80.9031 65.2621L80.8665 65.098H81.0311C88.1271 64.3319 91.8397 61.6325 91.4739 57.4556H91.5105ZM80.8482 62.2709H80.6653V62.1067C80.8116 58.8054 82.2564 56.7078 84.5425 56.5072C84.634 56.5072 84.7437 56.5072 84.8351 56.5072C86.0422 56.5072 86.8469 57.2003 86.9566 58.3311C87.1395 60.4834 85.0912 61.8149 80.8299 62.2891L80.8482 62.2709Z" fill="white"/>
<path d="M129.789 56.9443C128.618 56.5977 127.814 56.3242 127.484 56.1053C127.119 55.8682 126.917 55.5034 126.863 54.9927C126.826 54.5002 127.027 54.0807 127.484 53.7524C127.905 53.4423 128.527 53.2599 129.277 53.187C129.514 53.1687 129.734 53.1505 129.953 53.1505C131.106 53.1505 132.13 53.4241 133.008 53.9713C134.196 53.3694 134.8 52.3479 134.836 50.8888C133.611 50.0863 131.599 49.5391 129.825 49.5391C129.588 49.5391 129.368 49.5391 129.149 49.5755C126.863 49.7762 125.07 50.4875 123.79 51.6731C122.492 52.8586 121.925 54.336 122.071 56.087C122.272 58.3852 123.552 59.5708 126.808 60.4645C129.24 61.1394 130.008 61.5224 130.1 62.5985C130.155 63.1822 129.935 63.6564 129.46 64.003C129.002 64.3313 128.289 64.5319 127.338 64.6231C127.119 64.6414 126.899 64.6596 126.68 64.6596C125.326 64.6596 124.101 64.2948 122.967 63.5288C121.797 64.1671 121.211 65.1703 121.138 66.6295C121.851 67.2131 122.784 67.6144 124.046 67.9245C124.979 68.1433 125.875 68.2528 126.789 68.2528C127.119 68.2528 127.448 68.2528 127.777 68.2163C130.118 68.0157 131.965 67.2861 133.282 66.064C134.617 64.842 135.184 63.3646 135.019 61.5589C134.836 59.4978 133.94 58.1481 129.734 56.9443H129.789Z" fill="white"/>
<path d="M71.1186 49.9613C71.9599 50.3991 72.8926 50.0525 73.1487 49.8701C73.1487 49.8701 73.7705 49.4689 74.2643 49.0494C74.8861 48.5022 74.9958 48.2833 74.9958 48.2833C74.5935 46.0581 72.7829 46.0946 72.7829 46.0946C73.0389 46.8241 73.0206 47.1707 73.0023 47.5537C73.0023 47.6632 72.9475 47.9185 72.6549 47.9003C72.344 47.882 72.3805 47.5902 72.3805 47.5902C72.5268 45.8392 70.7711 44.526 70.3688 44.2889C69.9664 44.07 69.6372 44.1794 69.5458 44.526C69.4543 44.8543 69.1983 46.5506 69.1983 46.5506C68.9423 48.3563 70.1127 49.4324 71.1369 49.9613H71.1186Z" fill="white"/>
<path d="M70.5332 23.094C73.2765 26.0306 72.362 31.5389 72.362 31.5389C74.9225 32.159 77.3549 33.3446 77.3549 33.3446C77.4097 32.7062 77.5012 32.232 77.5012 30.9552C77.5012 29.2407 77.1354 27.1432 76.7696 25.6658C75.9832 22.5651 74.3007 20.6864 74.3007 20.6864C73.2765 19.4461 72.2889 19.1908 71.283 19.3002C69.4359 19.4826 68.558 21.799 68.302 22.9663C68.302 23.0211 68.2654 23.2217 68.2654 23.2217C69.3261 21.6166 70.5332 23.1122 70.5332 23.1122V23.094Z" fill="white"/>
<path d="M70.1491 41.3153C72.673 43.9965 78.1596 44.1789 78.1596 44.1789C79.0923 42.1725 79.6775 41.4977 79.6775 41.4977L79.8055 41.3518C79.8055 41.3518 79.4763 41.3882 79.3849 41.3882C77.8669 41.3882 75.5077 40.2574 75.5077 40.2574C72.3072 38.9077 69.6919 36.3906 69.6919 36.3906C70.3503 38.0504 70.1491 41.3335 70.1491 41.3335V41.3153Z" fill="white"/>
<path d="M76.3491 55.1961C76.276 54.4483 76.0931 54.12 75.9468 53.974C75.709 53.8828 75.4347 53.8281 75.1238 53.8281C75.0324 53.8281 74.9409 53.8281 74.8495 53.8281C73.0572 53.9923 71.6489 55.1414 70.6614 57.2572L70.4419 57.7131L70.0761 55.3055C69.6738 55.1049 69.1983 54.9955 68.613 54.9955C68.4484 54.9955 68.2838 54.9955 68.1009 55.0137C67.2962 55.0866 66.5647 55.3055 65.9063 55.6703L64.9187 72.1223C65.3576 72.323 65.9063 72.4324 66.5647 72.4324C66.7659 72.4324 66.967 72.4324 67.1865 72.3959C68.1741 72.3047 68.9971 72.0676 69.6372 71.6846L70.2224 62.0541C70.8991 60.1207 72.2708 58.9352 73.9716 58.771C74.0996 58.771 74.2094 58.771 74.3374 58.771C74.5568 58.771 74.7397 58.771 74.9043 58.8257C75.8919 58.2786 76.4589 56.8194 76.3126 55.1778L76.3491 55.1961Z" fill="white"/>
<path d="M70.5515 28.4902C70.643 27.8336 70.1858 27.2317 69.5457 27.1405C68.8873 27.0493 68.2837 27.5053 68.1923 28.1619C68.1009 28.8185 68.5581 29.4204 69.2165 29.5116C69.8566 29.6028 70.4601 29.1469 70.5515 28.5085V28.4902Z" fill="white"/>
<path d="M68.5763 25.9199C68.5397 26.23 68.7409 26.5036 69.0518 26.54C69.3627 26.5765 69.637 26.3759 69.6736 26.0658C69.7102 25.774 69.509 25.4822 69.1981 25.4457C68.8872 25.4092 68.6129 25.6098 68.5763 25.9199Z" fill="white"/>
</svg>
