<svg xmlns="http://www.w3.org/2000/svg" width="606.25" height="102.66" viewBox="93.75 510.39 606.25 102.66"><path fill="currentColor" d="m703.16 4495.31 93.77 95.81h420.2l97.93-95.81v-156.53h-186.31v61.76H887.469v-390.76h243.441v100.17h-103.32v190.58h291.87V3919.2l-98.1-95.94H803.164L703.16 3919.2zM1393.05 4110.83v186.5h281.23v-186.5zM1747.04 4209.95v283.4l95.78 97.77h427.66l101.18-95.81v-156.9h-191.8v61.08h-243.27v-104.2h339.21l96.84-101.16V3915l-100.16-91.74h-427.59l-99 93.78v150.68h188.7v-58.94h241.04v100.01h-326.42zM2900.4 4591.12v-293.91h-240.2v293.91h-189.63v-770h189.63v286.51h240.2v-286.51h189.5v770zM3613.5 4009.78v392.91h-236.06v-392.91zm-425.6-90.58v571.96l100.02 99.96h414.94l100.01-98.93V3919.2l-98.84-95.94h-422.35l-93.78 92.79M3902.06 3919.2v576.11l100.08 95.81h423.42l95.78-95.81v-194.78h-186.39v97.97h-240.04v-389.72h241.13v103.09h184.3V3919.2l-97.09-95.94h-427.42zM5250.17 4591.12h-231.65l-205.4-283.7v283.7h-193.78v-767.86h193.78v276.11l202.17-276.11h229.66l-268.46 383.49z" transform="matrix(.13333 0 0 -.13333 0 1122.52)"/></svg>
