<svg version="1.2" xmlns="http://www.w3.org/2000/svg" viewBox="0 0 488 123" width="488" height="123">
	<title>G_SHOCK</title>
	<style>
		.s0 { fill: #231f20 } 
	</style>
	<g id="Capa 1">
		<path id="&lt;Path&gt;" class="s0" d="m27 23.2l-9.3 9.6v57.6l10 9.6h41.8l9.8-9.6v-38.1h-29.2v19.1h10.3v10h-24.3v-39.1h24.1v6.2h18.7v-15.7l-9.8-9.6z"/>
		<path id="&lt;Path&gt;" class="s0" d="m86.7 52.6h28.1v18.7h-28.1z"/>
		<path id="&lt;Path&gt;" class="s0" d="m131.6 23.2l-9.5 9.8v28.4l10.2 10.1h32.6v10h-24.1v-5.9h-18.9v15l9.9 9.4h42.8l10-9.1v-28l-9.7-10.1h-33.9v-10.4h24.3v6.1h19.2v-15.7l-10.1-9.6z"/>
		<path id="&lt;Path&gt;" class="s0" d="m237.4 23.2v29.4h-24v-29.4h-19v77h19v-28.6h24v28.6h18.9v-77z"/>
		<path id="&lt;Compound Path&gt;" fill-rule="evenodd" class="s0" d="m317.6 23.2l10 9.9v57.3l-9.8 9.6h-42.3l-9.4-9.3v-57.5l10-10zm-32.5 58.2h23.6v-39.3h-23.6z"/>
		<path id="&lt;Path&gt;" class="s0" d="m347.6 23.2l-10 9.6v57.6l9.3 9.6h42.8l9.7-9.6v-19.2h-18.4v10.3h-24.2v-39h24v9.8h18.7v-19.5l-9.6-9.6z"/>
		<path id="&lt;Path&gt;" class="s0" d="m449.2 23.2l-20.5 28.4v-28.4h-19.4v76.8h19.4v-27.6l20.2 27.6h22.9l-26.8-38.3 27.4-38.5z"/>
	</g>
</svg>