<svg width="193" height="96" viewBox="0 0 193 96" fill="none" xmlns="http://www.w3.org/2000/svg">
<path d="M48.6255 31.944C48.6255 31.944 47.1375 27.3003 44.3874 25.6459C44.1049 25.4579 43.7658 25.2699 43.4268 25.1383C42.4473 24.7247 39.4713 24.1043 32.9541 27.4319C32.9541 27.4319 32.8976 27.4507 32.8222 27.5071H32.8034L32.6715 27.6011C26.2485 31.1356 25.0807 33.9556 24.8547 35.0085C24.7793 35.3657 24.7416 35.7417 24.7228 36.0989C24.5156 39.3325 27.4728 43.2054 27.4728 43.2054C31.9746 49.1463 38.6048 47.0031 41.9011 45.2547C41.9388 45.2359 41.9764 45.2171 42.0141 45.1983C42.0518 45.1795 42.0894 45.1607 42.1271 45.1419C45.4046 43.3934 50.9235 39.0693 48.6255 31.9628V31.944ZM41.8446 44.559C41.8446 44.559 41.7692 44.5966 41.7316 44.6154C41.6939 44.6342 41.6562 44.653 41.6186 44.6718C38.473 46.3451 32.1253 48.4319 27.8872 42.8858C27.8872 42.8858 25.1184 39.2573 25.3444 36.2305C25.3444 35.9109 25.4009 35.5349 25.4762 35.2153C25.6834 34.2188 26.8513 31.5492 32.9917 28.1463C32.9917 28.1463 33.0294 28.1275 33.1236 28.0711H33.1424L33.2743 27.9959C39.5278 24.7999 42.3531 25.3451 43.2949 25.7399C43.6152 25.8527 43.9354 26.0407 44.1991 26.2099C46.7984 27.7327 48.1923 32.0944 48.1923 32.0944C50.3207 38.7685 45.0278 42.8858 41.8634 44.559H41.8446Z" fill="white"/>
<path d="M43.8787 26.7392C43.615 26.5888 43.3137 26.4196 43.0123 26.3068C42.127 25.9495 39.4335 25.4419 33.4814 28.4876C33.4814 28.4876 33.4437 28.5064 33.3495 28.544H33.3307L33.1988 28.6192C27.3597 31.8529 26.2484 34.3721 26.0412 35.3121C25.9659 35.6317 25.9282 35.9701 25.9093 36.2709C25.6833 39.1474 28.3015 42.5503 28.3015 42.5503C32.3135 47.7768 38.3598 45.7839 41.3547 44.1859C41.3924 44.1671 41.4301 44.1483 41.4677 44.1295C41.5054 44.1107 41.5431 44.0919 41.5808 44.0731C44.5757 42.4751 49.6237 38.5646 47.6271 32.2665C47.6271 32.2665 46.3274 28.1492 43.8599 26.7204L43.8787 26.7392ZM32.7844 30.4428H32.9539L32.8598 30.2548C32.8598 30.2172 32.8598 30.1796 32.8974 30.1796H32.9163C32.9163 30.1796 32.9728 30.1796 32.9916 30.1984L33.1046 30.4428H33.3307L33.1611 30.1044C33.1611 30.0668 33.1611 30.0292 33.1988 30.0292H33.2177C33.2177 30.0292 33.2742 30.0292 33.293 30.048L33.4814 30.4616H33.7074L33.6509 30.3676C33.6509 30.33 33.6509 30.2924 33.6885 30.2924H33.7074C33.7074 30.2924 33.7639 30.2924 33.7827 30.3112L33.8581 30.4804H34.0088L34.1029 30.33L34.0276 30.1984H33.8392C33.8392 30.1984 33.7827 30.1796 33.7827 30.142C33.7827 30.142 33.8016 30.0668 33.8392 30.0668H33.9522L33.8392 29.86H33.3872C33.3872 29.86 33.3307 29.8412 33.3307 29.8036C33.3307 29.8036 33.3495 29.7284 33.3872 29.7284H33.7639L33.6509 29.5216H33.3683C33.3683 29.5216 33.3118 29.5028 33.3118 29.4652C33.3118 29.4652 33.3307 29.39 33.3683 29.39H33.5755L33.5002 29.2396C33.5002 29.202 33.5002 29.1832 33.519 29.1644C33.5567 29.1644 33.5755 29.1644 33.5944 29.1832L33.6697 29.3336L33.7827 29.1644C33.7827 29.1644 33.8392 29.1268 33.8581 29.1644C33.8581 29.1644 33.8957 29.2396 33.8581 29.2584L33.7074 29.484L33.8204 29.6908L34.0464 29.3712C34.0464 29.3712 34.1029 29.3336 34.1218 29.3712C34.1218 29.3712 34.1594 29.4464 34.1218 29.4652L33.8581 29.8412L33.9711 30.048L34.0464 29.954C34.0464 29.954 34.1029 29.9164 34.1218 29.954C34.1218 29.954 34.1594 30.0292 34.1218 30.048L34.0088 30.1984L34.0841 30.33H34.2725L34.3478 30.1984L34.2536 30.0292C34.2536 30.0292 34.2536 29.9728 34.2725 29.954H34.2913C34.2913 29.954 34.3478 29.954 34.3666 29.954L34.4231 30.048L34.5362 29.86L34.3101 29.4652C34.3101 29.4652 34.3101 29.4088 34.329 29.39H34.3478C34.3478 29.39 34.4043 29.39 34.4231 29.39L34.6115 29.7284L34.7245 29.5404L34.5927 29.296C34.5927 29.296 34.5927 29.2396 34.6115 29.2208C34.6115 29.2208 34.668 29.2208 34.6868 29.2208L34.781 29.39L34.8752 29.2396C34.8752 29.2396 34.9317 29.202 34.9505 29.2396C34.9694 29.2396 34.9882 29.296 34.9505 29.3148L34.8564 29.4652H35.0636C35.0636 29.4652 35.1201 29.5216 35.1201 29.5404C35.1201 29.5404 35.0824 29.6156 35.0636 29.6156H34.781L34.668 29.7848L35.0447 29.8224C35.0447 29.8224 35.1012 29.86 35.1012 29.8788C35.1012 29.8788 35.0636 29.954 35.0447 29.954L34.5927 29.9164L34.4797 30.1044H34.5927C34.5927 30.1044 34.6492 30.142 34.6492 30.1796C34.6492 30.1796 34.6115 30.2548 34.5927 30.2548H34.4043L34.329 30.3676L34.4043 30.518H34.555L34.6492 30.3488C34.6492 30.3112 34.7057 30.3112 34.7245 30.33H34.7434C34.7434 30.33 34.781 30.3864 34.7622 30.424L34.7057 30.5368H34.9317L35.1577 30.142C35.1577 30.1044 35.2142 30.1044 35.2331 30.1232H35.2519C35.2519 30.1232 35.2896 30.1796 35.2708 30.2172L35.0824 30.5556H35.3084L35.4403 30.33C35.4403 30.2924 35.4968 30.2924 35.5156 30.3112H35.5345C35.5345 30.3112 35.5721 30.3676 35.5533 30.4052L35.4591 30.5744H35.6286C35.6286 30.5744 35.6851 30.612 35.6851 30.6496C35.6851 30.6872 35.6475 30.706 35.6286 30.706H35.4591L35.5533 30.894C35.5533 30.9316 35.5533 30.9692 35.5156 30.9692H35.4968C35.4968 30.9692 35.4403 30.9692 35.4214 30.9504L35.3084 30.706H35.0824L35.2519 31.0444C35.2519 31.082 35.2519 31.1196 35.2142 31.1196H35.1954C35.1954 31.1196 35.1389 31.1196 35.1201 31.1008L34.9317 30.6872H34.7057L34.7622 30.7812C34.7622 30.8188 34.7622 30.8564 34.7245 30.8564H34.7057C34.7057 30.8564 34.6492 30.8564 34.6303 30.8376L34.555 30.6684H34.4043L34.3101 30.8188L34.3855 30.9504H34.5738C34.5738 30.9504 34.6303 30.9692 34.6303 31.0068C34.6303 31.0068 34.6115 31.082 34.5738 31.082H34.4608L34.5738 31.2888H35.0259C35.0259 31.2888 35.0824 31.3076 35.0824 31.3452C35.0824 31.3452 35.0636 31.4205 35.0259 31.4205H34.6492L34.7622 31.6273H35.0447C35.0447 31.6273 35.1012 31.6461 35.1012 31.6837C35.1012 31.6837 35.0824 31.7589 35.0447 31.7589H34.8375L34.9129 31.9093C34.9129 31.9469 34.9129 31.9657 34.894 31.9845C34.8564 31.9845 34.8375 31.9845 34.8187 31.9657L34.7434 31.8153L34.6303 31.9845C34.6303 31.9845 34.5738 32.0221 34.555 31.9845C34.555 31.9845 34.5173 31.9093 34.555 31.8905L34.7057 31.6649L34.5927 31.4581L34.3666 31.7777C34.3666 31.7777 34.3101 31.8153 34.2913 31.7777C34.2913 31.7777 34.2536 31.7025 34.2913 31.6837L34.555 31.3076L34.442 31.1008L34.3666 31.1948C34.3666 31.1948 34.3101 31.2324 34.2913 31.1948C34.2913 31.1948 34.2536 31.1196 34.2913 31.1008L34.4043 30.9504L34.329 30.8188H34.1406L34.0653 30.9504L34.1594 31.1196C34.1594 31.1196 34.1594 31.176 34.1406 31.1948H34.1218C34.1218 31.1948 34.0653 31.1948 34.0464 31.1948L33.9899 31.1008L33.8769 31.2888L34.1029 31.6837C34.1029 31.6837 34.1029 31.7401 34.0841 31.7589H34.0653C34.0653 31.7589 34.0088 31.7589 33.9899 31.7589L33.8016 31.4205L33.6885 31.6085L33.8204 31.8529C33.8204 31.8529 33.8204 31.9093 33.8016 31.9281C33.8016 31.9281 33.7451 31.9281 33.7262 31.9281L33.632 31.7589L33.5379 31.9093C33.5379 31.9093 33.4814 31.9469 33.4625 31.9093C33.4437 31.8717 33.4248 31.8529 33.4625 31.8341L33.5567 31.6837H33.3495C33.3495 31.6837 33.293 31.6273 33.293 31.6085C33.293 31.6085 33.3307 31.5333 33.3495 31.5333H33.632L33.7451 31.364L33.3683 31.3264C33.3683 31.3264 33.3118 31.2888 33.3118 31.27C33.3118 31.27 33.3495 31.1948 33.3683 31.1948L33.8204 31.2324L33.9334 31.0444H33.8204C33.8204 31.0444 33.7639 31.0068 33.7639 30.9692C33.7639 30.9692 33.8016 30.894 33.8204 30.894H34.0088L34.0841 30.7812L34.0088 30.6308H33.8581L33.7639 30.8C33.7639 30.8376 33.7074 30.8376 33.6885 30.8188H33.6697C33.6697 30.8188 33.632 30.7624 33.6509 30.7248L33.7074 30.612H33.4814L33.2553 31.0068C33.2553 31.0444 33.1988 31.0444 33.18 31.0256H33.1611C33.1611 31.0256 33.1235 30.9692 33.1423 30.9316L33.3307 30.5932H33.1046L32.9728 30.8188C32.9728 30.8564 32.9163 30.8564 32.8974 30.8376H32.8786C32.8786 30.8376 32.8409 30.7812 32.8598 30.7436L32.9539 30.5744H32.7844C32.7844 30.5744 32.7279 30.5368 32.7279 30.4992C32.7279 30.4616 32.7656 30.4428 32.7844 30.4428ZM46.9866 37.023C46.9866 37.023 46.4969 39.0722 44.3496 40.7266C43.4643 41.4034 43.4078 41.0086 43.6715 40.7266C43.6715 40.7266 44.8582 39.4482 44.6133 39.1286C44.4815 38.9406 43.7469 39.6926 43.2383 40.125C42.8239 40.501 40.7897 42.3435 36.966 43.9227C33.1423 45.5019 31.2211 43.9415 31.2211 43.9415C30.3169 43.3211 29.6577 42.5127 29.2245 41.7606C27.7929 39.2602 28.132 38.2638 29.2245 36.9666C30.2793 35.7445 32.4642 34.1465 35.4403 32.5485L35.5533 32.4921C38.5294 30.9316 41.0722 30.0104 42.6732 29.8224C44.3496 29.6156 45.3479 29.8976 46.5911 32.5109C47.1373 33.6953 47.5141 35.3309 47.0243 37.023H46.9866Z" fill="white"/>
<path d="M37.4368 39.0503C37.3803 38.9375 37.2673 38.9375 37.2108 38.9751L36.8152 39.1819C36.8152 39.1819 36.6645 39.3135 36.6269 39.4263C36.5892 39.6707 36.5515 39.8399 36.1748 40.0279C35.8169 40.2159 35.3272 40.1031 35.1388 39.7083L37.0789 38.6743C37.2296 38.5991 37.2673 38.4111 37.2108 38.2983C36.721 37.3395 35.7227 37.0198 34.8751 37.4711C34.0275 37.9223 33.7073 38.9563 34.1782 39.8587C34.6491 40.7611 35.6474 41.1747 36.5515 40.7047C37.1354 40.3851 37.531 39.8399 37.4745 39.1443C37.4745 39.1067 37.4745 39.0691 37.4368 39.0315V39.0503ZM35.1765 38.1291C35.5532 37.9223 36.0053 38.0539 36.1748 38.3735L34.7998 39.1067C34.6303 38.7871 34.7621 38.3547 35.1765 38.1291Z" fill="white"/>
<path d="M32.8785 38.0745L38.5858 35.0289C38.7176 34.9537 38.7365 34.8033 38.6988 34.7093L38.5858 34.5024C38.5293 34.3896 38.3786 34.3144 38.2467 34.3896L31.9556 37.7361C31.8237 37.8113 31.8049 37.9617 31.8426 38.0557L33.1799 40.6314L30.4675 38.8453C30.2792 38.7137 30.0343 38.7513 29.9401 38.8077L29.3751 39.1085C29.2621 39.1649 29.2055 39.2965 29.2809 39.4469L31.2021 43.1506C31.2775 43.301 31.4282 43.3386 31.5412 43.2634L31.8991 43.0754C32.0121 43.019 32.0686 42.8686 32.0121 42.7182L30.6559 40.1238L33.4624 41.9474C33.5943 42.0226 33.7827 42.079 33.971 41.985L34.4984 41.703C34.6114 41.6466 34.6679 41.4962 34.6114 41.3834L32.8785 38.0745Z" fill="white"/>
<path d="M42.0706 32.9404C42.0706 32.9404 42.1648 33.072 42.2966 32.9968L44.6699 31.7372C44.6699 31.7372 44.8583 31.5679 44.783 31.4175L44.6323 31.1355C44.5758 31.0227 44.4251 30.9851 44.3309 31.0415L44.2367 31.0979C43.5398 31.5679 42.5038 32.2448 42.1836 32.4704C42.1083 32.5268 42.0329 32.5644 41.9953 32.6396C41.9576 32.7148 41.9953 32.7712 41.9953 32.8276L42.0706 32.9592V32.9404Z" fill="white"/>
<path d="M41.5244 32.9429C41.4491 32.8113 41.2984 32.7737 41.1854 32.8301L40.8087 33.0369C40.6956 33.0933 40.6391 33.2437 40.7145 33.3753L42.6546 37.0977C42.7111 37.2106 42.8806 37.2482 42.9748 37.1918L43.3515 36.9849C43.4457 36.9285 43.521 36.7781 43.4645 36.6653L41.5244 32.9429Z" fill="white"/>
<path d="M46.2898 34.3511C46.2333 34.2383 46.1203 34.2383 46.0638 34.2759L45.6682 34.4827C45.6682 34.4827 45.5176 34.6143 45.4799 34.7271C45.4422 34.9715 45.4045 35.1407 45.0278 35.3287C44.6699 35.5167 44.1802 35.4039 43.9919 35.0091L45.9319 33.9751C46.0826 33.8999 46.1203 33.7119 46.0638 33.599C45.5741 32.6402 44.5758 32.3206 43.7282 32.7718C42.8805 33.223 42.5603 34.2571 43.0312 35.1595C43.5021 36.0619 44.5004 36.4755 45.4045 36.0055C45.9885 35.6859 46.384 35.1407 46.3275 34.4451C46.3275 34.4075 46.3275 34.3699 46.2898 34.3323V34.3511ZM44.0295 33.4298C44.4062 33.223 44.8583 33.3546 45.0278 33.6743L43.6528 34.4075C43.4833 34.0879 43.6151 33.6555 44.0295 33.4298Z" fill="white"/>
<path d="M39.7725 36.9839C39.4523 36.8523 39.0944 36.9839 38.4352 37.1343C38.1527 37.2095 37.889 37.2847 37.7948 37.1155C37.7006 36.9463 37.7006 36.7583 38.0961 36.5515C38.3222 36.4199 38.567 36.3823 38.7742 36.5327C38.8873 36.6079 38.9814 36.5703 39.0191 36.5515L39.3958 36.3447C39.3958 36.3447 39.5088 36.2131 39.4712 36.1191C39.2828 35.7619 38.6047 35.4987 37.7571 35.9499C37.0037 36.3447 36.7023 37.0215 37.0037 37.5855C37.2109 37.9991 37.6064 38.0555 37.8324 38.0555C38.002 38.0555 38.3599 37.9991 38.6801 37.9239C38.9626 37.8487 39.3582 37.6607 39.5088 37.9427C39.5842 38.1119 39.5088 38.3187 39.1321 38.5067C38.7931 38.6759 38.5294 38.6195 38.3975 38.5067C38.3033 38.4315 38.2092 38.4503 38.1338 38.4691L37.7194 38.6947C37.7194 38.6947 37.6064 38.8451 37.6441 38.9203C37.9266 39.4655 38.7366 39.5408 39.4523 39.1459C40.0551 38.8263 40.5825 38.2435 40.3753 37.6419C40.2623 37.2847 40.0927 37.0967 39.7725 36.9839Z" fill="white"/>
<path d="M42.3342 36.9841C42.2777 36.8713 42.1458 36.8337 42.0517 36.8901L41.9952 36.9277C41.8821 36.9841 41.5243 37.0593 41.3736 36.7397L40.639 35.3109L41.1287 35.0477C41.1287 35.0477 41.2794 34.8785 41.2229 34.7657L41.1099 34.5401C41.1099 34.5401 40.9404 34.3709 40.8273 34.4461L40.3376 34.7093L39.8667 33.8257C39.7914 33.6941 39.6407 33.6565 39.5277 33.7129L39.1509 33.9197C39.0379 33.9761 38.9814 34.1265 39.0568 34.2581L39.5277 35.1417L39.3958 35.2169C39.2828 35.2733 39.264 35.4237 39.3205 35.5177L39.4335 35.7433C39.49 35.8561 39.6218 35.8749 39.716 35.8185L39.8479 35.7433L40.6578 37.2849C40.9027 37.755 41.5243 37.9994 42.127 37.6798L42.4284 37.5106C42.5414 37.4542 42.5602 37.3226 42.5226 37.2285L42.3907 36.9841H42.3342Z" fill="white"/>
<path d="M49.002 34.803C49.002 34.6902 49.002 34.5962 49.0396 34.5022C49.0773 34.4082 49.115 34.3142 49.1903 34.239C49.2657 34.1638 49.341 34.0886 49.4352 34.051C49.5294 34.0134 49.6235 33.9758 49.7365 33.957C49.8307 33.957 49.9437 33.957 50.0379 33.9946C50.1321 34.0322 50.2263 34.0698 50.3016 34.145C50.377 34.2014 50.4523 34.2954 50.5088 34.3894C50.5653 34.4834 50.5842 34.5962 50.603 34.709C50.603 34.8218 50.603 34.9158 50.5653 35.0099C50.5277 35.1039 50.49 35.1979 50.4146 35.2731C50.3393 35.3483 50.264 35.4235 50.1698 35.4611C50.0756 35.4987 49.9814 35.5363 49.8684 35.5551C49.7742 35.5551 49.6612 35.5551 49.567 35.5175C49.4728 35.4799 49.3787 35.4423 49.3033 35.3671C49.228 35.2919 49.1526 35.2167 49.0961 35.1227C49.0396 35.0287 49.0208 34.9158 49.002 34.8218V34.803ZM49.3787 35.2543C49.3787 35.2543 49.5105 35.3483 49.6047 35.3859C49.68 35.4047 49.7742 35.4235 49.8496 35.4235C49.9437 35.4235 50.0191 35.3859 50.0944 35.3483C50.1698 35.3107 50.2451 35.2543 50.3016 35.1791C50.3581 35.1039 50.3958 35.0287 50.4146 34.9534C50.4335 34.8782 50.4523 34.7842 50.4335 34.6902C50.4335 34.5962 50.3958 34.521 50.3581 34.427C50.3205 34.3518 50.264 34.2766 50.1886 34.2202C50.1133 34.1638 50.0568 34.1262 49.9626 34.0886C49.8872 34.0698 49.7931 34.051 49.7177 34.051C49.6235 34.051 49.5482 34.0886 49.4728 34.1262C49.3975 34.1638 49.3222 34.2202 49.2657 34.2954C49.2091 34.3706 49.1715 34.4458 49.1526 34.521C49.1338 34.5962 49.115 34.6902 49.1338 34.7654C49.1338 34.8594 49.1715 34.9346 49.2091 35.0287C49.2468 35.1227 49.3033 35.1791 49.3787 35.2355V35.2543ZM49.6235 34.2954C49.7177 34.239 49.7931 34.2202 49.8684 34.239C49.9437 34.239 49.9814 34.2954 50.0379 34.3706C50.0756 34.4458 50.0756 34.5022 50.0568 34.5586C50.0379 34.615 50.0003 34.6714 49.9437 34.709L50.3581 34.9534L50.2263 35.0287L49.8307 34.7842L49.6989 34.8594L49.8872 35.2167L49.7554 35.2919L49.3222 34.4646L49.6424 34.2954H49.6235ZM49.7554 34.6902C49.7554 34.6902 49.8119 34.6526 49.8307 34.6526C49.8496 34.6526 49.8684 34.615 49.8872 34.5962C49.8872 34.5774 49.9061 34.5586 49.9061 34.5398C49.9061 34.521 49.9061 34.4834 49.8872 34.4458C49.8872 34.427 49.8496 34.4082 49.8307 34.3894C49.8119 34.3894 49.7931 34.3894 49.7742 34.3894C49.7554 34.3894 49.7366 34.3894 49.6989 34.3894C49.68 34.3894 49.6612 34.3894 49.6235 34.427L49.454 34.521L49.5859 34.7842L49.7177 34.709L49.7554 34.6902Z" fill="white"/>
<path d="M166.331 26.8872C165.577 26.8872 164.956 26.2668 164.956 25.496C164.956 24.7251 165.577 24.0859 166.331 24.0859C167.084 24.0859 167.706 24.7063 167.706 25.4772C167.706 26.248 167.084 26.8872 166.331 26.8872ZM166.331 24.3867C165.728 24.3867 165.257 24.8756 165.257 25.496C165.257 26.1164 165.747 26.6052 166.331 26.6052C166.915 26.6052 167.404 26.1164 167.404 25.496C167.404 24.8756 166.915 24.3867 166.331 24.3867Z" fill="white" stroke="white" stroke-miterlimit="10"/>
<path d="M165.784 24.7812H166.406C166.575 24.7812 166.707 24.8377 166.801 24.9129C166.877 24.9881 166.914 25.1009 166.914 25.2325C166.914 25.4581 166.801 25.5897 166.632 25.6649L166.952 26.1537H166.613L166.33 25.7213H166.104V26.1537H165.803V24.8001L165.784 24.7812ZM166.387 25.4393C166.538 25.4393 166.613 25.3641 166.613 25.2513C166.613 25.1197 166.519 25.0445 166.387 25.0445H166.086V25.4393H166.387Z" fill="white" stroke="white" stroke-miterlimit="10"/>
<path d="M103.758 24.8402L97.3349 26.0058L100.518 46.5546L93.6808 38.226L97.4103 23.543L89.8571 24.9906L88.6139 32.9995L83.9426 27.585L75.7302 30.1043L85.6567 40.6325L84.0745 47.1562L71.3226 31.8339L66.0674 33.7704L64.9373 55.3532C62.4321 50.9727 59.5691 45.9906 58.9851 44.9566C57.9115 43.0013 59.5502 40.6513 59.5502 40.6513L57.8927 37.3048L49.8121 41.3657L50.3207 60.8053L37.0791 49.2243L30.0156 55.1464L31.0328 60.0345C33.067 59.132 33.7074 60.9369 33.7074 60.9369L39.6972 85.0013L47.0432 78.7596L43.2007 64.979L53.0707 73.7399L56.6307 71.1079L56.819 56.8196L62.6205 66.671L64.4099 65.4678L64.1462 70.5627L70.9271 66.5958L71.398 55.6916L78.1789 52.4015L81.0419 56.1616L81.9649 55.8232L81.1361 59.2636L88.5763 56.8572L90.8742 45.859L95.5455 51.7435L102.986 49.6191L101.987 48.397L106.904 47.363L103.72 24.8402H103.758ZM71.1343 49.6191V42.0801L75.7114 47.5886L71.1343 49.6191Z" fill="white"/>
<path d="M161.282 25.6661L154.69 25.2713V34.9722L146.948 23.1468L141.712 22L142.202 30.4414C141.467 28.8057 140.375 27.3017 139.169 26.0985C137.229 24.162 134.63 22.8272 131.899 22.658C129.167 22.4888 126.342 23.5416 124.534 25.6285C123.215 27.1701 122.499 29.1629 122.198 31.1746C122.047 32.1522 121.991 33.1674 122.029 34.145C121.219 33.6374 120.559 33.393 120.559 33.393C120.559 33.393 122.462 31.2686 121.52 27.7905C120.559 24.3124 117.828 22 113.873 22C109.917 22 105.396 22.3948 105.396 22.3948L108.26 48.6589C108.26 48.6589 108.391 48.6589 108.448 48.6401C110.444 48.3769 117.885 47.5497 119.542 47.1737C122.047 46.5909 123.874 44.5792 124.684 42.1916C126.493 44.692 129.186 46.5533 132.181 47.1925C134.102 47.6061 136.155 47.5121 137.926 46.6661C140.638 45.3688 142.07 42.8872 142.71 40.1235L143.162 48.0009L149.698 49.3545V37.4727L156.479 48.6777L161.829 49.9373L161.264 25.7037L161.282 25.6661ZM111.65 26.7001C111.65 26.7001 116.34 26.1173 116.491 29.2193C116.679 32.9606 112.347 32.9606 112.347 32.9606L111.65 26.7189V26.7001ZM117.659 42.8496C116.924 43.2256 113.458 43.7896 113.439 43.6956L112.479 36.4575C112.479 36.4575 113.854 36.3071 113.948 36.2883C114.626 36.2319 115.304 36.2131 115.982 36.2883C117.64 36.5139 119.203 37.4727 119.542 39.2399C119.825 40.7628 118.977 42.1352 117.64 42.8308L117.659 42.8496ZM136.645 40.1423C135.364 41.684 133.255 42.2104 131.428 41.402C129.299 40.4808 127.698 38.2247 127.284 35.9499C126.775 33.1862 127.811 29.1629 131.089 28.7869C133.952 28.4673 136.457 30.8926 137.399 33.4306C138.171 35.5363 138.133 38.3375 136.645 40.1235V40.1423Z" fill="white"/>
</svg>
