<svg fill="currentColor" xmlns="http://www.w3.org/2000/svg" width="195" height="171" viewBox="0 0 195 171"><g id="Modo de aislamiento"><g id="&lt;Group&gt;"><g id="&lt;Group&gt;"><g id="&lt;Group&gt;"><g id="&lt;Group&gt;"><path id="&lt;Path&gt;" d="M135.9 18.19c15.31 0 27.72 64.53 27.72 144.13h22.18c0-85.73-22.34-155.22-49.9-155.22-15.67 0-29.66 20.88-38.8 53.55C87.95 27.98 73.96 7.1 58.29 7.1c-27.55 0-49.9 69.49-49.9 155.22h22.18c0-79.6 12.41-144.13 27.72-144.13s27.72 59.57 27.72 133.04h22.17c0-73.47 12.42-133.04 27.72-133.04"/></g></g><g id="Logo 00000000934770330351178680000017353213856083099560"><g id="idealo 00000029762231570951948600000003348164904782752915"><g id="i 00000039109388370377245410000007140512094631606411"><path id="&lt;Path&gt;" d="M-556.72 33.19h17.51v13.9h-17.51zm0 21.12h17.51v47.94h-17.51z"/></g><path id="d 00000145748297583148714990000003279650950589131178" fill-rule="evenodd" d="M-528.87 71.99c0-3.23-.05-6.19.49-8.81.55-2.63 1.81-5.15 3.67-7.06 1.91-1.86 4.6-3.34 8.15-4.38 3.56-1.04 8.38-1.53 14.34-1.53h4.32c1.97 0 3.89.16 5.8.44 1.86.32 3.62.82 5.2 1.64 1.59.82 2.9 1.8 3.94 3.12 1.04 1.31 1.64 2.9 1.97 4.92l.06-27.09h17.4v68.46h-16.42v-9.19h-.05c-.55 1.59-1.42 2.63-2.36 3.83-.87 1.2-2.02 2.3-3.44 3.17-1.48.88-3.29 1.59-5.37 2.03s-4.05.71-6.89.71h-4.1c-6.02 0-10.79-.49-14.34-1.53-3.56-1.04-6.3-2.47-8.16-4.38-1.86-1.86-3.12-3.78-3.66-6.4-.55-2.63-.5-5.58-.5-8.81v-9.14zm16.86 7.33q0 2.15.33 3.89.33 1.73 1.31 2.9c.66.76 1.7 1.31 3.07 1.75q2.05.59 5.58.6h9.52c1.91 0 3.61-.11 5.09-.44q2.23-.41 3.72-1.48 1.49-1.06 2.24-2.95c.5-1.26.77-2.85.77-4.82v-5.14c0-1.97-.27-3.61-.77-4.82a6.7 6.7 0 0 0-2.24-2.9q-1.49-1.06-3.72-1.47-2.22-.4-5.09-.39h-9.52q-3.53.02-5.58.61c-1.37.43-2.36.98-3.07 1.75-.66.76-1.09 1.69-1.31 2.9q-.33 1.73-.33 3.88z"/><path id="e 00000031929236443866799450000003580611531411697055" fill-rule="evenodd" d="M-408.21 88.46h17.35c-.11 10.89-5.53 13.9-20.68 13.9H-429c-12.09 0-24.19-2.3-24.19-23.04v-4.76c0-18.39 8.92-24.3 22.16-24.3h12.92c19.43 0 27.14 6.02 27.14 22.82v8.48h-44.82v3.45c0 4.43 4.55 6.51 8.65 6.51h12.09c4.05 0 6.63-.54 6.84-3.17zm-27.47-17.13h27.97v-2.3c0-5.3-2.14-8.1-8.81-8.1h-10.35c-6.67 0-8.81 2.8-8.81 8.1z"/><path id="a 00000000901384987711830510000008071302908675006119" fill-rule="evenodd" d="M-382.05 84.19c0-13.41 19.05-12.8 20.74-12.8h13.79c3.56 0 8.43 1.2 10.02 2.9l.32.32v-5.47c0-5.31-2.02-8.21-8.64-8.21h-10.34c-5.53 0-8.65.77-8.65 3.23h-15.71c0-10.39 8.38-13.9 21.84-13.9h20.41c12.15 0 18.5 6.41 18.5 18.17v33.38h-17.41V95.3l-1.03 1.81c-2.96 4.21-5.2 5.19-14.07 5.19h-12.26c-10.83 0-17.51-2.24-17.51-13.9zm38.36 7.88c4.76 0 6.62-1.86 6.62-5.47 0-6.18-1.53-7.06-10.89-7.17h-8.37c-6.95-.05-8.64 1.7-8.7 5.42-.11 5.63 1.75 7.22 8.7 7.22z"/><path id="l 00000165214047765606264070000007966894480978841764" d="M-309.38 102.25h17.52V33.19h-17.52z"/><path id="o 00000008119149297459158210000018046315955681849006" fill-rule="evenodd" d="M-281.58 70.07c0-16.52 10.84-19.86 20.47-19.86h24.95c9.63 0 20.47 3.34 20.47 19.86v12.26c0 16.53-10.89 19.86-20.47 19.86h-24.95c-9.63 0-20.47-3.33-20.47-19.86zm16.97 9.14q0 2.22.33 3.94c.21 1.2.65 2.13 1.36 2.9q1.07 1.16 3.12 1.75c1.37.44 3.29.6 5.69.6h9.53c1.91 0 3.66-.11 5.19-.44q2.3-.41 3.78-1.47 1.48-1.07 2.3-2.96c.49-1.26.77-2.84.77-4.87v-4.92c0-2.03-.28-3.61-.77-4.87q-.74-1.89-2.3-2.96-1.48-1.07-3.78-1.48c-1.53-.27-3.22-.43-5.19-.43h-9.53c-2.4 0-4.32.22-5.69.6-1.36.44-2.4.98-3.12 1.75-.71.77-1.15 1.75-1.36 2.9q-.33 1.72-.33 3.94z"/></g><path id="Linie 00000045583178423326882560000012815828372783536012" d="M-556.72 136.23h341.14v-13.9h-341.14z"/></g></g></g></g></svg>