<svg width="375" height="69" viewBox="0 0 375 69" fill="none" xmlns="http://www.w3.org/2000/svg">
	<path
		d="M4.8 10.5805C7.48725 10.5805 9.59999 8.47151 9.59999 5.78049C9.59999 3.09702 7.48725 0.980469 4.8 0.980469C2.11654 0.980469 0 3.09702 0 5.78049C0 8.47151 2.11654 10.5805 4.8 10.5805ZM43.2 10.5805C45.8872 10.5805 48 8.47151 48 5.78049C48 3.09702 45.8872 0.980469 43.2 0.980469C40.5165 0.980469 38.4 3.09702 38.4 5.78049C38.4 8.47151 40.5165 10.5805 43.2 10.5805ZM4.8 24.9805C7.48725 24.9805 9.59999 22.8715 9.59999 20.1805C9.59999 17.497 7.48725 15.3805 4.8 15.3805C2.11654 15.3805 0 17.497 0 20.1805C0 22.8715 2.11654 24.9805 4.8 24.9805ZM14.4 24.9805C17.0872 24.9805 19.2 22.8715 19.2 20.1805C19.2 17.497 17.0872 15.3805 14.4 15.3805C11.7165 15.3805 9.59999 17.497 9.59999 20.1805C9.59999 22.8715 11.7165 24.9805 14.4 24.9805ZM43.2 24.9805C45.8872 24.9805 48 22.8715 48 20.1805C48 17.497 45.8872 15.3805 43.2 15.3805C40.5165 15.3805 38.4 17.497 38.4 20.1805C38.4 22.8715 40.5165 24.9805 43.2 24.9805ZM4.8 39.3805C7.48725 39.3805 9.59999 37.2715 9.59999 34.5805C9.59999 31.897 7.48725 29.7805 4.8 29.7805C2.11654 29.7805 0 31.897 0 34.5805C0 37.2715 2.11654 39.3805 4.8 39.3805ZM24 39.3805C26.6872 39.3805 28.8 37.2715 28.8 34.5805C28.8 31.897 26.6872 29.7805 24 29.7805C21.3165 29.7805 19.2 31.897 19.2 34.5805C19.2 37.2715 21.3165 39.3805 24 39.3805ZM43.2 39.3805C45.8872 39.3805 48 37.2715 48 34.5805C48 31.897 45.8872 29.7805 43.2 29.7805C40.5165 29.7805 38.4 31.897 38.4 34.5805C38.4 37.2715 40.5165 39.3805 43.2 39.3805ZM4.8 53.7805C7.48725 53.7805 9.59999 51.6715 9.59999 48.9805C9.59999 46.297 7.48725 44.1805 4.8 44.1805C2.11654 44.1805 0 46.297 0 48.9805C0 51.6715 2.11654 53.7805 4.8 53.7805ZM33.6 53.7805C36.2872 53.7805 38.4 51.6715 38.4 48.9805C38.4 46.297 36.2872 44.1805 33.6 44.1805C30.9165 44.1805 28.8 46.297 28.8 48.9805C28.8 51.6715 30.9165 53.7805 33.6 53.7805ZM43.2 53.7805C45.8872 53.7805 48 51.6715 48 48.9805C48 46.297 45.8872 44.1805 43.2 44.1805C40.5165 44.1805 38.4 46.297 38.4 48.9805C38.4 51.6715 40.5165 53.7805 43.2 53.7805ZM4.8 68.1805C7.48725 68.1805 9.59999 66.0715 9.59999 63.3805C9.59999 60.697 7.48725 58.5805 4.8 58.5805C2.11654 58.5805 0 60.697 0 63.3805C0 66.0715 2.11654 68.1805 4.8 68.1805ZM43.2 68.1805C45.8872 68.1805 48 66.0715 48 63.3805C48 60.697 45.8872 58.5805 43.2 58.5805C40.5165 58.5805 38.4 60.697 38.4 63.3805C38.4 66.0715 40.5165 68.1805 43.2 68.1805ZM71.9622 10.5805C74.6532 10.5805 76.7622 8.47151 76.7622 5.78049C76.7622 3.09702 74.6532 0.980469 71.9622 0.980469C69.2787 0.980469 67.1622 3.09702 67.1622 5.78049C67.1622 8.47151 69.2787 10.5805 71.9622 10.5805ZM81.5622 10.5805C84.2532 10.5805 86.3622 8.47151 86.3622 5.78049C86.3622 3.09702 84.2532 0.980469 81.5622 0.980469C78.8787 0.980469 76.7622 3.09702 76.7622 5.78049C76.7622 8.47151 78.8787 10.5805 81.5622 10.5805ZM91.1622 10.5805C93.8532 10.5805 95.9622 8.47151 95.9622 5.78049C95.9622 3.09702 93.8532 0.980469 91.1622 0.980469C88.4787 0.980469 86.3622 3.09702 86.3622 5.78049C86.3622 8.47151 88.4787 10.5805 91.1622 10.5805ZM62.3622 24.9805C65.0532 24.9805 67.1622 22.8715 67.1622 20.1805C67.1622 17.497 65.0532 15.3805 62.3622 15.3805C59.6787 15.3805 57.5622 17.497 57.5622 20.1805C57.5622 22.8715 59.6787 24.9805 62.3622 24.9805ZM100.762 24.9805C103.453 24.9805 105.562 22.8715 105.562 20.1805C105.562 17.497 103.453 15.3805 100.762 15.3805C98.0787 15.3805 95.9622 17.497 95.9622 20.1805C95.9622 22.8715 98.0787 24.9805 100.762 24.9805ZM62.3622 39.3805C65.0532 39.3805 67.1622 37.2715 67.1622 34.5805C67.1622 31.897 65.0532 29.7805 62.3622 29.7805C59.6787 29.7805 57.5622 31.897 57.5622 34.5805C57.5622 37.2715 59.6787 39.3805 62.3622 39.3805ZM100.762 39.3805C103.453 39.3805 105.562 37.2715 105.562 34.5805C105.562 31.897 103.453 29.7805 100.762 29.7805C98.0787 29.7805 95.9622 31.897 95.9622 34.5805C95.9622 37.2715 98.0787 39.3805 100.762 39.3805ZM62.3622 53.7805C65.0532 53.7805 67.1622 51.6715 67.1622 48.9805C67.1622 46.297 65.0532 44.1805 62.3622 44.1805C59.6787 44.1805 57.5622 46.297 57.5622 48.9805C57.5622 51.6715 59.6787 53.7805 62.3622 53.7805ZM100.762 53.7805C103.453 53.7805 105.562 51.6715 105.562 48.9805C105.562 46.297 103.453 44.1805 100.762 44.1805C98.0787 44.1805 95.9622 46.297 95.9622 48.9805C95.9622 51.6715 98.0787 53.7805 100.762 53.7805ZM71.9622 68.1805C74.6532 68.1805 76.7622 66.0715 76.7622 63.3805C76.7622 60.697 74.6532 58.5805 71.9622 58.5805C69.2787 58.5805 67.1622 60.697 67.1622 63.3805C67.1622 66.0715 69.2787 68.1805 71.9622 68.1805ZM81.5622 68.1805C84.2532 68.1805 86.3622 66.0715 86.3622 63.3805C86.3622 60.697 84.2532 58.5805 81.5622 58.5805C78.8787 58.5805 76.7622 60.697 76.7622 63.3805C76.7622 66.0715 78.8787 68.1805 81.5622 68.1805ZM91.1622 68.1805C93.8532 68.1805 95.9622 66.0715 95.9622 63.3805C95.9622 60.697 93.8532 58.5805 91.1622 58.5805C88.4787 58.5805 86.3622 60.697 86.3622 63.3805C86.3622 66.0715 88.4787 68.1805 91.1622 68.1805ZM119.924 10.5805C122.615 10.5805 124.724 8.47151 124.724 5.78049C124.724 3.09702 122.615 0.980469 119.924 0.980469C117.241 0.980469 115.124 3.09702 115.124 5.78049C115.124 8.47151 117.241 10.5805 119.924 10.5805ZM129.524 10.5805C132.215 10.5805 134.324 8.47151 134.324 5.78049C134.324 3.09702 132.215 0.980469 129.524 0.980469C126.841 0.980469 124.724 3.09702 124.724 5.78049C124.724 8.47151 126.841 10.5805 129.524 10.5805ZM139.124 10.5805C141.815 10.5805 143.924 8.47151 143.924 5.78049C143.924 3.09702 141.815 0.980469 139.124 0.980469C136.441 0.980469 134.324 3.09702 134.324 5.78049C134.324 8.47151 136.441 10.5805 139.124 10.5805ZM148.724 10.5805C151.415 10.5805 153.524 8.47151 153.524 5.78049C153.524 3.09702 151.415 0.980469 148.724 0.980469C146.041 0.980469 143.924 3.09702 143.924 5.78049C143.924 8.47151 146.041 10.5805 148.724 10.5805ZM158.324 10.5805C161.015 10.5805 163.124 8.47151 163.124 5.78049C163.124 3.09702 161.015 0.980469 158.324 0.980469C155.641 0.980469 153.524 3.09702 153.524 5.78049C153.524 8.47151 155.641 10.5805 158.324 10.5805ZM139.124 24.9805C141.815 24.9805 143.924 22.8715 143.924 20.1805C143.924 17.497 141.815 15.3805 139.124 15.3805C136.441 15.3805 134.324 17.497 134.324 20.1805C134.324 22.8715 136.441 24.9805 139.124 24.9805ZM139.124 39.3805C141.815 39.3805 143.924 37.2715 143.924 34.5805C143.924 31.897 141.815 29.7805 139.124 29.7805C136.441 29.7805 134.324 31.897 134.324 34.5805C134.324 37.2715 136.441 39.3805 139.124 39.3805ZM139.124 53.7805C141.815 53.7805 143.924 51.6715 143.924 48.9805C143.924 46.297 141.815 44.1805 139.124 44.1805C136.441 44.1805 134.324 46.297 134.324 48.9805C134.324 51.6715 136.441 53.7805 139.124 53.7805ZM139.124 68.1805C141.815 68.1805 143.924 66.0715 143.924 63.3805C143.924 60.697 141.815 58.5805 139.124 58.5805C136.441 58.5805 134.324 60.697 134.324 63.3805C134.324 66.0715 136.441 68.1805 139.124 68.1805ZM177.487 10.5805C180.178 10.5805 182.287 8.47151 182.287 5.78049C182.287 3.09702 180.178 0.980469 177.487 0.980469C174.803 0.980469 172.687 3.09702 172.687 5.78049C172.687 8.47151 174.803 10.5805 177.487 10.5805ZM215.887 10.5805C218.578 10.5805 220.687 8.47151 220.687 5.78049C220.687 3.09702 218.578 0.980469 215.887 0.980469C213.203 0.980469 211.087 3.09702 211.087 5.78049C211.087 8.47151 213.203 10.5805 215.887 10.5805ZM177.487 24.9805C180.178 24.9805 182.287 22.8715 182.287 20.1805C182.287 17.497 180.178 15.3805 177.487 15.3805C174.803 15.3805 172.687 17.497 172.687 20.1805C172.687 22.8715 174.803 24.9805 177.487 24.9805ZM215.887 24.9805C218.578 24.9805 220.687 22.8715 220.687 20.1805C220.687 17.497 218.578 15.3805 215.887 15.3805C213.203 15.3805 211.087 17.497 211.087 20.1805C211.087 22.8715 213.203 24.9805 215.887 24.9805ZM177.487 39.3805C180.178 39.3805 182.287 37.2715 182.287 34.5805C182.287 31.897 180.178 29.7805 177.487 29.7805C174.803 29.7805 172.687 31.897 172.687 34.5805C172.687 37.2715 174.803 39.3805 177.487 39.3805ZM187.087 39.3805C189.778 39.3805 191.887 37.2715 191.887 34.5805C191.887 31.897 189.778 29.7805 187.087 29.7805C184.403 29.7805 182.287 31.897 182.287 34.5805C182.287 37.2715 184.403 39.3805 187.087 39.3805ZM196.687 39.3805C199.378 39.3805 201.487 37.2715 201.487 34.5805C201.487 31.897 199.378 29.7805 196.687 29.7805C194.003 29.7805 191.887 31.897 191.887 34.5805C191.887 37.2715 194.003 39.3805 196.687 39.3805ZM206.287 39.3805C208.978 39.3805 211.087 37.2715 211.087 34.5805C211.087 31.897 208.978 29.7805 206.287 29.7805C203.603 29.7805 201.487 31.897 201.487 34.5805C201.487 37.2715 203.603 39.3805 206.287 39.3805ZM215.887 39.3805C218.578 39.3805 220.687 37.2715 220.687 34.5805C220.687 31.897 218.578 29.7805 215.887 29.7805C213.203 29.7805 211.087 31.897 211.087 34.5805C211.087 37.2715 213.203 39.3805 215.887 39.3805ZM177.487 53.7805C180.178 53.7805 182.287 51.6715 182.287 48.9805C182.287 46.297 180.178 44.1805 177.487 44.1805C174.803 44.1805 172.687 46.297 172.687 48.9805C172.687 51.6715 174.803 53.7805 177.487 53.7805ZM215.887 53.7805C218.578 53.7805 220.687 51.6715 220.687 48.9805C220.687 46.297 218.578 44.1805 215.887 44.1805C213.203 44.1805 211.087 46.297 211.087 48.9805C211.087 51.6715 213.203 53.7805 215.887 53.7805ZM177.487 68.1805C180.178 68.1805 182.287 66.0715 182.287 63.3805C182.287 60.697 180.178 58.5805 177.487 58.5805C174.803 58.5805 172.687 60.697 172.687 63.3805C172.687 66.0715 174.803 68.1805 177.487 68.1805ZM215.887 68.1805C218.578 68.1805 220.687 66.0715 220.687 63.3805C220.687 60.697 218.578 58.5805 215.887 58.5805C213.203 58.5805 211.087 60.697 211.087 63.3805C211.087 66.0715 213.203 68.1805 215.887 68.1805ZM235.053 10.5805C237.736 10.5805 239.853 8.47151 239.853 5.78049C239.853 3.09702 237.736 0.980469 235.053 0.980469C232.362 0.980469 230.253 3.09702 230.253 5.78049C230.253 8.47151 232.362 10.5805 235.053 10.5805ZM244.653 10.5805C247.336 10.5805 249.453 8.47151 249.453 5.78049C249.453 3.09702 247.336 0.980469 244.653 0.980469C241.962 0.980469 239.853 3.09702 239.853 5.78049C239.853 8.47151 241.962 10.5805 244.653 10.5805ZM254.253 10.5805C256.936 10.5805 259.053 8.47151 259.053 5.78049C259.053 3.09702 256.936 0.980469 254.253 0.980469C251.562 0.980469 249.453 3.09702 249.453 5.78049C249.453 8.47151 251.562 10.5805 254.253 10.5805ZM244.653 24.9805C247.336 24.9805 249.453 22.8715 249.453 20.1805C249.453 17.497 247.336 15.3805 244.653 15.3805C241.962 15.3805 239.853 17.497 239.853 20.1805C239.853 22.8715 241.962 24.9805 244.653 24.9805ZM244.653 39.3805C247.336 39.3805 249.453 37.2715 249.453 34.5805C249.453 31.897 247.336 29.7805 244.653 29.7805C241.962 29.7805 239.853 31.897 239.853 34.5805C239.853 37.2715 241.962 39.3805 244.653 39.3805ZM244.653 53.7805C247.336 53.7805 249.453 51.6715 249.453 48.9805C249.453 46.297 247.336 44.1805 244.653 44.1805C241.962 44.1805 239.853 46.297 239.853 48.9805C239.853 51.6715 241.962 53.7805 244.653 53.7805ZM235.053 68.1805C237.736 68.1805 239.853 66.0715 239.853 63.3805C239.853 60.697 237.736 58.5805 235.053 58.5805C232.362 58.5805 230.253 60.697 230.253 63.3805C230.253 66.0715 232.362 68.1805 235.053 68.1805ZM244.653 68.1805C247.336 68.1805 249.453 66.0715 249.453 63.3805C249.453 60.697 247.336 58.5805 244.653 58.5805C241.962 58.5805 239.853 60.697 239.853 63.3805C239.853 66.0715 241.962 68.1805 244.653 68.1805ZM254.253 68.1805C256.936 68.1805 259.053 66.0715 259.053 63.3805C259.053 60.697 256.936 58.5805 254.253 58.5805C251.562 58.5805 249.453 60.697 249.453 63.3805C249.453 66.0715 251.562 68.1805 254.253 68.1805ZM273.487 10.5805C276.178 10.5805 278.287 8.47151 278.287 5.78049C278.287 3.09702 276.178 0.980469 273.487 0.980469C270.803 0.980469 268.687 3.09702 268.687 5.78049C268.687 8.47151 270.803 10.5805 273.487 10.5805ZM311.887 10.5805C314.578 10.5805 316.687 8.47151 316.687 5.78049C316.687 3.09702 314.578 0.980469 311.887 0.980469C309.203 0.980469 307.087 3.09702 307.087 5.78049C307.087 8.47151 309.203 10.5805 311.887 10.5805ZM273.487 24.9805C276.178 24.9805 278.287 22.8715 278.287 20.1805C278.287 17.497 276.178 15.3805 273.487 15.3805C270.803 15.3805 268.687 17.497 268.687 20.1805C268.687 22.8715 270.803 24.9805 273.487 24.9805ZM283.087 24.9805C285.778 24.9805 287.887 22.8715 287.887 20.1805C287.887 17.497 285.778 15.3805 283.087 15.3805C280.403 15.3805 278.287 17.497 278.287 20.1805C278.287 22.8715 280.403 24.9805 283.087 24.9805ZM311.887 24.9805C314.578 24.9805 316.687 22.8715 316.687 20.1805C316.687 17.497 314.578 15.3805 311.887 15.3805C309.203 15.3805 307.087 17.497 307.087 20.1805C307.087 22.8715 309.203 24.9805 311.887 24.9805ZM273.487 39.3805C276.178 39.3805 278.287 37.2715 278.287 34.5805C278.287 31.897 276.178 29.7805 273.487 29.7805C270.803 29.7805 268.687 31.897 268.687 34.5805C268.687 37.2715 270.803 39.3805 273.487 39.3805ZM292.687 39.3805C295.378 39.3805 297.487 37.2715 297.487 34.5805C297.487 31.897 295.378 29.7805 292.687 29.7805C290.003 29.7805 287.887 31.897 287.887 34.5805C287.887 37.2715 290.003 39.3805 292.687 39.3805ZM311.887 39.3805C314.578 39.3805 316.687 37.2715 316.687 34.5805C316.687 31.897 314.578 29.7805 311.887 29.7805C309.203 29.7805 307.087 31.897 307.087 34.5805C307.087 37.2715 309.203 39.3805 311.887 39.3805ZM273.487 53.7805C276.178 53.7805 278.287 51.6715 278.287 48.9805C278.287 46.297 276.178 44.1805 273.487 44.1805C270.803 44.1805 268.687 46.297 268.687 48.9805C268.687 51.6715 270.803 53.7805 273.487 53.7805ZM302.287 53.7805C304.978 53.7805 307.087 51.6715 307.087 48.9805C307.087 46.297 304.978 44.1805 302.287 44.1805C299.603 44.1805 297.487 46.297 297.487 48.9805C297.487 51.6715 299.603 53.7805 302.287 53.7805ZM311.887 53.7805C314.578 53.7805 316.687 51.6715 316.687 48.9805C316.687 46.297 314.578 44.1805 311.887 44.1805C309.203 44.1805 307.087 46.297 307.087 48.9805C307.087 51.6715 309.203 53.7805 311.887 53.7805ZM273.487 68.1805C276.178 68.1805 278.287 66.0715 278.287 63.3805C278.287 60.697 276.178 58.5805 273.487 58.5805C270.803 58.5805 268.687 60.697 268.687 63.3805C268.687 66.0715 270.803 68.1805 273.487 68.1805ZM311.887 68.1805C314.578 68.1805 316.687 66.0715 316.687 63.3805C316.687 60.697 314.578 58.5805 311.887 58.5805C309.203 58.5805 307.087 60.697 307.087 63.3805C307.087 66.0715 309.203 68.1805 311.887 68.1805ZM340.653 10.5805C343.336 10.5805 345.453 8.47151 345.453 5.78049C345.453 3.09702 343.336 0.980469 340.653 0.980469C337.962 0.980469 335.853 3.09702 335.853 5.78049C335.853 8.47151 337.962 10.5805 340.653 10.5805ZM350.253 10.5805C352.936 10.5805 355.053 8.47151 355.053 5.78049C355.053 3.09702 352.936 0.980469 350.253 0.980469C347.562 0.980469 345.453 3.09702 345.453 5.78049C345.453 8.47151 347.562 10.5805 350.253 10.5805ZM359.853 10.5805C362.536 10.5805 364.653 8.47151 364.653 5.78049C364.653 3.09702 362.536 0.980469 359.853 0.980469C357.162 0.980469 355.053 3.09702 355.053 5.78049C355.053 8.47151 357.162 10.5805 359.853 10.5805ZM369.453 10.5805C372.136 10.5805 374.253 8.47151 374.253 5.78049C374.253 3.09702 372.136 0.980469 369.453 0.980469C366.762 0.980469 364.653 3.09702 364.653 5.78049C364.653 8.47151 366.762 10.5805 369.453 10.5805ZM331.053 24.9805C333.736 24.9805 335.853 22.8715 335.853 20.1805C335.853 17.497 333.736 15.3805 331.053 15.3805C328.362 15.3805 326.253 17.497 326.253 20.1805C326.253 22.8715 328.362 24.9805 331.053 24.9805ZM331.053 39.3805C333.736 39.3805 335.853 37.2715 335.853 34.5805C335.853 31.897 333.736 29.7805 331.053 29.7805C328.362 29.7805 326.253 31.897 326.253 34.5805C326.253 37.2715 328.362 39.3805 331.053 39.3805ZM350.253 39.3805C352.936 39.3805 355.053 37.2715 355.053 34.5805C355.053 31.897 352.936 29.7805 350.253 29.7805C347.562 29.7805 345.453 31.897 345.453 34.5805C345.453 37.2715 347.562 39.3805 350.253 39.3805ZM359.853 39.3805C362.536 39.3805 364.653 37.2715 364.653 34.5805C364.653 31.897 362.536 29.7805 359.853 29.7805C357.162 29.7805 355.053 31.897 355.053 34.5805C355.053 37.2715 357.162 39.3805 359.853 39.3805ZM369.453 39.3805C372.136 39.3805 374.253 37.2715 374.253 34.5805C374.253 31.897 372.136 29.7805 369.453 29.7805C366.762 29.7805 364.653 31.897 364.653 34.5805C364.653 37.2715 366.762 39.3805 369.453 39.3805ZM331.053 53.7805C333.736 53.7805 335.853 51.6715 335.853 48.9805C335.853 46.297 333.736 44.1805 331.053 44.1805C328.362 44.1805 326.253 46.297 326.253 48.9805C326.253 51.6715 328.362 53.7805 331.053 53.7805ZM369.453 53.7805C372.136 53.7805 374.253 51.6715 374.253 48.9805C374.253 46.297 372.136 44.1805 369.453 44.1805C366.762 44.1805 364.653 46.297 364.653 48.9805C364.653 51.6715 366.762 53.7805 369.453 53.7805ZM340.653 68.1805C343.336 68.1805 345.453 66.0715 345.453 63.3805C345.453 60.697 343.336 58.5805 340.653 58.5805C337.962 58.5805 335.853 60.697 335.853 63.3805C335.853 66.0715 337.962 68.1805 340.653 68.1805ZM350.253 68.1805C352.936 68.1805 355.053 66.0715 355.053 63.3805C355.053 60.697 352.936 58.5805 350.253 58.5805C347.562 58.5805 345.453 60.697 345.453 63.3805C345.453 66.0715 347.562 68.1805 350.253 68.1805ZM359.853 68.1805C362.536 68.1805 364.653 66.0715 364.653 63.3805C364.653 60.697 362.536 58.5805 359.853 58.5805C357.162 58.5805 355.053 60.697 355.053 63.3805C355.053 66.0715 357.162 68.1805 359.853 68.1805Z"
		fill="currentColor"></path>
</svg>
