<svg width="193" height="96" viewBox="0 0 193 96" fill="none" xmlns="http://www.w3.org/2000/svg">
<path d="M49.3685 45.5831H50.9937C52.944 45.5831 53.2041 44.3474 53.2041 42.8527V34.7909C53.2041 33.1008 52.944 31.9308 50.9937 31.9308H49.3685V45.5831ZM49.3685 53.4481V72.8203H40.7226V24.4549H53.0092C60.3546 24.4549 61.9153 28.0959 61.9153 34.0114V43.6977C61.9153 49.6133 59.5096 53.4481 53.4643 53.4481H49.3685Z" fill="white"/>
<path d="M74.0048 44.1521H75.6948C77.3856 44.1521 78.1005 43.5024 78.1005 41.2264V34.6612C78.1005 32.5805 77.7103 31.9308 75.955 31.9308H74.0048V44.1521ZM74.0048 72.8203H65.3588V24.4549H79.0104C84.2759 24.4549 86.9418 27.3806 86.9418 32.5156V40.2517C86.9418 44.1521 84.7314 46.1023 83.1058 46.7528C84.536 47.2731 86.8117 48.8327 86.8117 52.473V68.9199C86.8117 71.0005 87.2012 71.9104 87.5266 72.4953V72.8203H78.8803C78.4904 72.3 78.1005 71.2607 78.1005 69.1152V55.0085C78.1005 52.798 77.5802 52.1483 75.8249 52.1483H74.0048V72.8203Z" fill="white"/>
<path d="M90.5145 72.8203V24.4549H99.1604V72.8203H90.5145Z" fill="white"/>
<path d="M103.06 24.4549H113.721L117.036 48.8976L120.352 24.4549H130.298V72.8203H122.497V44.2177L118.206 72.8203H114.956L110.6 44.2177V72.8203H103.06V24.4549Z" fill="white"/>
<path d="M152.267 24.4549V32.9711H142.841V43.5024H150.252V52.2132H142.841V64.1095H152.723V72.8203H134.195V24.4549H152.267Z" fill="white"/>
</svg>
