<svg xmlns="http://www.w3.org/2000/svg" width="112" height="49" viewBox="0 0 112 49" fill="none">
	<path
		fill="currentColor"
		d="M8.646 21.581h1.625c1.95 0 2.21-1.235 2.21-2.73v-8.062c0-1.69-.26-2.86-2.21-2.86H8.646v13.652Zm0 7.865V48.82H0V.453h12.287c7.345 0 8.906 3.641 8.906 9.557v9.686c0 5.915-2.406 9.75-8.451 9.75H8.646ZM33.282 20.15h1.69c1.69 0 2.406-.65 2.406-2.925v-6.566c0-2.08-.39-2.73-2.146-2.73h-1.95V20.15Zm0 28.669h-8.646V.453h13.652c5.265 0 7.931 2.926 7.931 8.06v7.737c0 3.9-2.21 5.85-3.836 6.501 1.43.52 3.706 2.08 3.706 5.72v16.447c0 2.08.39 2.99.715 3.576v.325h-8.646c-.39-.52-.78-1.56-.78-3.706V31.008c0-2.21-.52-2.86-2.276-2.86h-1.82v20.672ZM49.792 48.819V.453h8.646V48.82h-8.646ZM62.337.453h10.661l3.316 24.443L79.629.453h9.946V48.82h-7.8V20.216l-4.291 28.603h-3.25l-4.356-28.603v28.603h-7.541V.453ZM111.545.453V8.97h-9.426v10.532h7.41v8.71h-7.41v11.897H112v8.71H93.473V.454h18.072Z"
	></path>
</svg>
