<svg width="193" height="96" viewBox="0 0 193 96" fill="none" xmlns="http://www.w3.org/2000/svg">
<path fill-rule="evenodd" clip-rule="evenodd" d="M123.527 32H129.214V63.7312H123.527V32ZM169.584 45.3685V40.4444H163.703V34.0245H158.016V57.4298C158.016 59.5804 158.557 61.2193 159.624 62.3012C160.69 63.384 162.352 63.9329 164.563 63.9329H169.584V59.0089H165.91C165.111 59.0089 164.538 58.8332 164.206 58.4863C163.901 58.1688 163.703 57.3668 163.703 56.4433V45.3685H169.584ZM84.8944 57.555L90.7748 40.4438H96.7497L88.2608 63.7315H81.5281L73.0391 40.4438H79.014L84.8944 57.555ZM148.746 52.1099C148.746 53.5842 148.522 54.8668 148.082 55.922C147.645 56.9715 147.019 57.7761 146.221 58.3128C145.423 58.8495 144.442 59.1217 143.305 59.1217C141.679 59.1217 140.452 58.5873 139.659 57.5339C138.857 56.4693 138.45 54.8558 138.45 52.7385V40.4444H132.763V53.3671C132.763 55.3793 133.014 57.086 133.511 58.4392C134.008 59.7965 134.691 60.9006 135.54 61.7202C136.389 62.5389 137.38 63.1302 138.486 63.4783C139.586 63.8246 140.77 64 142.004 64C143.782 64 145.254 63.6775 146.377 63.0414C147.401 62.4595 148.26 61.7792 148.932 61.0163L149.441 63.7311H154.433V40.4444H148.746V52.1099ZM114.833 41.6725C113.04 40.6787 110.912 40.1753 108.508 40.1753C106.133 40.1753 104.012 40.6787 102.205 41.6721C100.396 42.6681 98.9746 44.0746 97.98 45.8525C96.9869 47.6288 96.4834 49.7342 96.4834 52.1099C96.4834 54.4565 96.9869 56.5472 97.98 58.3235C98.974 60.1008 100.396 61.507 102.205 62.5028C104.012 63.4963 106.133 63.9997 108.508 63.9997C110.912 63.9997 113.04 63.4963 114.833 62.5025C116.627 61.5072 118.041 60.1011 119.035 58.3235C120.029 56.5462 120.532 54.4555 120.532 52.1099C120.532 49.7351 120.029 47.6297 119.035 45.8524C118.04 44.0743 116.627 42.6677 114.833 41.6725ZM111.828 58.3115C110.912 58.9081 109.795 59.2108 108.508 59.2108C107.251 59.2108 106.141 58.9082 105.209 58.3113C104.276 57.7137 103.544 56.8703 103.034 55.8041C102.521 54.7369 102.261 53.4942 102.261 52.1099C102.261 50.6971 102.521 49.4472 103.034 48.3945C103.544 47.3427 104.277 46.499 105.211 45.8864C106.142 45.2744 107.251 44.9642 108.508 44.9642C109.794 44.9642 110.91 45.2744 111.827 45.8857C112.746 46.4987 113.471 47.3427 113.983 48.3948C114.495 49.45 114.755 50.7 114.755 52.11C114.755 53.4911 114.495 54.7342 113.983 55.8041C113.471 56.8705 112.746 57.714 111.828 58.3115ZM30.6332 39.8312H24.7227V63.7315H30.6332V39.8312ZM49.1685 41.1979C49.1685 36.1264 45.0387 32.0003 39.9622 32.0003H24.7227V37.1044H39.2376C41.535 37.1044 43.438 38.9093 43.4801 41.1276C43.5011 42.2383 43.0842 43.2866 42.3063 44.0793C41.5281 44.8722 40.4883 45.3092 39.3785 45.3092H33.7241C33.5234 45.3092 33.36 45.4723 33.36 45.6731V50.2094C33.36 50.2866 33.3838 50.3603 33.4286 50.4224L43.0221 63.7316H50.0446L40.4289 50.386C45.2714 50.1429 49.1685 46.0742 49.1685 41.1979ZM67.343 41.5369C65.6404 40.6333 63.6188 40.1753 61.3343 40.1753C59.0469 40.1753 57.0018 40.6791 55.2556 41.6731C53.5065 42.6681 52.1305 44.0749 51.1659 45.8537C50.2023 47.6285 49.7139 49.7486 49.7139 52.1554C49.7139 54.5011 50.2098 56.5911 51.1885 58.3677C52.1693 60.1484 53.584 61.5474 55.3926 62.5257C57.1978 63.5041 59.3632 64 61.828 64C63.7834 64 65.5394 63.6337 67.0472 62.9106C68.5553 62.1857 69.7865 61.1986 70.7068 59.9765C71.581 58.815 72.1708 57.5013 72.4593 56.0723L72.4904 55.9198H66.8345L66.8078 56.0114C66.4964 57.0773 65.8922 57.9195 65.0114 58.5152C64.066 59.1557 62.9048 59.4806 61.5595 59.4806C60.4193 59.4806 59.3895 59.2363 58.499 58.7545C57.6128 58.2755 56.9199 57.5905 56.44 56.7178C55.9582 55.8421 55.684 54.7884 55.6254 53.5924V53.4054H72.7096L72.7287 53.301C72.7883 52.9732 72.8266 52.6354 72.8432 52.2957C72.8573 51.9647 72.8655 51.6341 72.8655 51.3004C72.835 49.0441 72.3307 47.0595 71.3668 45.4011C70.3991 43.7408 69.0453 42.4406 67.343 41.5369ZM65.2706 45.9224C66.2423 46.7402 66.8468 47.9023 67.0685 49.3788H55.8218C55.9503 48.4208 56.2684 47.5911 56.7681 46.9105C57.2923 46.1966 57.9638 45.6357 58.7643 45.2433C59.5657 44.8497 60.4456 44.6499 61.3791 44.6499C62.9572 44.6498 64.2665 45.078 65.2706 45.9224Z" fill="white"/>
</svg>
