<svg width="193" height="96" viewBox="0 0 193 96" fill="none" xmlns="http://www.w3.org/2000/svg">
<path d="M36.0183 22.0859C21.5396 22.0859 9.80176 33.6909 9.80176 48.0061C9.80176 62.3219 21.5396 73.9259 36.0183 73.9259C50.4985 73.9259 62.2351 62.3219 62.2351 48.0061C62.2351 33.6918 50.4985 22.0872 36.0179 22.0872L36.0183 22.0859ZM48.041 59.4702C47.5714 60.2317 46.5633 60.4731 45.7932 60.0057C39.6378 56.2883 31.889 55.4464 22.7633 57.5078C21.884 57.7059 21.0074 57.1612 20.807 56.2914C20.6057 55.4217 21.1545 54.555 22.0361 54.3569C32.0227 52.1011 40.5889 53.0724 47.4994 57.2478C48.2695 57.7152 48.5137 58.7088 48.041 59.4702ZM51.2498 52.4125C50.6581 53.3633 49.3997 53.6636 48.4386 53.0786C41.3916 48.796 30.6496 47.5557 22.3144 50.0573C21.2334 50.3801 20.0917 49.7778 19.7636 48.7109C19.438 47.6421 20.0476 46.5154 21.1267 46.1904C30.6477 43.3341 42.4842 44.7177 50.5768 49.6345C51.5378 50.2195 51.8415 51.4635 51.2498 52.4125ZM51.5253 45.0631C43.0759 40.1012 29.1353 39.6449 21.0681 42.0657C19.7727 42.4542 18.4027 41.7311 18.0102 40.4503C17.6176 39.1689 18.3483 37.8153 19.6446 37.4259C28.9052 34.6464 44.2999 35.1834 54.0279 40.8932C55.1956 41.577 55.5776 43.0648 54.8857 44.2153C54.197 45.3674 52.688 45.7472 51.5266 45.0631H51.5253ZM81.1282 46.014C76.6013 44.9467 75.7968 44.1977 75.7968 42.6238C75.7968 41.1368 77.2118 40.1361 79.3187 40.1361C81.3598 40.1361 83.3822 40.896 85.5048 42.4603C85.5674 42.5077 85.6488 42.5266 85.727 42.5142C85.8084 42.5024 85.8773 42.4594 85.9243 42.3947L88.1344 39.3143C88.2252 39.1874 88.2002 39.0126 88.0781 38.9157C85.5517 36.9121 82.7091 35.9381 79.3845 35.9381C74.4976 35.9381 71.0821 38.838 71.0821 42.9872C71.0821 47.4366 74.028 49.012 79.1183 50.2282C83.448 51.2146 84.1805 52.041 84.1805 53.5181C84.1805 55.1555 82.7029 56.1738 80.3236 56.1738C77.6814 56.1738 75.5244 55.2917 73.1139 53.2302C73.0544 53.1776 72.973 53.1559 72.8979 53.159C72.8165 53.1652 72.7445 53.2024 72.6944 53.2612L70.2149 56.1769C70.1116 56.3007 70.1242 56.4802 70.2431 56.5855C73.0481 59.0617 76.498 60.3678 80.2234 60.3678C85.4891 60.3678 88.8921 57.5233 88.8921 53.1188C88.9014 49.4023 86.6505 47.344 81.1376 46.018L81.1282 46.014ZM100.807 41.6002C98.5249 41.6002 96.6528 42.4891 95.1063 44.3107V42.2604C95.1063 42.0985 94.9748 41.9667 94.812 41.9667H90.7579C90.5951 41.9667 90.4636 42.0985 90.4636 42.2604V65.0417C90.4636 65.2026 90.5951 65.3357 90.7579 65.3357H94.812C94.9748 65.3357 95.1063 65.2026 95.1063 65.0417V57.8514C96.6528 59.5631 98.5249 60.4019 100.807 60.4019C105.049 60.4019 109.344 57.1736 109.344 51.002C109.35 44.8291 105.055 41.5999 100.81 41.5999L100.807 41.6002ZM104.63 51.002C104.63 54.1433 102.673 56.3378 99.8679 56.3378C97.0973 56.3378 95.0061 54.0443 95.0061 51.002C95.0061 47.9593 97.0973 45.6664 99.8679 45.6664C102.626 45.6661 104.63 47.9098 104.63 51.002ZM120.348 41.6002C114.885 41.6002 110.606 45.7589 110.606 51.0691C110.606 56.3224 114.857 60.4359 120.282 60.4359C125.764 60.4359 130.056 56.2914 130.056 51.002C130.056 45.7305 125.792 41.6008 120.348 41.6008V41.6002ZM120.348 56.3688C117.443 56.3688 115.252 54.0597 115.252 51.0004C115.252 47.9272 117.368 45.697 120.282 45.697C123.206 45.697 125.41 48.0052 125.41 51.0676C125.41 54.1402 123.282 56.3688 120.348 56.3688ZM141.721 41.9667H137.26V37.4581C137.26 37.2966 137.128 37.1647 136.965 37.1647H132.911C132.748 37.1647 132.614 37.2966 132.614 37.4581V41.9667H130.667C130.504 41.9667 130.372 42.0985 130.372 42.2604V45.7045C130.372 45.866 130.504 45.9982 130.667 45.9982H132.614V54.9109C132.614 58.5107 134.426 60.3369 138.005 60.3369C139.457 60.3369 140.663 60.0397 141.799 59.4021C141.893 59.3526 141.949 59.2536 141.949 59.1483V55.8674C141.949 55.7683 141.896 55.6724 141.808 55.6197C141.721 55.564 141.611 55.5609 141.52 55.6074C140.741 55.9943 139.986 56.1738 139.141 56.1738C137.842 56.1738 137.26 55.5888 137.26 54.2826V45.9997H141.721C141.884 45.9997 142.015 45.8679 142.015 45.706V42.2622C142.021 42.1004 141.89 41.9685 141.724 41.9685L141.721 41.9667ZM157.261 41.9843V41.4306C157.261 39.8015 157.893 39.0751 159.308 39.0751C160.154 39.0751 160.833 39.241 161.594 39.4917C161.688 39.5208 161.785 39.5062 161.86 39.4508C161.938 39.3954 161.982 39.3066 161.982 39.2125V35.8356C161.982 35.7065 161.901 35.5923 161.772 35.5542C160.971 35.3181 159.944 35.0757 158.404 35.0757C154.663 35.0757 152.681 37.1601 152.681 41.1012V41.9493H150.734C150.571 41.9493 150.436 42.0812 150.436 42.2427V45.7045C150.436 45.866 150.571 45.9982 150.734 45.9982H152.681V59.7426C152.681 59.9067 152.816 60.0367 152.978 60.0367H157.029C157.195 60.0367 157.327 59.9067 157.327 59.7426V45.9991H161.112L166.91 59.7426C166.252 61.185 165.604 61.4728 164.721 61.4728C164.007 61.4728 163.253 61.2624 162.486 60.8445C162.414 60.8074 162.326 60.8012 162.251 60.8228C162.173 60.8507 162.107 60.9064 162.076 60.9807L160.702 63.9614C160.636 64.1038 160.692 64.2678 160.83 64.3421C162.264 65.1097 163.557 65.4378 165.156 65.4378C168.149 65.4378 169.805 64.0574 171.261 60.3493L178.292 42.3854C178.33 42.2951 178.317 42.1929 178.261 42.1127C178.208 42.0332 178.117 41.9852 178.02 41.9852H173.8C173.672 41.9852 173.559 42.0648 173.518 42.1821L169.195 54.3878L164.461 42.174C164.418 42.0604 164.308 41.9852 164.186 41.9852H157.261V41.9843ZM148.251 41.9667H144.197C144.034 41.9667 143.9 42.0985 143.9 42.2604V59.7426C143.9 59.9067 144.034 60.0367 144.197 60.0367H148.251C148.414 60.0367 148.549 59.9067 148.549 59.7426V42.2616C148.549 42.0997 148.417 41.9679 148.251 41.9679V41.9667ZM146.248 34.006C144.642 34.006 143.339 35.2912 143.339 36.8787C143.339 38.4672 144.642 39.7539 146.248 39.7539C147.854 39.7539 149.153 38.4672 149.153 36.8787C149.153 35.2915 147.85 34.006 146.248 34.006ZM181.755 47.5879C180.152 47.5879 178.903 46.3142 178.903 44.7675C178.903 43.2208 180.168 41.9326 181.77 41.9326C183.373 41.9326 184.622 43.206 184.622 44.7514C184.622 46.2981 183.358 47.5879 181.755 47.5879ZM181.77 42.213C180.308 42.213 179.203 43.3614 179.203 44.7675C179.203 46.1731 180.302 47.3059 181.755 47.3059C183.217 47.3059 184.322 46.1585 184.322 44.7514C184.322 43.3459 183.223 42.213 181.77 42.213ZM182.403 45.0415L183.21 46.1582H182.528L181.802 45.1337H181.179V46.1582H180.609V43.1979H181.943C182.641 43.1979 183.098 43.5499 183.098 44.1423C183.101 44.6276 182.816 44.9242 182.406 45.0415H182.403ZM181.921 43.7059H181.179V44.6422H181.921C182.29 44.6422 182.512 44.463 182.512 44.1736C182.512 43.869 182.29 43.7059 181.921 43.7059Z" fill="white"/>
</svg>
