<svg xmlns="http://www.w3.org/2000/svg" width="512" height="123" viewBox="0 0 512 123">
	<path fill="currentColor"
		d="M3128.08 357.49c-6.1-3.43-10.86-8.19-14.3-14.27-3.44-6.08-5.15-12.89-5.15-20.44 0-7.65 1.72-14.51 5.15-20.59 3.43-6.08 8.2-10.83 14.3-14.27 6.1-3.43 12.92-5.15 20.47-5.15 7.55 0 14.37 1.72 20.47 5.15 6.1 3.43 10.86 8.19 14.27 14.27 3.43 6.08 5.15 12.94 5.15 20.59 0 7.55-1.72 14.36-5.15 20.44-3.44 6.08-8.2 10.83-14.3 14.27-6.1 3.43-12.92 5.15-20.47 5.15-7.55-.01-14.37-1.72-20.47-5.15zm37.16-6.33c4.94-2.84 8.78-6.74 11.54-11.69 2.76-4.95 4.14-10.56 4.14-16.84 0-6.27-1.38-11.89-4.14-16.84-2.76-4.95-6.6-8.82-11.54-11.62-4.94-2.79-10.5-4.19-16.69-4.19-6.29 0-11.88 1.4-16.77 4.19-4.89 2.79-8.71 6.67-11.47 11.62-2.76 4.95-4.14 10.57-4.14 16.84 0 6.28 1.38 11.89 4.14 16.84 2.76 4.95 6.58 8.85 11.47 11.69 4.89 2.84 10.47 4.26 16.77 4.26 6.19.01 11.76-1.41 16.69-4.26zm-31.79-47.94h17.56c4.94 0 8.69.98 11.25 2.94 2.56 1.96 3.85 4.71 3.85 8.24 0 2.55-.82 4.73-2.47 6.54-1.65 1.82-4.06 3.07-7.26 3.75l11.61 15.29h-10.89l-10.74-14.27h-3.92v14.27h-9v-36.76zm23.37 11.32c0-2.94-2.32-4.41-6.97-4.41h-7.4v8.53h7.26c4.74 0 7.11-1.37 7.11-4.12z"
		transform="matrix(.16122963 .00000596 0 .16048703 -2.07583252 -.24499398)"></path>
	<g fill="currentColor">
		<g>
			<path
				d="M1240.48 395.06c-21.51-21.94-52.67-38.19-93.49-48.72l-38.85-10.53c-25.46-6.58-44.44-12.61-56.95-18.11-12.51-5.48-20.85-11.19-25.02-17.12-4.18-5.93-6.25-13.27-6.25-22.06 0-14.48 7.24-26.77 21.73-36.87 14.48-10.09 35.55-15.14 63.21-15.14 54.79 0 123.85 32.17 143.53 58.87V182.4c-15.37-11.85-36.21-22.06-62.55-30.62-26.34-8.56-54.65-12.84-84.93-12.84-37.76 0-70.23 6.48-97.44 19.42-27.22 12.95-47.96 30.29-62.22 52.01-14.27 21.73-21.4 45.1-21.4 70.12 0 37.31 10.86 66.5 32.59 87.57 21.73 21.07 53.43 37.1 95.14 48.06l38.85 10.53c24.58 6.58 43.01 12.95 55.31 19.09 12.28 6.15 20.41 12.51 24.36 19.09 3.95 6.58 5.93 14.71 5.93 24.36 0 16.24-6.7 29.08-20.08 38.52-13.39 9.44-32.82 14.16-58.27 14.16-57.44 0-144.47-38.11-173.82-85.84v111.51c15.36 15.8 39.5 29.96 72.42 42.47 32.92 12.51 68.25 18.76 106 18.76 35.55 0 66.5-6.37 92.83-19.09 26.34-12.73 46.52-30.17 60.57-52.34 14.04-22.16 21.07-46.85 21.07-74.07-.01-36.85-10.77-66.25-32.27-88.21zM1656.76 358.34c-13.06-27.08-31.17-48.41-54.31-63.98-23.15-15.57-49.16-23.36-78.03-23.36-54.09 0-95.8 26.18-125.13 78.53v-73.38h-96.94v452.48h96.94V550.61c29.33 51.45 71.26 77.18 125.81 77.18 28.88 0 54.88-7.68 78.03-23.02 23.14-15.34 41.13-36.56 53.97-63.64 12.83-27.08 19.25-57.55 19.25-91.4 0-33.85-6.53-64.31-19.59-91.39zm-100.04 161.13c-14.67 17.6-33.92 26.4-57.75 26.4-23.38 0-44.12-9.14-62.22-27.42-18.11-18.28-31.28-41.4-39.53-69.39 8.25-27.98 21.42-51.11 39.53-69.39 18.1-18.28 38.84-27.42 62.22-27.42 23.83 0 43.08 9.03 57.75 27.08 14.66 18.06 22 41.53 22 70.41 0 28.88-7.33 52.12-22 69.73zM2055.46 357.76c-16.05-27.52-38.39-49.19-67.03-64.99-28.65-15.79-61.31-23.7-97.97-23.7-36.67 0-69.33 7.9-97.97 23.7-28.65 15.8-50.88 37.47-66.69 64.99-15.81 27.53-23.72 58.22-23.72 92.07 0 33.41 7.91 63.87 23.72 91.4 15.81 27.53 38.04 49.2 66.69 64.99 28.64 15.79 61.3 23.7 97.97 23.7 36.66 0 69.32-7.9 97.97-23.7 28.64-15.79 50.98-37.46 67.03-64.99 16.04-27.52 24.06-57.99 24.06-91.4 0-33.85-8.02-64.53-24.06-92.07zm-98.31 162.48c-16.96 18.51-39.19 27.76-66.69 27.76-27.05 0-49.05-9.14-66-27.42-16.96-18.28-25.44-41.86-25.44-70.75 0-28.88 8.48-52.57 25.44-71.08 16.95-18.5 38.95-27.76 66-27.76 27.04 0 49.16 9.26 66.34 27.76 17.19 18.51 25.78 42.21 25.78 71.08.01 28.44-8.48 51.91-25.43 70.41zM2253.24 534.49c-8.02-8.12-12.03-21.43-12.03-39.94V355.76h93.88v-76.5h-93.88v-93.43h-.69L2079.65 310.4v45.36h63.94v153c0 38.82 10.31 68.04 30.94 87.67 20.62 19.63 48.35 29.45 83.19 29.45 14.2 0 36.83-2.4 48.29-6.01 11.45-3.62 24.04-10.58 30-16v-71c-29.04 23.23-71.5 13.04-82.77 1.62zM2373.3 212.87c10.76 10.15 24.63 15.23 41.59 15.23 16.5 0 30.13-5.08 40.91-15.23 10.76-10.16 16.16-22.9 16.16-38.25 0-15.34-5.39-28.1-16.16-38.25-10.77-10.15-24.41-15.23-40.91-15.23-16.96 0-30.83 5.08-41.59 15.23-10.77 10.15-16.16 22.91-16.16 38.25.01 15.35 5.39 28.09 16.16 38.25zm-7.22 406.54h97.63V279.26h-97.63zM2656.05 253.46c2.01-15.43 5.5-24.66 12.73-33.88 8.01-10.21 19-17.35 36.03-17.35 9.62 0 25.38 2.76 34.18 5.64 11.19 3.69 32.5 13.36 38 17l-35.09-84.8c-7.33-4.1-17.17-7.96-29.54-11.61-12.36-3.64-25.41-5.46-39.15-5.46-35.27 0-63.08 11.5-83.45 34.49-20.38 23-30.57 52.71-30.57 89.14v32.79h-61.01v77.18h61.01v262.97h96.85V356.59h90.67v-77.18h-90.67v-25.95z"
				transform="matrix(.16107976 .00000596 0 .16079313 -1.63383758 -.3826424)"></path>
			<path d="M2781 728h105l198.73-448.59h-98.23l-89.98 215.84-90.66-215.84h-107.84l146.3 314.2z"
				transform="matrix(.16107976 .00000596 0 .16079313 -1.63383758 -.3826424)"></path>
		</g>
		<path
			d="M78.984445 1.6799178C43.918336.4685675 14.361142 24.208149 12.973933 54.705334c-1.393863 30.497184 25.90787 56.197996 60.970653 57.409346 35.067764 1.21279 64.616654-22.526785 66.010504-53.025412 1.38722-30.497185-25.90953-56.2008842-60.970645-57.4093502ZM105.80548 82.632725c-.79008 1.212792-2.32865 1.818468-3.8273 1.636765-.45908-.05624-.91816-.187471-1.3473-.399458-8.398091-4.157526-17.551341-6.864318-27.203586-8.046826-9.652246-1.182509-19.311144-.772956-28.702248 1.212793-2.03923.429741-4.088441-.656149-4.582447-2.429912-.494006-1.772321.755148-3.556177 2.792714-3.985919 10.325891-2.181872 20.942861-2.631803 31.548189-1.333927 10.605328 1.297875 20.663423 4.272894 29.904828 8.844298 1.818.904187 2.45672 2.914452 1.42214 4.500744h-.005zm8.35153-14.50592c-1.29574 2.080927-4.29137 2.85821-6.68489 1.731943-9.826888-4.621878-20.467146-7.657464-31.623033-9.021675-11.157549-1.364212-22.343376-.995038-33.254754 1.091657-.592141.111041-1.179294.13123-1.748149.06056-1.981014-.24227-3.675937-1.525725-4.130024-3.328329-.587151-2.313102 1.097791-4.601689 3.75744-5.112187 12.062396-2.308776 24.427516-2.716885 36.751053-1.212792 12.318548 1.505535 24.078217 4.859822 34.939687 9.970566 2.39851 1.126267 3.28672 3.727787 1.99267 5.813039zm9.25637-16.350344c-1.21921 2.040549-3.75744 3.096154-6.2308 2.793316-.66865-.08076-1.324-.262459-1.95773-.545107-11.44198-5.177081-23.765505-8.596261-36.629621-10.168132-12.864117-1.570429-25.798091-1.237308-38.435996.995038-3.28672.581159-6.486948-1.267592-7.155602-4.121475-.668655-2.85821 1.457068-5.641431 4.738798-6.222592 13.996837-2.470288 28.306378-2.83802 42.542732-1.101751 14.234692 1.73771 27.872249 5.526064 40.543419 11.258347 2.97401 1.344022 4.12836 4.531027 2.5848 7.116682z"
			transform="matrix(.9693105 .00003584 0 1.1128843 -12.515765 -1.8229021)"></path>
	</g>
</svg>