<svg width="193" height="96" viewBox="0 0 193 96" fill="none" xmlns="http://www.w3.org/2000/svg">
<path d="M93.7851 37.11C98.93 37.8095 100.049 44.3759 105.309 44.3663C108.035 44.3616 109.653 42.6646 109.653 40.2713C109.653 35.072 103.228 31.4375 96.0183 31.4375C86.6349 31.4375 80.6277 38.4772 80.6277 47.7252C80.6277 56.7423 86.96 64.9786 96.5272 64.9786C105.586 64.9786 109.56 59.1355 109.56 53.2463C109.56 51.6816 107.758 51.3136 106.834 52.3716C105.494 53.8901 103.69 56.5128 99.7158 56.5128C94.6787 56.5128 89.7035 50.853 89.7791 41.9285C89.8155 37.6996 92.359 36.9156 93.7851 37.11Z" fill="white"/>
<path d="M144.101 31.4492C134.303 31.4492 127.785 38.304 127.785 48.4715C127.785 58.6852 135.735 65.0349 144.101 65.0349C153.159 65.0349 160.508 58.6852 160.508 48.4715C160.509 38.2578 152.698 31.4492 144.101 31.4492ZM146.696 60.4125C142.214 60.4125 137.342 48.7615 137.342 41.0526C137.342 37.6747 138.516 36.0717 140.866 36.0717C145.391 36.0717 150.307 49.0212 150.307 55.5622C150.307 58.8542 149.132 60.4125 146.696 60.4125Z" fill="white"/>
<path d="M62.2777 31.8516H54.6056C53.9125 31.8516 53.4499 32.2196 53.4499 32.8172V33.0004C53.4499 33.4179 53.7092 33.7732 54.0518 34.1222L54.0533 34.1238C54.0934 34.1652 54.1351 34.205 54.1767 34.2464C54.4071 34.5014 54.8489 35.1324 54.5272 35.9832L54.5288 35.9848L48.403 49.1177L42.7733 37.3711C42.7447 37.2978 42.7205 37.2277 42.6998 37.1576L42.4821 36.6062H42.4869L42.2435 35.9864L42.2452 35.9848C41.9235 35.134 42.3652 34.503 42.5957 34.248C42.6374 34.2066 42.679 34.1668 42.719 34.1253L42.7207 34.1238C43.0631 33.7748 43.3225 33.4195 43.3225 33.002V32.8188C43.3225 32.2212 42.8599 31.8532 42.1667 31.8532H29.8783C29.1853 31.8532 28.7227 32.2212 28.7227 32.8188V33.002C28.7227 33.3669 28.8331 33.668 29.014 33.9564L43.1432 62.2218C43.1879 62.3158 43.2328 62.405 43.2793 62.4926L43.3192 62.5739C43.3192 62.5739 43.3177 62.5691 43.3177 62.566C44.03 63.8773 44.9711 64.5179 46.5158 64.5179C48.3646 64.5179 49.4739 63.7355 50.2133 61.9414L63.1965 33.8353C63.3438 33.59 63.4318 33.327 63.4318 33.002V32.8188C63.4334 32.2196 62.9708 31.8516 62.2777 31.8516Z" fill="white"/>
<path d="M76.6678 31.8516H67.166C66.4729 31.8516 66.0103 32.2196 66.0103 32.8172V33.0004C66.0103 33.4179 66.2696 33.7732 66.6122 34.1222L66.6137 34.1238C66.6538 34.1652 66.6953 34.205 66.737 34.2464C66.9131 34.4408 67.2092 34.8567 67.1965 35.4208V60.9455C67.2092 61.5095 66.9131 61.9254 66.737 62.1214C66.6953 62.1628 66.6538 62.2026 66.6137 62.2441L66.6122 62.2457C66.2696 62.5946 66.0103 62.95 66.0103 63.3674V63.5507C66.0103 64.1482 66.4729 64.5162 67.166 64.5162H70.7434V64.5131H73.0869V64.5162H76.6645C77.3577 64.5162 77.8203 64.1482 77.8203 63.5507V63.3674C77.8203 62.95 77.5609 62.5946 77.2183 62.2457L77.2165 62.2441C77.1767 62.2026 77.1351 62.1628 77.0936 62.1214C76.9173 61.927 76.6229 61.5112 76.6337 60.9486V35.4208C76.6229 34.8583 76.9173 34.4424 77.0936 34.248C77.1351 34.2066 77.1767 34.1668 77.2165 34.1253L77.2183 34.1238C77.5609 33.7748 77.8203 33.4195 77.8203 33.002V32.8188C77.8232 32.2196 77.3606 31.8516 76.6678 31.8516Z" fill="white"/>
<path d="M123.71 31.8516H114.21C113.517 31.8516 113.054 32.2196 113.054 32.8172V33.0004C113.054 33.4179 113.314 33.7732 113.656 34.1222L113.658 34.1238C113.698 34.1652 113.739 34.205 113.781 34.2464C113.957 34.4408 114.253 34.8583 114.24 35.4224V60.947C114.253 61.5112 113.957 61.9285 113.781 62.1229C113.739 62.1644 113.698 62.2043 113.658 62.2457L113.656 62.2472C113.314 62.5962 113.054 62.9515 113.054 63.369V63.5522C113.054 64.1498 113.517 64.5179 114.21 64.5179H117.788V64.5146H120.131V64.5179H123.708C124.402 64.5179 124.864 64.1498 124.864 63.5522V63.369C124.864 62.9515 124.605 62.5962 124.262 62.2472L124.261 62.2457C124.221 62.2043 124.179 62.1644 124.137 62.1229C123.962 61.9285 123.667 61.5127 123.678 60.9503V35.4208C123.667 34.8583 123.962 34.4424 124.137 34.248C124.179 34.2066 124.221 34.1668 124.261 34.1253L124.262 34.1238C124.605 33.7748 124.864 33.4195 124.864 33.002V32.8188C124.866 32.2196 124.403 31.8516 123.71 31.8516Z" fill="white"/>
<path d="M156.335 32.4244H156.391C156.544 32.4244 156.584 32.0595 156.796 32.0595H156.884V33.5493C156.884 33.6943 156.754 33.7373 156.754 33.8297V33.8409C156.754 33.8791 156.782 33.903 156.825 33.903H157.546C157.592 33.903 157.621 33.8791 157.621 33.8409V33.8297C157.621 33.7389 157.487 33.6943 157.487 33.5493V32.0595H157.575C157.789 32.0595 157.827 32.4244 157.981 32.4244H158.037C158.092 32.4244 158.128 32.3893 158.12 32.3335L158.06 31.9097C158.051 31.8396 158.023 31.8125 157.952 31.8125H156.418C156.347 31.8125 156.317 31.8396 156.309 31.9097L156.25 32.3335C156.244 32.3877 156.279 32.4244 156.335 32.4244Z" fill="white"/>
<path d="M160.603 33.5509L160.339 32.1662C160.311 32.0212 160.46 31.9782 160.46 31.8858V31.8746C160.46 31.8364 160.431 31.8125 160.387 31.8125H159.931C159.847 31.8125 159.79 31.8539 159.764 31.9336L159.397 33.0649L159.007 31.9272C158.979 31.8507 158.922 31.8125 158.839 31.8125H158.395C158.35 31.8125 158.322 31.8364 158.322 31.8746V31.8858C158.322 31.9766 158.464 32.0212 158.443 32.1662L158.234 33.5509C158.212 33.6959 158.112 33.7389 158.112 33.8313V33.8425C158.112 33.8807 158.14 33.9046 158.186 33.9046H158.58C158.624 33.9046 158.653 33.8807 158.653 33.8425V33.8313C158.653 33.7405 158.527 33.6959 158.546 33.5509L158.682 32.5869L159.18 33.8122C159.207 33.8744 159.248 33.9014 159.313 33.9014C159.378 33.9014 159.406 33.8712 159.428 33.8106L159.842 32.6474L159.999 33.5525C160.023 33.6943 159.892 33.7405 159.892 33.8329V33.8441C159.892 33.8823 159.921 33.9062 159.966 33.9062H160.65C160.694 33.9062 160.723 33.8823 160.723 33.8441V33.8329C160.724 33.7389 160.629 33.6943 160.603 33.5509Z" fill="white"/>
</svg>
