<svg xmlns="http://www.w3.org/2000/svg" width="132" height="35" viewBox="0 0 132 35" fill="none">
	<path fill="currentColor"
		d="M65.062 6.11c5.145.7 6.264 7.266 11.524 7.256 2.726-.004 4.344-1.701 4.344-4.095 0-5.199-6.425-8.834-13.634-8.834-9.384 0-15.391 7.04-15.391 16.288 0 9.017 6.332 17.254 15.9 17.254 9.058 0 13.032-5.843 13.032-11.733 0-1.564-1.802-1.932-2.726-.874-1.34 1.518-3.143 4.14-7.118 4.14-5.037 0-10.012-5.659-9.936-14.584.036-4.228 2.58-5.012 4.005-4.818ZM115.379.45c-9.798 0-16.316 6.854-16.316 17.021 0 10.214 7.949 16.564 16.316 16.564 9.058 0 16.406-6.35 16.406-16.563.002-10.214-7.809-17.023-16.406-17.023Zm2.594 28.963c-4.482 0-9.354-11.651-9.354-19.36 0-3.378 1.175-4.981 3.525-4.981 4.525 0 9.44 12.95 9.44 19.49 0 3.292-1.175 4.85-3.611 4.85ZM33.555.852h-7.672c-.693 0-1.156.368-1.156.965V2c0 .418.26.773.602 1.122l.002.002.123.122c.23.255.672.886.35 1.737l.002.002-6.126 13.133L14.05 6.37a2.64 2.64 0 0 1-.073-.213l-.218-.552h.005l-.243-.62.002-.001c-.322-.851.12-1.482.35-1.737.042-.041.083-.081.123-.123l.002-.001c.343-.35.602-.705.602-1.122v-.183c0-.598-.463-.966-1.156-.966H1.156C.463.853 0 1.221 0 1.82v.183c0 .365.11.666.291.954l14.13 28.266c.044.094.09.183.136.27l.04.082-.002-.008c.712 1.311 1.653 1.952 3.198 1.952 1.849 0 2.958-.782 3.698-2.577L34.474 2.835a1.56 1.56 0 0 0 .235-.833v-.183c.002-.6-.46-.967-1.154-.967ZM47.945.852h-9.502c-.693 0-1.155.368-1.155.965V2c0 .418.259.773.602 1.122l.001.002.123.122c.176.195.472.61.46 1.175v25.524c.013.564-.283.98-.46 1.176l-.123.123-.002.002c-.342.349-.601.704-.601 1.121v.184c0 .597.462.965 1.155.965h3.578v-.003h2.343v.003h3.578c.693 0 1.156-.368 1.156-.965v-.184c0-.417-.26-.772-.602-1.121l-.002-.002-.123-.123c-.176-.194-.47-.61-.46-1.172V4.42c-.01-.563.284-.979.46-1.173.041-.041.083-.081.123-.123l.002-.001c.342-.35.602-.705.602-1.122v-.183c.002-.6-.46-.967-1.153-.967ZM94.988.852h-9.5c-.694 0-1.156.368-1.156.965V2c0 .418.259.773.602 1.122l.001.002.123.122c.176.195.472.612.46 1.176v25.525c.012.564-.284.982-.46 1.176-.041.041-.083.081-.123.123l-.001.001c-.343.35-.602.704-.602 1.122v.183c0 .598.462.966 1.155.966h3.578v-.003h2.343v.003h3.578c.693 0 1.155-.368 1.155-.966v-.183c0-.418-.259-.773-.602-1.122l-.001-.001c-.04-.042-.082-.082-.123-.123-.176-.195-.47-.61-.46-1.173V4.42c-.01-.562.284-.978.46-1.172.041-.041.083-.081.123-.123l.001-.001c.343-.35.602-.705.602-1.122v-.183c.002-.6-.46-.967-1.153-.967ZM127.613 1.424h.055c.154 0 .193-.365.406-.365h.087v1.49c0 .145-.129.188-.129.28v.012c0 .038.027.062.07.062h.722c.045 0 .074-.024.074-.062V2.83c0-.091-.133-.136-.133-.28V1.06h.087c.214 0 .252.364.406.364h.056c.056 0 .092-.035.083-.09l-.06-.424c-.008-.07-.037-.098-.108-.098h-1.533c-.071 0-.101.028-.11.098l-.058.424c-.006.054.028.09.085.09ZM131.88 2.55l-.264-1.384c-.027-.145.121-.188.121-.28V.875c0-.039-.028-.063-.073-.063h-.456c-.084 0-.14.042-.167.122l-.367 1.13-.39-1.137c-.027-.076-.085-.115-.168-.115h-.444c-.044 0-.073.024-.073.063v.01c0 .092.143.136.121.281l-.209 1.385c-.021.145-.122.188-.122.28v.011c0 .039.029.063.074.063h.394c.044 0 .073-.024.073-.063v-.01c0-.091-.126-.136-.107-.281l.136-.964.498 1.225c.028.062.068.09.133.09s.094-.03.115-.091l.414-1.164.158.905c.024.142-.107.189-.107.28v.012c0 .038.029.062.073.062h.684c.044 0 .073-.024.073-.062v-.011c.001-.094-.093-.139-.12-.282Z">
	</path>
</svg>