<svg xmlns="http://www.w3.org/2000/svg" width="112" height="69" viewBox="0 0 112 69" fill="none">
	<g fill="currentColor">
		<path
			d="M32.92 3.812s1.17.547 1.134.529c1.993-.93 1.828-3.247 1.664-3.703-.073-.2-.22-.42-.44-.346-.255.073-.273.292-.255.492.201 1.678-.768 2.81-2.103 3.046v-.018ZM11.54 5.454c.732.164 1.335.346 2.122.784.768-1.696 1.39-2.316 1.774-3.046a.252.252 0 0 0 0-.164C13.369.565 11.248 4.323 11.54 5.454ZM12.656 54.408c.036.456.11.821.237 1.095l3.677-.328-.44 7.806-.219.128c-1.06.656-2.268 1.04-3.694 1.149-.22.018-.42.036-.622.036-3.164 0-4.974-2.243-5.359-6.675-.219-2.463-.128-4.816.293-6.968.42-2.225 1.28-4.14 2.542-5.709 1.335-1.66 2.981-2.553 5.066-2.736.22-.018.44-.036.64-.036 1.683 0 3.22.583 4.59 1.75 1.61-.62 2.525-2.006 2.598-3.957-1.72-1.478-4.262-2.353-6.858-2.353-.33 0-.659 0-.988.036h-.128c-3.987.365-7.425 2.226-9.95 5.436C.934 47.003-.475 52.62.147 58.512.75 65.37 4.225 69 10.186 69c.458 0 .934-.018 1.427-.073 1.902-.164 3.713-.638 5.542-1.423 1.829-.802 3.219-1.641 4.243-2.608l.786-14.154-8.998.785c-.439.839-.622 1.769-.512 2.863l-.018.018ZM33.76 1.55c.147-.602-.017-1.276-.09-1.386-.074-.146-.183-.219-.33-.146-.146.055-.11.274-.11.274.092 1.058-.603 1.933-.603 1.933-.476.602-1.116.894-1.573 1.04-.073 0 1.189.292 1.189.292.75-.402 1.335-1.259 1.518-1.988V1.55ZM8.102 8.354s.293-.092.384-.11c2.048-.547 4.261.037 4.298.037 3.914-1.988-7.499-4.232-4.7.09h.018v-.017Z">
		</path>
		<path
			d="M8.175 11.4c.11-.055.22-.11.348-.146 1.81-.602 4.389.11 4.462.127 4.536-3.374-8.797-3.866-4.81 0v.019ZM49.855 22.562c.366-.127.951-.146 1.756.037.036-.073.878-1.66-.494-2.7-.274-.219-.713-.364-1.39-.182-.11.036-.33.11-.238.456 0 0 .293 1.258.348 2.408l.018-.019ZM48.904 26.356s2.304.31 3.255 1.222c.055.037.165.183.183.2 4.024-1.477-5.706-5.088-3.438-1.422ZM34.346 4.505s1.427.821 1.39.803c0 0 1.701.018 2.213-2.609.037-.2 0-.51-.31-.492-.202 0-.294.219-.348.383-.256.82-.659 1.295-1.134 1.605a1.603 1.603 0 0 1-.403.183c-.347.109-1.115.109-1.408.109v.018Z">
		</path>
		<path
			d="M49.946 24.277c.037 0 1.756.31 3.11 1.222 0 0 .219.164.237.182 3.256-2.08-5.45-4.03-3.365-1.422l.018.018ZM39.485 20.738a.46.46 0 0 0 .53-.383.472.472 0 0 0-.383-.529.472.472 0 0 0-.53.402.471.471 0 0 0 .402.528l-.019-.018ZM39.687 23.11c.585.09 1.133-.329 1.225-.913.091-.583-.33-1.13-.915-1.222a1.06 1.06 0 0 0-1.207.912c-.091.584.33 1.131.915 1.222h-.018Z">
		</path>
		<path
			d="M44.405 27.159c0-9.704-4.078-16.598-5.212-9.193 2.14-2.59 3.09 3.94 2.706 7.241 1.72 1.15 2.506 1.952 2.506 1.952Z">
		</path>
		<path
			d="M25 39.397a80.592 80.592 0 0 1-.2-2.626c0-.037.036-.073.073-.073.036 0 .073.036.073.073 0 .054.183 4.797 2.652 5.271 3.127.584 5.248-1.678 5.468-1.933.018-.037.073-.037.11 0 .036.018.036.073.036.11-.055.108-.292.51-.31.528l-.55.602.11-.055c1.592-.912 3.183-.894 3.183-.894 1.316-.602 4.188-2.152 5.03-3.118a14.568 14.568 0 0 0 2.76-4.652c.037-.109.074-.2.11-.31.586-1.933.768-3.575.805-4.158v-.237l-.33-.256a128.378 128.378 0 0 0-2.925-2.17c-1.5-1.076-2.872-1.824-2.926-1.86l-.11-.055v-.055c.11-.566.164-1.404.238-2.39.182-2.626.402-5.89 1.664-6.766.329-.237.713-.274 1.152-.146.256.091.348.164.439.255a.484.484 0 0 1 .091.11 37.26 37.26 0 0 0-1.316-2.463c-.11-.036-.348-.073-.567.183 0 0-.275.346-.366.583-.037.073-.11.2-.256.2-.128-.017-.22-.09-.256-.273-.11-.602.256-1.35.896-1.605C36.76 6.511 32.792 3.85 28.75 3.85c-2.177 0-4.371.784-6.438 2.425-2.505 1.788-3.036 6.129-3.036 6.129-.256 1.368-.494 2.7-.494 2.7-.146.638-.42 1.24-.731 1.787.585.456 1.39.82 2.195 1.149l-.165.146a7.202 7.202 0 0 1-2.25-.949s-.036-.018-.054-.036c-.092-.055-.201-.11-.275-.183-.073-.072-.164-.127-.256-.2a2.668 2.668 0 0 1-.347-.292c-.037-.037-.073-.055-.11-.091-1.244-1.095-2.176-2.572-2.615-4.104 0 0 0 .073.036.2.549 2.572-3.036 2.171-4.37 1.88 3.95.182 5.504-2.39.84-2.664-6.876-.219-.859 5.271 3.384 2.9-.75.584-.567 2.81-.037 3.812.147.292.33.566.494.821.201.292.384.547.585.803.513.62 1.006 1.094 1.299 1.35l-.073.054s-.75-.292-1.591-1.058c-4.353 4.25-4.847 10.068-.805 14.829 4.023.182 5.67.128 8.779 2.152.64.42 2.25 2.043 2.25 2.043l.036-.055Zm13.918-14.135c.183.255.64 1.13.165 1.222-.366.073-.274-.584-1.024-1.168-.768-.601-1.28-.693-2.56-.73-.184 0-.366-.109-.33-.327.073-.785 2.634-.53 3.75 1.02v-.017ZM28.823 6.183s.165-.985 1.079-1.24c.037 0 1.043-.274 1.738.164.018 0 .676.401.84.547.11.091.165.22.165.347a.274.274 0 0 1-.073.2c-.128.128-.31.092-.42.037-.604-.292-1.153-.383-1.537-.274-.658.183-1.207.53-1.316.62a.352.352 0 0 1-.22.073.348.348 0 0 1-.238-.09c-.091-.074-.055-.293-.036-.384h.018Zm-8.175 19.608s0-.055.018-.055c.567.128 2.45.438 4.444-.11 0 0 2.049-.474 2.927-2.097 0 0 2.103-4.742-4.59-5.873-.037 0-.037-.037 0-.055.347-.055 1.48-.11 2.633.164 0 0-.128-.675-.092-1.623.073-1.897.366-4.615 1.847-6.657.55-.767 1.811-2.098 3.731-1.606.878.201 2.78 1.131 4.17 4.506 0 0 2.103 4.596 1.39 10.743 0 0-3.914-1.879-8.065-2.463 0 0 .42 2.007-.476 3.52.823.858 2.45 2.262 5.414 3.922 0 0 2.505 1.569 5.688 1.824 2.359.182 2.743-1.058 3.255-.711.512.346-1.335 1.514-2.817 3.064-1.024 1.058-2.98 3.064-3.804 3.921-.877.912-2.066 2.19-3.804 3.302-.731.474-1.883 1.258-3.493.62 0 0-1.737-.602-1.353-2.9 0 0 .292-2.225.695-4.031 0 0 1.079-4.651-.092-7.807 0 0-.091-.237-.237-.529-.64.62-1.848 1.478-3.676 1.66 0 0-2.14.2-3.695-.711l-.018-.018ZM77.032 40.036c-1.042.09-1.847.31-2.45.693L73.85 52.51v.037c-.878 1.386-1.792 2.116-2.835 2.207h-.238c-.493 0-.86-.146-1.134-.438-.347-.383-.493-1.021-.42-1.879l.695-11.326c-.44-.183-.988-.292-1.628-.292-.201 0-.42 0-.658.036-1.006.092-1.811.31-2.488.694l-.713 12.165c-.11 1.697.256 3.046 1.08 3.922.657.693 1.609 1.076 2.742 1.076.165 0 .33 0 .494-.018 1.738-.146 3.621-1.313 4.792-2.937l.201-.274.384 1.66c.457.22.97.347 1.555.347.146 0 .274 0 .42-.018.805-.073 1.573-.31 2.195-.694l1.024-16.47c-.439-.182-.987-.291-1.628-.291-.2 0-.42 0-.658.036v-.018ZM64.943 35.312a3.108 3.108 0 0 0-.292-1.003 7.23 7.23 0 0 0-2.433-.402c-.292 0-.603 0-.914.037-1.81.164-3.31.802-4.444 1.915-1.19 1.167-1.83 2.553-1.939 4.25l-.055 1.094c0 .292-.183.529-.42.584l-1.92.164c-.367.584-.513 1.77-.458 2.444.037.401.128.748.274 1.058l2.286-.2-1.024 17.126c.44.2.988.31 1.665.31.2 0 .402 0 .621-.036 1.006-.091 1.847-.329 2.487-.712l1.025-17.035 3.09-.274c.403-.839.568-1.66.513-2.444-.037-.456-.128-.803-.257-1.04l-3.493.237.092-1.222c.146-1.55.95-2.389 2.414-2.517.183 0 .347-.018.53-.018.476 0 .951.055 1.427.164.933-.638 1.335-1.459 1.243-2.499l-.018.019ZM52.324 28.38c-1.81-2.297-7.608-1.714-2.048.95-.897-.22-3.75-.785-2.597-2.573a.503.503 0 0 0 .073-.127 6.767 6.767 0 0 1-2.725 2.006c-.165 1.532-.549 2.827-.732 3.447 1.72-.675 3.402-2.936 2.817-3.903.658 1.277 5.084 2.499 5.212.2ZM112 52.238a1.674 1.674 0 0 0-.183-.657.874.874 0 0 1-.567-.31c-.219-.255-.292-.638-.238-1.149l.695-11.509c-1.774-.857-4.115-1.386-6.145-1.386-.311 0-.603 0-.896.036-2.798.237-5.03 1.514-6.602 3.794-1.61 2.298-2.286 5.18-1.993 8.573.329 3.83 2.14 5.927 5.102 5.927.201 0 .384 0 .585-.018 2.122-.182 4.097-1.459 5.249-3.41l.238-.402.037.474c.146 1.605 1.353 2.572 3.255 2.572h.384c.713-.565 1.134-1.568 1.042-2.517l.037-.018Zm-5.212-3.155v.036c-.86 1.532-1.921 2.316-3.237 2.444h-.256c-.915 0-2.067-.492-2.268-2.845-.201-2.262.036-4.25.658-5.71.659-1.495 1.683-2.352 2.963-2.462.165 0 .329-.018.512-.018.64 0 1.28.11 1.957.31l.11.037-.439 8.226v-.018ZM50.788 46.456c-.238-2.7-2.524-4.432-5.834-4.432-.275 0-.567 0-.86.036-2.926.256-5.14 1.46-6.767 3.666-1.61 2.226-2.267 5.053-1.975 8.409.183 2.134.988 3.83 2.36 5.016 1.206 1.04 2.688 1.568 4.407 1.568.256 0 .53 0 .786-.036 2.286-.2 4.737-1.167 6.273-2.48.238-.931.22-1.624-.091-2.062-.238-.346-.659-.565-1.244-.638-1.189.784-2.469 1.258-3.804 1.368-.164 0-.347.018-.512.018-1.774 0-2.908-.876-3.347-2.627l-.036-.164h.164c7.096-.766 10.809-3.465 10.443-7.642h.037Zm-10.663 4.815h-.182v-.164c.146-3.301 1.59-5.399 3.877-5.6h.292c1.207 0 2.012.694 2.122 1.825.183 2.152-1.866 3.483-6.127 3.957l.018-.018ZM89.066 45.945c-1.17-.346-1.975-.62-2.304-.839-.366-.237-.567-.602-.622-1.112-.037-.493.164-.912.622-1.24.42-.31 1.042-.493 1.792-.566.238-.018.457-.037.677-.037 1.152 0 2.176.274 3.054.821 1.189-.602 1.792-1.623 1.829-3.082-1.226-.803-3.238-1.35-5.011-1.35-.238 0-.458 0-.677.037-2.286.2-4.079.912-5.359 2.097-1.298 1.186-1.865 2.663-1.719 4.414.201 2.298 1.481 3.484 4.737 4.377 2.432.675 3.2 1.058 3.292 2.134.055.584-.165 1.058-.64 1.405-.457.328-1.17.529-2.122.62-.22.018-.439.037-.658.037a6.45 6.45 0 0 1-3.713-1.131c-1.17.638-1.755 1.641-1.829 3.1.714.584 1.646.985 2.908 1.295.933.22 1.83.329 2.744.329.329 0 .658 0 .987-.037 2.341-.2 4.188-.93 5.505-2.152 1.335-1.222 1.902-2.7 1.737-4.505-.182-2.061-1.079-3.41-5.285-4.615h.055Z">
		</path>
		<path
			d="M30.396 38.96c.841.437 1.774.09 2.03-.092 0 0 .622-.401 1.115-.82.622-.548.732-.767.732-.767-.402-2.225-2.213-2.188-2.213-2.188.256.73.238 1.076.22 1.459 0 .11-.055.365-.348.346-.31-.018-.274-.31-.274-.31.146-1.75-1.61-3.064-2.012-3.301-.402-.219-.732-.11-.823.237-.091.328-.348 2.025-.348 2.025-.256 1.805.915 2.882 1.94 3.41h-.02ZM29.81 12.093c2.744 2.936 1.83 8.445 1.83 8.445 2.56.62 4.992 1.805 4.992 1.805.055-.638.147-1.112.147-2.389 0-1.715-.366-3.812-.732-5.29-.786-3.1-2.469-4.979-2.469-4.979-1.024-1.24-2.012-1.495-3.018-1.386-1.847.182-2.725 2.499-2.98 3.666 0 .055-.037.255-.037.255 1.06-1.605 2.268-.109 2.268-.109v-.018ZM29.427 30.314c2.523 2.681 8.01 2.864 8.01 2.864.933-2.007 1.518-2.681 1.518-2.681l.128-.146s-.33.036-.42.036c-1.519 0-3.878-1.13-3.878-1.13-3.2-1.35-5.816-3.868-5.816-3.868.659 1.66.457 4.943.457 4.943v-.018ZM35.626 44.194c-.073-.748-.256-1.076-.402-1.222a2.284 2.284 0 0 0-.823-.146h-.274c-1.793.164-3.2 1.313-4.188 3.43l-.22.455-.366-2.407c-.402-.2-.878-.31-1.463-.31-.164 0-.329 0-.512.018a5.498 5.498 0 0 0-2.195.657l-.987 16.452c.439.2.987.31 1.646.31.201 0 .402 0 .622-.037.987-.091 1.81-.328 2.45-.711l.586-9.63c.676-1.934 2.048-3.12 3.749-3.284h.366c.22 0 .402 0 .567.055.987-.547 1.554-2.006 1.408-3.648l.036.018Z">
		</path>
		<path
			d="M29.829 17.492a1.195 1.195 0 0 0-1.006-1.35 1.197 1.197 0 1 0-.33 2.371 1.19 1.19 0 0 0 1.336-1.003v-.018ZM27.854 14.92a.543.543 0 0 0 .475.62.544.544 0 0 0 .622-.474.553.553 0 0 0-.476-.62.544.544 0 0 0-.621.474Z">
		</path>
	</g>
</svg>