<svg xmlns="http://www.w3.org/2000/svg" width="581" height="263" viewBox="0 0 581 263" fill="currentColor">
	<path
		d="m299.6 206.3-10.4-31.6-10.4 31.6h-33.7l27.2 19.5-10.4 31.7 27.3-19.6 27.3 19.6-10.5-31.7 27.3-19.5zM206.8 201.3l-8.8-26.6-8.7 26.6h-28.4l23 16.4-8.8 26.5 22.9-16.4 22.9 16.4-8.7-26.5 22.9-16.4zM125.6 197.1l-7.4-22.4-7.4 22.4H86.9l19.3 13.9-7.3 22.4 19.3-13.8 19.4 13.8-7.4-22.4 19.3-13.9zM389.1 201.3l-8.7-26.6-8.8 26.6h-28.3l22.9 16.4-8.7 26.5 22.9-16.4 22.9 16.4-8.8-26.5 22.9-16.4zM467.6 197.1l-7.4-22.4-7.4 22.4h-23.9l19.3 13.9-7.4 22.4 19.4-13.8 19.3 13.8-7.4-22.4 19.4-13.9z"
		class="a"></path>
	<path fill-rule="evenodd"
		d="M182.3 119.4c-10.5-52.2 35.1-63.9 49.3-63.4h34.3v61.9c0 13.6 8.8 9.2 15.4 2.9 0 0-.2-42.5-.2-63.7 0-22.4-18.4-20.7-18.4-20.7L288.2 14h3c16.1 0 23.3 14.2 24 28.2v36.6s28.8-25.3 29.9-26.3c13.3 1.2 18.2 11.2 18.3 19.1v49.5c0 12.3 8.9 8.4 14.7 2.4-11.4-46.9 16.2-64.9 29.7-71.9l48.5 14.2c1.2 2.4 2.4 5.8 3.8 9.7 0 0 23.3-20.6 27.7-24.5 11.2 2 17.9 9 18.5 17.3v51.4c0 14.6 7.4 9.9 12.7 4.9V55.2h33.8s.1 51.9 0 60c0 17 15.3 14.6 15.3 14.6-5.7 5.7-15.3 14.1-19.4 18-17.2-.8-24.7-8.6-28.5-16.6-5.4 5-12.7 12-18.1 17-27.4 4.5-29.6-22.1-29.6-22.1V85.7c0-6.5-5.9-5.3-10.6-5.3 6.7 46.5-20.9 66.8-40.8 68.2-20.5 1.5-33.1-10.4-40.1-19.6-9.5 8.7-20.9 19.5-20.9 19.5-18.4 2-30.5-7.5-30.5-23.4V95.9c0-9.6-7.8-9.5-14.4-9.5V147h-33.9v-19.1s-6 5.6-20.8 19.6c-15.1 4.9-24-6.7-28-13.5-2.8 2.6-5 4.7-14.5 13.6-17.4 0-28.5-14.8-32.2-20.7l-.1-.4-24.3 21.3s-30.4 9.5-30.4-28l.1-24.8-.1-37.5c0-9.4-6.6-10.8-13.8-10.8V147h-37S80 71.2 80 57.5c0-9.3-5.9-11.4-13.8-11.4L66.1 147H28.7c.2-12.8 0-76.4 0-83.9 0-22.4-18.5-20.7-18.5-20.7L35.8 20h9.7c5.8 0 20.7 4.5 20.7 17.7L86.4 20h10.2c8.2 0 20.6 5.3 20.6 18.1L137.9 20h9.6c7.4 0 20.7 4.5 20.7 18.1l.3 56.9c-.2 12.8 0 2.2 0 9.7 0 21.7 9.7 19.6 14.6 17.1 0 0-.2-.6-.4-1-.2-.5-.3-.8-.4-1.4zm49.3-43.7c-7.3 0-17.6 10.5-17.6 22.3 0 11.7 8.6 22 17.6 22zm192-3.8c-19.6 20.1-14 52.2-8.2 61.4 17.5-21.5 17.2-43 8.2-61.4z"
		class="a"></path>
	<path
		d="m-386.9 206.3-10.4-31.6-10.5 31.6h-33.7l27.3 19.5-10.4 31.7 27.3-19.6 27.2 19.6-10.4-31.7 27.3-19.5zM-479.8 201.3l-8.7-26.6-8.8 26.6h-28.3l22.9 16.4-8.7 26.5 22.9-16.4 22.9 16.4-8.8-26.5 23-16.4zM-560.9 197.1l-7.4-22.4-7.4 22.4h-23.9l19.3 13.9-7.4 22.4 19.4-13.8 19.3 13.8-7.4-22.4 19.4-13.9zM-297.4 201.3l-8.8-26.6-8.7 26.6h-28.3l22.9 16.4-8.8 26.5 22.9-16.4 22.9 16.4-8.7-26.5 22.9-16.4zM-219 197.1l-7.4-22.4-7.3 22.4h-24l19.4 13.9-7.4 22.4 19.3-13.8 19.4 13.8-7.4-22.4 19.4-13.9z"
		class="b"></path>
	<path fill-rule="evenodd"
		d="M-504.2 119.4c-10.5-52.2 35.1-63.9 49.3-63.4h34.3v61.9c0 13.6 8.7 9.2 15.4 2.9 0 0-.2-42.5-.2-63.7 0-22.4-18.4-20.7-18.4-20.7l25.5-22.4h2.9c16.2 0 23.4 14.2 24 28.2v36.6s28.9-25.3 29.9-26.3c13.4 1.2 18.2 11.2 18.3 19.1v49.5c0 12.3 9 8.4 14.7 2.4-11.3-46.9 16.2-64.9 29.7-71.9l48.6 14.2c1.1 2.4 2.3 5.8 3.7 9.7 0 0 23.4-20.6 27.8-24.5 11.2 2 17.8 9 18.5 17.3v51.4c0 14.6 7.3 9.9 12.7 4.9V55.2h33.8s.1 51.9 0 60c0 17 15.3 14.6 15.3 14.6-5.8 5.7-15.3 14.1-19.4 18-17.3-.8-24.8-8.6-28.6-16.6-5.3 5-12.7 12-18 17-27.5 4.5-29.6-22.1-29.6-22.1V85.7c0-6.5-6-5.3-10.6-5.3 6.6 46.5-20.9 66.8-40.9 68.2-20.4 1.5-33-10.4-40.1-19.6-9.4 8.7-20.8 19.5-20.8 19.5-18.4 2-30.6-7.5-30.6-23.4V95.9c0-9.6-7.8-9.5-14.4-9.5V147h-33.8v-19.1s-6 5.6-20.8 19.6c-15.2 4.9-24.1-6.7-28-13.5-2.9 2.6-5.1 4.7-14.5 13.6-17.4 0-28.6-14.8-32.2-20.7l-.1-.4-24.3 21.3s-30.4 9.5-30.4-28V57.5c0-9.4-6.7-10.8-13.8-10.8V147h-37.1s-.2-75.8-.2-89.5c0-9.3-5.9-11.4-13.8-11.4V147h-37.5c.3-12.8 0-76.4 0-83.9 0-22.4-18.4-20.7-18.4-20.7l25.5-22.4h9.8c5.8 0 20.6 4.5 20.6 17.7l20.2-17.7h10.2c8.2 0 20.7 5.3 20.7 18.1l20.6-18.1h9.7c7.3 0 20.6 4.5 20.6 18.1l.4 56.9c-.3 12.8 0 2.2 0 9.7 0 21.7 9.7 19.6 14.6 17.1 0 0-.3-.6-.4-1-.2-.5-.3-.8-.4-1.4zm49.3-43.7c-7.3 0-17.6 10.5-17.6 22.3 0 11.7 8.6 22 17.6 22zm192-3.8c-19.6 20.1-14.1 52.2-8.2 61.4 17.4-21.5 17.1-43 8.2-61.4z"
		class="b"></path>
	<path
		d="m9.1 664 8.5 25.9h27.2l-22 16 8.4 25.9-22.1-16-22 16 8.4-25.9-22-16H.7zM-64.6 664l7.1 21.7h22.9l-18.5 13.5L-46 721l-18.6-13.5-18.5 13.5 7.1-21.8-18.5-13.5h22.9zM-129.1 664l6 18.4h19.3l-15.6 11.3 5.9 18.4-15.6-11.4-15.6 11.4 5.9-18.4-15.6-11.3h19.3zM82.8 664l-7 21.7H52.9l18.5 13.5-7.1 21.8 18.5-13.5 18.6 13.5-7.1-21.8 18.5-13.5H89.9zM147.4 664l-6 18.4h-19.3l15.6 11.3-6 18.4 15.7-11.4 15.6 11.4-6-18.4 15.7-11.3h-19.4zM-71.1 452.9c8.7 0 31.2 6.8 31.2 26.8l30.5-26.8H6.1c12.3 0 31.2 7.9 31.2 27.4l31.2-27.4H83c11.2 0 31.3 6.7 31.3 27.3l.5 86.1v14.9c0 27.8 18.9 31 25.6 31.3h2q.1-.1.2-.1h.1l-38.6 33.9c-.6.5-2.2.9-4.4 1h-1.1c-12.5-.4-40.5-9.4-40.5-43.9l.1-37.1-.1-56.7c0-14.3-10-16.4-20.8-16.4v151.7h-56s-.3-114.7-.3-135.3c0-14.1-9-17.2-20.9-17.2v152.5h-56.7c.4-19.3 0-115.5 0-126.9 0-27.9-18.9-31-25.6-31.3h-2l-.2.1 38.6-33.9z"
		class="a"></path>
	<path
		d="m-503.1 664 8.5 25.9h27.2l-22 16 8.4 25.9-22.1-16-22 16 8.4-25.9-22-16h27.2zM-576.8 664l7.1 21.7h22.9l-18.5 13.5 7.1 21.8-18.6-13.5-18.5 13.5 7.1-21.8-18.5-13.5h22.9zM-641.3 664l6 18.4h19.3l-15.6 11.3 6 18.4-15.7-11.4-15.6 11.4 6-18.4-15.7-11.3h19.3zM-429.4 664l-7 21.7h-22.9l18.5 13.5-7.1 21.8 18.5-13.5 18.6 13.5-7.1-21.8 18.5-13.5h-22.9zM-364.8 664l-6 18.4h-19.3l15.6 11.3-6 18.4 15.7-11.4 15.6 11.4-6-18.4 15.7-11.3h-19.4zM-583.3 452.9c8.7 0 31.2 6.8 31.2 26.8l30.5-26.8h15.5c12.3 0 31.2 7.9 31.2 27.4l31.2-27.4h14.6c11.1 0 31.2 6.7 31.2 27.3l.6 86.1v14.9c0 27.8 18.9 31 25.5 31.3h2.1q0-.1.1-.1h.1l-38.6 33.9c-.6.5-2.2.9-4.4 1h-1.1c-12.5-.4-40.4-9.4-40.4-43.9V509.6c0-14.3-10.1-16.4-20.9-16.4v151.7h-56s-.3-114.7-.3-135.3c0-14.1-9-17.2-20.9-17.2v152.5h-56.7c.4-19.3 0-115.5 0-126.9 0-27.9-18.9-31-25.5-31.3h-2.1l-.2.1 38.6-33.9z"
		class="b"></path>
</svg>