<svg xmlns="http://www.w3.org/2000/svg" width="175" height="52" fill="none" viewBox="0 0 175 52">
	<g clip-path="url(#a)">
		<path fill="#fff"
			d="M26.296.086C11.817.086.079 11.69.079 26.006c0 14.316 11.738 25.92 26.217 25.92 14.48 0 26.217-11.604 26.217-25.92 0-14.314-11.737-25.92-26.218-25.92ZM38.318 37.47a1.644 1.644 0 0 1-2.247.535c-6.156-3.717-13.905-4.559-23.03-2.497a1.635 1.635 0 0 1-1.957-1.217 1.613 1.613 0 0 1 1.23-1.934c9.986-2.256 18.552-1.285 25.463 2.89a1.605 1.605 0 0 1 .541 2.223Zm3.21-7.058a2.058 2.058 0 0 1-2.812.666c-7.047-4.282-17.789-5.523-26.124-3.02-1.081.322-2.223-.28-2.551-1.347a2.02 2.02 0 0 1 1.363-2.52c9.521-2.857 21.358-1.473 29.45 3.443a2.007 2.007 0 0 1 .673 2.778Zm.275-7.35c-8.45-4.961-22.39-5.417-30.457-2.997-1.296.389-2.666-.334-3.058-1.615a2.42 2.42 0 0 1 1.634-3.024c9.26-2.78 24.655-2.243 34.383 3.467a2.406 2.406 0 0 1 .858 3.322 2.466 2.466 0 0 1-3.359.848h-.001Zm29.603.952c-4.527-1.067-5.332-1.816-5.332-3.39 0-1.487 1.415-2.488 3.522-2.488 2.041 0 4.064.76 6.186 2.324a.294.294 0 0 0 .222.054.293.293 0 0 0 .198-.12l2.21-3.08a.292.292 0 0 0-.056-.399c-2.527-2.003-5.37-2.977-8.694-2.977-4.887 0-8.302 2.9-8.302 7.049 0 4.45 2.945 6.025 8.036 7.24 4.33.987 5.062 1.814 5.062 3.29 0 1.638-1.478 2.656-3.857 2.656-2.642 0-4.8-.882-7.21-2.943a.31.31 0 0 0-.216-.071.294.294 0 0 0-.203.102l-2.48 2.916a.292.292 0 0 0 .029.408c2.805 2.476 6.254 3.783 9.98 3.783 5.265 0 8.668-2.845 8.668-7.25.01-3.716-2.241-5.774-7.754-7.1l-.01-.004ZM91.084 19.6c-2.282 0-4.154.889-5.7 2.71v-2.05a.294.294 0 0 0-.295-.294h-4.054a.294.294 0 0 0-.294.294v22.781c0 .161.132.295.294.295h4.054a.295.295 0 0 0 .295-.295v-7.19c1.546 1.712 3.418 2.55 5.7 2.55 4.242 0 8.538-3.228 8.538-9.4.006-6.172-4.29-9.401-8.534-9.401h-.003Zm3.823 9.402c0 3.141-1.957 5.336-4.762 5.336-2.77 0-4.861-2.294-4.861-5.336 0-3.043 2.09-5.336 4.861-5.336 2.758 0 4.762 2.244 4.762 5.336Zm15.719-9.402c-5.463 0-9.743 4.159-9.743 9.469 0 5.253 4.252 9.367 9.677 9.367 5.482 0 9.774-4.145 9.774-9.434 0-5.272-4.264-9.401-9.708-9.401V19.6Zm0 14.769c-2.906 0-5.097-2.31-5.097-5.369 0-3.073 2.116-5.303 5.031-5.303 2.924 0 5.128 2.308 5.128 5.37 0 3.073-2.129 5.302-5.062 5.302Zm21.372-14.403h-4.461v-4.508a.294.294 0 0 0-.294-.293h-4.054a.297.297 0 0 0-.298.293v4.508h-1.947a.294.294 0 0 0-.294.294v3.444c0 .162.131.294.294.294h1.947v8.913c0 3.6 1.813 5.426 5.391 5.426 1.453 0 2.658-.298 3.794-.935a.287.287 0 0 0 .151-.254v-3.28a.29.29 0 0 0-.141-.248.29.29 0 0 0-.288-.013 5.166 5.166 0 0 1-2.379.566c-1.3 0-1.882-.584-1.882-1.89v-8.284h4.461a.294.294 0 0 0 .294-.293v-3.444a.285.285 0 0 0-.291-.294l-.003-.002Zm15.54.018v-.554c0-1.629.633-2.355 2.048-2.355.845 0 1.524.166 2.285.416a.296.296 0 0 0 .388-.279v-3.377a.29.29 0 0 0-.209-.281c-.802-.236-1.829-.479-3.369-.479-3.741 0-5.723 2.085-5.723 6.026v.848h-1.947a.296.296 0 0 0-.297.293v3.462c0 .162.134.294.297.294h1.947v13.744c0 .164.135.294.298.294h4.051c.166 0 .297-.13.297-.294V24h3.785l5.798 13.743c-.657 1.443-1.306 1.73-2.188 1.73-.714 0-1.469-.21-2.236-.628a.323.323 0 0 0-.234-.021.295.295 0 0 0-.176.157l-1.374 2.981a.291.291 0 0 0 .128.38c1.434.768 2.727 1.097 4.327 1.097 2.993 0 4.649-1.38 6.104-5.089l7.032-17.964a.284.284 0 0 0-.032-.273.29.29 0 0 0-.241-.127h-4.22a.295.295 0 0 0-.281.197l-4.324 12.206-4.733-12.214a.296.296 0 0 0-.276-.189h-6.925Zm-9.009-.018h-4.054a.297.297 0 0 0-.298.294v17.482c0 .164.135.294.298.294h4.054c.162 0 .297-.13.297-.294v-17.48a.294.294 0 0 0-.297-.294v-.002Zm-2.004-7.96c-1.606 0-2.908 1.285-2.908 2.873 0 1.588 1.302 2.875 2.908 2.875 1.606 0 2.905-1.287 2.905-2.876 0-1.587-1.302-2.872-2.905-2.872Zm35.507 13.582a2.826 2.826 0 0 1-2.852-2.82c0-1.547 1.265-2.836 2.868-2.836a2.825 2.825 0 0 1 2.852 2.82c0 1.546-1.265 2.836-2.868 2.836Zm.016-5.375a2.536 2.536 0 0 0-2.567 2.554 2.515 2.515 0 0 0 2.551 2.539 2.535 2.535 0 0 0 2.567-2.555 2.515 2.515 0 0 0-2.551-2.538Zm.632 2.828.808 1.117h-.683l-.726-1.024h-.623v1.024h-.57v-2.96h1.334c.698 0 1.155.352 1.155.944.003.485-.282.782-.692.9h-.003Zm-.482-1.335h-.742v.936h.742c.37 0 .592-.18.592-.469 0-.304-.222-.467-.592-.467Z" />
	</g>
	<defs>
		<clipPath id="a">
			<path fill="#fff" d="M0 0h175v52H0z" />
		</clipPath>
	</defs>
</svg>
